<svg width="1184.822754" height="648.437256" viewBox="0 0 1184.82 648.437" fill="none" xmlns="http://www.w3.org/2000/svg" xmlns:xlink="http://www.w3.org/1999/xlink">
	<desc>
			Created with Pixso.
	</desc>
	<defs>
		<linearGradient id="paint_linear_57_219_0" x1="190.220276" y1="-66.654266" x2="180.635620" y2="539.640747" gradientUnits="userSpaceOnUse">
			<stop stop-color="#008083"/>
			<stop offset="1.000000" stop-color="#3FBEC1"/>
		</linearGradient>
		<linearGradient id="paint_linear_57_220_0" x1="307.635742" y1="104.000000" x2="307.635742" y2="836.634644" gradientUnits="userSpaceOnUse">
			<stop stop-color="#BBBBBB"/>
			<stop offset="1.000000" stop-color="#BBBBBB" stop-opacity="0.000000"/>
		</linearGradient>
		<linearGradient id="paint_linear_57_214_0" x1="548.219482" y1="184.384613" x2="538.635681" y2="548.954224" gradientUnits="userSpaceOnUse">
			<stop stop-color="#008083"/>
			<stop offset="1.000000" stop-color="#3FBEC1"/>
		</linearGradient>
		<linearGradient id="paint_linear_57_215_0" x1="665.635742" y1="287.000000" x2="665.635742" y2="727.538452" gradientUnits="userSpaceOnUse">
			<stop stop-color="#BBBBBB"/>
			<stop offset="1.000000" stop-color="#BBBBBB" stop-opacity="0.000000"/>
		</linearGradient>
		<linearGradient id="paint_linear_57_175_0" x1="915.220764" y1="308.217957" x2="905.635742" y2="552.585205" gradientUnits="userSpaceOnUse">
			<stop stop-color="#008083"/>
			<stop offset="1.000000" stop-color="#3FBEC1"/>
		</linearGradient>
		<linearGradient id="paint_linear_57_176_0" x1="1032.635742" y1="356.000000" x2="1032.635742" y2="684.807739" gradientUnits="userSpaceOnUse">
			<stop stop-color="#BBBBBB"/>
			<stop offset="1.000000" stop-color="#BBBBBB" stop-opacity="0.000000"/>
		</linearGradient>
		<linearGradient id="paint_linear_57_191_0" x1="421.118774" y1="583.962952" x2="417.333221" y2="646.045471" gradientUnits="userSpaceOnUse">
			<stop stop-color="#008083"/>
			<stop offset="1.000000" stop-color="#3FBEC1"/>
		</linearGradient>
		<linearGradient id="paint_linear_57_192_0" x1="767.118774" y1="583.962952" x2="763.333191" y2="646.045471" gradientUnits="userSpaceOnUse">
			<stop stop-color="#008083"/>
			<stop offset="1.000000" stop-color="#3FBEC1"/>
		</linearGradient>
	</defs>
	<path id="Line 2" d="M66.8179 10L66.8179 564L64.4536 564L64.4536 10L66.8179 10ZM65.6357 11.6719L59.7842 17.5234C59.3162 17.9915 58.5806 17.9915 58.1123 17.5234C57.6443 17.0552 57.6443 16.3196 58.1123 15.8516L64.7998 9.16406C65.2678 8.69604 66.0037 8.69604 66.4717 9.16406L73.1592 15.8516C73.6272 16.3196 73.6272 17.0552 73.1592 17.5234C72.6909 17.9915 71.9553 17.9915 71.4873 17.5234L65.6357 11.6719Z" fill="#000000" fill-opacity="1.000000" fill-rule="evenodd"/>
	<path id="Line 3" d="M1183.64 565.057L65.2876 565.057L65.2876 562.692L1183.64 562.692L1183.64 565.057ZM1181.96 563.875L1176.11 558.023C1175.64 557.555 1175.64 556.819 1176.11 556.351C1176.58 555.883 1177.32 555.883 1177.78 556.351L1184.47 563.039C1184.94 563.507 1184.94 564.242 1184.47 564.71L1177.78 571.398C1177.32 571.866 1176.58 571.866 1176.11 571.398C1175.64 570.93 1175.64 570.194 1176.11 569.726L1181.96 563.875Z" fill="#000000" fill-opacity="1.000000" fill-rule="evenodd"/>
	<path id="38,3" d="M152.795 72.8271Q156.603 73.4534 158.624 75.6657Q160.654 77.878 160.654 81.1408Q160.654 83.6662 159.331 85.7977Q158.007 87.9292 155.3 89.2121Q152.593 90.495 148.663 90.495Q145.592 90.495 142.633 89.6868Q139.683 88.8787 137.612 87.3938L140.218 82.2621Q141.875 83.5046 144.047 84.1915Q146.219 84.8683 148.492 84.8683Q151.017 84.8683 152.462 83.8986Q153.916 82.9288 153.916 81.1408Q153.916 77.585 148.492 77.585L145.431 77.585L145.431 73.1605L151.391 66.4126L139.057 66.4126L139.057 61.0385L159.331 61.0385L159.331 65.3822L152.795 72.8271ZM183.583 74.7768Q185.735 75.8475 186.866 77.585Q188.008 79.3225 188.008 81.6055Q188.008 84.2925 186.472 86.3028Q184.947 88.3029 182.169 89.404Q179.401 90.495 175.764 90.495Q172.118 90.495 169.36 89.404Q166.612 88.3029 165.097 86.3028Q163.592 84.2925 163.592 81.6055Q163.592 79.3225 164.733 77.585Q165.875 75.8475 167.986 74.7768Q166.37 73.7767 165.501 72.2715Q164.632 70.7563 164.632 68.8168Q164.632 66.2913 166.037 64.4326Q167.441 62.5638 169.966 61.5536Q172.492 60.5435 175.764 60.5435Q179.068 60.5435 181.613 61.5536Q184.159 62.5638 185.563 64.4326Q186.977 66.2913 186.977 68.8168Q186.977 70.7563 186.109 72.2715Q185.24 73.7767 183.583 74.7768ZM175.764 65.463Q173.734 65.463 172.512 66.4429Q171.289 67.4126 171.289 69.1097Q171.289 70.7563 172.492 71.7159Q173.694 72.6655 175.764 72.6655Q177.825 72.6655 179.068 71.7159Q180.31 70.7563 180.31 69.1097Q180.31 67.4126 179.068 66.4429Q177.825 65.463 175.764 65.463ZM175.764 85.5755Q178.28 85.5755 179.745 84.434Q181.219 83.2925 181.219 81.3934Q181.219 79.4942 179.745 78.373Q178.28 77.2517 175.764 77.2517Q173.279 77.2517 171.825 78.373Q170.38 79.4942 170.38 81.3934Q170.38 83.343 171.825 84.4643Q173.279 85.5755 175.764 85.5755ZM195.335 82.3025Q197.072 82.3025 198.183 83.4036Q199.305 84.4946 199.305 86.2725Q199.305 87.1008 199.093 87.9292Q198.89 88.7575 198.183 90.4142L195.83 96.3742L191.728 96.3742L193.557 89.798Q192.516 89.3838 191.91 88.4544Q191.314 87.515 191.314 86.2725Q191.314 84.4946 192.456 83.4036Q193.597 82.3025 195.335 82.3025ZM216.267 72.8271Q220.075 73.4534 222.095 75.6657Q224.126 77.878 224.126 81.1408Q224.126 83.6662 222.802 85.7977Q221.479 87.9292 218.772 89.2121Q216.064 90.495 212.135 90.495Q209.064 90.495 206.104 89.6868Q203.155 88.8787 201.084 87.3938L203.69 82.2621Q205.347 83.5046 207.518 84.1915Q209.69 84.8683 211.963 84.8683Q214.489 84.8683 215.933 83.8986Q217.388 82.9288 217.388 81.1408Q217.388 77.585 211.963 77.585L208.902 77.585L208.902 73.1605L214.862 66.4126L202.528 66.4126L202.528 61.0385L222.802 61.0385L222.802 65.3822L216.267 72.8271Z" fill="#008083" fill-opacity="1.000000" fill-rule="evenodd"/>
	<path id="38,3" d="M279.795 72.8271Q283.603 73.4534 285.624 75.6657Q287.654 77.878 287.654 81.1408Q287.654 83.6662 286.331 85.7977Q285.007 87.9292 282.3 89.2121Q279.593 90.495 275.663 90.495Q272.592 90.495 269.633 89.6868Q266.683 88.8787 264.612 87.3938L267.218 82.2621Q268.875 83.5046 271.047 84.1915Q273.219 84.8683 275.492 84.8683Q278.017 84.8683 279.462 83.8986Q280.916 82.9288 280.916 81.1408Q280.916 77.585 275.492 77.585L272.431 77.585L272.431 73.1605L278.391 66.4126L266.057 66.4126L266.057 61.0385L286.331 61.0385L286.331 65.3822L279.795 72.8271ZM310.583 74.7768Q312.735 75.8475 313.866 77.585Q315.008 79.3225 315.008 81.6055Q315.008 84.2925 313.472 86.3028Q311.947 88.3029 309.169 89.404Q306.401 90.495 302.764 90.495Q299.118 90.495 296.36 89.404Q293.612 88.3029 292.097 86.3028Q290.592 84.2925 290.592 81.6055Q290.592 79.3225 291.733 77.585Q292.875 75.8475 294.986 74.7768Q293.37 73.7767 292.501 72.2715Q291.632 70.7563 291.632 68.8168Q291.632 66.2913 293.037 64.4326Q294.441 62.5638 296.966 61.5536Q299.492 60.5435 302.764 60.5435Q306.068 60.5435 308.613 61.5536Q311.159 62.5638 312.563 64.4326Q313.977 66.2913 313.977 68.8168Q313.977 70.7563 313.109 72.2715Q312.24 73.7767 310.583 74.7768ZM302.764 65.463Q300.734 65.463 299.512 66.4429Q298.289 67.4126 298.289 69.1097Q298.289 70.7563 299.492 71.7159Q300.694 72.6655 302.764 72.6655Q304.825 72.6655 306.068 71.7159Q307.31 70.7563 307.31 69.1097Q307.31 67.4126 306.068 66.4429Q304.825 65.463 302.764 65.463ZM302.764 85.5755Q305.28 85.5755 306.745 84.434Q308.219 83.2925 308.219 81.3934Q308.219 79.4942 306.745 78.373Q305.28 77.2517 302.764 77.2517Q300.279 77.2517 298.825 78.373Q297.38 79.4942 297.38 81.3934Q297.38 83.343 298.825 84.4643Q300.279 85.5755 302.764 85.5755ZM322.335 82.3025Q324.072 82.3025 325.183 83.4036Q326.305 84.4946 326.305 86.2725Q326.305 87.1008 326.093 87.9292Q325.89 88.7575 325.183 90.4142L322.83 96.3742L318.728 96.3742L320.557 89.798Q319.516 89.3838 318.91 88.4544Q318.314 87.515 318.314 86.2725Q318.314 84.4946 319.456 83.4036Q320.597 82.3025 322.335 82.3025ZM343.267 72.8271Q347.075 73.4534 349.095 75.6657Q351.126 77.878 351.126 81.1408Q351.126 83.6662 349.802 85.7977Q348.479 87.9292 345.772 89.2121Q343.064 90.495 339.135 90.495Q336.064 90.495 333.104 89.6868Q330.155 88.8787 328.084 87.3938L330.69 82.2621Q332.347 83.5046 334.518 84.1915Q336.69 84.8683 338.963 84.8683Q341.489 84.8683 342.933 83.8986Q344.388 82.9288 344.388 81.1408Q344.388 77.585 338.963 77.585L335.902 77.585L335.902 73.1605L341.862 66.4126L329.528 66.4126L329.528 61.0385L349.802 61.0385L349.802 65.3822L343.267 72.8271Z" fill="#737373" fill-opacity="1.000000" fill-rule="evenodd"/>
	<path id="Rectangle 17" d="M141.915 104L218.356 104C230.109 104 239.636 113.527 239.636 125.279L239.636 563L120.636 563L120.636 125.279C120.636 113.527 130.163 104 141.915 104Z" fill="url(#paint_linear_57_219_0)" fill-opacity="1.000000" fill-rule="evenodd"/>
	<path id="Rectangle 20" d="M269.915 104L345.356 104C357.109 104 366.636 113.527 366.636 125.279L366.636 563L248.636 563L248.636 125.279C248.636 113.527 258.163 104 269.915 104Z" fill="url(#paint_linear_57_220_0)" fill-opacity="1.000000" fill-rule="evenodd"/>
	<path id="37,0" d="M511.205 255.827Q515.014 256.453 517.034 258.666Q519.064 260.878 519.064 264.141Q519.064 266.666 517.741 268.798Q516.418 270.929 513.71 272.212Q511.003 273.495 507.074 273.495Q504.003 273.495 501.043 272.687Q498.093 271.879 496.022 270.394L498.629 265.262Q500.285 266.505 502.457 267.192Q504.629 267.868 506.902 267.868Q509.427 267.868 510.872 266.899Q512.326 265.929 512.326 264.141Q512.326 260.585 506.902 260.585L503.841 260.585L503.841 256.16L509.801 249.413L497.467 249.413L497.467 244.038L517.741 244.038L517.741 248.382L511.205 255.827ZM544.47 244.038L544.47 248.382L533.711 273L526.428 273L536.823 249.493L527.216 249.493L527.216 254.211L521.256 254.211L521.256 244.038L544.47 244.038ZM549.276 265.303Q551.014 265.303 552.125 266.404Q553.246 267.495 553.246 269.272Q553.246 270.101 553.034 270.929Q552.832 271.758 552.125 273.414L549.771 279.374L545.67 279.374L547.498 272.798Q546.458 272.384 545.852 271.454Q545.256 270.515 545.256 269.272Q545.256 267.495 546.397 266.404Q547.539 265.303 549.276 265.303ZM568.145 273.495Q564.539 273.495 561.721 271.717Q558.912 269.939 557.316 266.565Q555.73 263.191 555.73 258.514Q555.73 253.847 557.316 250.473Q558.912 247.099 561.721 245.321Q564.539 243.543 568.145 243.543Q571.741 243.543 574.55 245.321Q577.368 247.099 578.954 250.473Q580.55 253.847 580.55 258.514Q580.55 263.191 578.954 266.565Q577.368 269.939 574.55 271.717Q571.741 273.495 568.145 273.495ZM568.145 267.828Q570.792 267.828 572.297 265.555Q573.812 263.272 573.812 258.514Q573.812 253.756 572.297 251.483Q570.792 249.211 568.145 249.211Q565.529 249.211 564.014 251.483Q562.509 253.756 562.509 258.514Q562.509 263.272 564.014 265.555Q565.529 267.828 568.145 267.828Z" fill="#008083" fill-opacity="1.000000" fill-rule="evenodd"/>
	<path id="37,0" d="M638.205 255.827Q642.014 256.453 644.034 258.666Q646.064 260.878 646.064 264.141Q646.064 266.666 644.741 268.798Q643.418 270.929 640.71 272.212Q638.003 273.495 634.074 273.495Q631.003 273.495 628.043 272.687Q625.093 271.879 623.022 270.394L625.629 265.262Q627.285 266.505 629.457 267.192Q631.629 267.868 633.902 267.868Q636.427 267.868 637.872 266.899Q639.326 265.929 639.326 264.141Q639.326 260.585 633.902 260.585L630.841 260.585L630.841 256.16L636.801 249.413L624.467 249.413L624.467 244.038L644.741 244.038L644.741 248.382L638.205 255.827ZM671.47 244.038L671.47 248.382L660.711 273L653.428 273L663.823 249.493L654.216 249.493L654.216 254.211L648.256 254.211L648.256 244.038L671.47 244.038ZM676.276 265.303Q678.014 265.303 679.125 266.404Q680.246 267.495 680.246 269.272Q680.246 270.101 680.034 270.929Q679.832 271.758 679.125 273.414L676.771 279.374L672.67 279.374L674.498 272.798Q673.458 272.384 672.852 271.454Q672.256 270.515 672.256 269.272Q672.256 267.495 673.397 266.404Q674.539 265.303 676.276 265.303ZM695.145 273.495Q691.539 273.495 688.721 271.717Q685.912 269.939 684.316 266.565Q682.73 263.191 682.73 258.514Q682.73 253.847 684.316 250.473Q685.912 247.099 688.721 245.321Q691.539 243.543 695.145 243.543Q698.741 243.543 701.55 245.321Q704.368 247.099 705.954 250.473Q707.55 253.847 707.55 258.514Q707.55 263.191 705.954 266.565Q704.368 269.939 701.55 271.717Q698.741 273.495 695.145 273.495ZM695.145 267.828Q697.792 267.828 699.297 265.555Q700.812 263.272 700.812 258.514Q700.812 253.756 699.297 251.483Q697.792 249.211 695.145 249.211Q692.529 249.211 691.014 251.483Q689.509 253.756 689.509 258.514Q689.509 263.272 691.014 265.555Q692.529 267.828 695.145 267.828Z" fill="#737373" fill-opacity="1.000000" fill-rule="evenodd"/>
	<path id="Rectangle 17" d="M499.915 287L576.356 287C588.109 287 597.636 296.527 597.636 308.279L597.636 563L478.636 563L478.636 308.279C478.636 296.527 488.163 287 499.915 287Z" fill="url(#paint_linear_57_214_0)" fill-opacity="1.000000" fill-rule="evenodd"/>
	<path id="Rectangle 20" d="M627.915 287L703.356 287C715.109 287 724.636 296.527 724.636 308.279L724.636 563L606.636 563L606.636 308.279C606.636 296.527 616.163 287 627.915 287Z" fill="url(#paint_linear_57_215_0)" fill-opacity="1.000000" fill-rule="evenodd"/>
	<path id="36,5" d="M877.916 345.827Q881.724 346.453 883.744 348.666Q885.775 350.878 885.775 354.141Q885.775 356.666 884.451 358.798Q883.128 360.929 880.421 362.212Q877.714 363.495 873.784 363.495Q870.713 363.495 867.753 362.687Q864.804 361.879 862.733 360.394L865.339 355.262Q866.996 356.505 869.168 357.192Q871.339 357.868 873.612 357.868Q876.138 357.868 877.582 356.899Q879.037 355.929 879.037 354.141Q879.037 350.585 873.612 350.585L870.551 350.585L870.551 346.16L876.511 339.413L864.177 339.413L864.177 334.038L884.451 334.038L884.451 338.382L877.916 345.827ZM902.825 344.837Q905.603 344.837 907.875 345.958Q910.148 347.07 911.472 349.12Q912.795 351.171 912.795 353.858Q912.795 356.757 911.35 358.949Q909.906 361.141 907.401 362.323Q904.896 363.495 901.835 363.495Q895.753 363.495 892.319 359.778Q888.884 356.05 888.884 349.14Q888.884 344.211 890.743 340.695Q892.602 337.18 895.935 335.362Q899.269 333.543 903.653 333.543Q905.966 333.543 908.098 334.059Q910.229 334.574 911.724 335.523L909.239 340.453Q907.088 338.998 903.815 338.998Q900.138 338.998 897.986 341.15Q895.834 343.302 895.663 347.403Q898.228 344.837 902.825 344.837ZM901.461 358.495Q903.613 358.495 904.956 357.333Q906.3 356.171 906.3 354.191Q906.3 352.201 904.956 351.019Q903.613 349.837 901.38 349.837Q899.188 349.837 897.774 351.06Q896.37 352.282 896.37 354.191Q896.37 356.09 897.733 357.293Q899.097 358.495 901.461 358.495ZM919.504 355.303Q921.241 355.303 922.352 356.404Q923.474 357.495 923.474 359.272Q923.474 360.101 923.261 360.929Q923.059 361.758 922.352 363.414L919.999 369.374L915.897 369.374L917.726 362.798Q916.685 362.384 916.079 361.454Q915.483 360.515 915.483 359.272Q915.483 357.495 916.625 356.404Q917.766 355.303 919.504 355.303ZM936.426 344.918Q942.547 344.918 945.467 347.363Q948.386 349.797 948.386 353.898Q948.386 356.545 947.052 358.717Q945.729 360.889 943.022 362.192Q940.315 363.495 936.345 363.495Q933.274 363.495 930.314 362.687Q927.364 361.879 925.293 360.394L927.94 355.262Q929.597 356.505 931.748 357.192Q933.9 357.868 936.173 357.868Q938.698 357.868 940.143 356.878Q941.598 355.878 941.598 354.1Q941.598 352.242 940.082 351.292Q938.577 350.343 934.85 350.343L927.445 350.343L928.93 334.038L946.598 334.038L946.598 339.413L934.516 339.413L934.062 344.918L936.426 344.918Z" fill="#008083" fill-opacity="1.000000" fill-rule="evenodd"/>
	<path id="36,6" d="M1004.82 324.827Q1008.62 325.453 1010.64 327.666Q1012.67 329.878 1012.67 333.141Q1012.67 335.666 1011.35 337.798Q1010.03 339.929 1007.32 341.212Q1004.61 342.495 1000.68 342.495Q997.613 342.495 994.653 341.687Q991.704 340.879 989.633 339.394L992.239 334.262Q993.896 335.505 996.068 336.192Q998.239 336.868 1000.51 336.868Q1003.04 336.868 1004.48 335.899Q1005.94 334.929 1005.94 333.141Q1005.94 329.585 1000.51 329.585L997.451 329.585L997.451 325.16L1003.41 318.413L991.077 318.413L991.077 313.038L1011.35 313.038L1011.35 317.382L1004.82 324.827ZM1029.72 323.837Q1032.5 323.837 1034.78 324.958Q1037.05 326.07 1038.37 328.12Q1039.7 330.171 1039.7 332.858Q1039.7 335.757 1038.25 337.949Q1036.81 340.141 1034.3 341.323Q1031.8 342.495 1028.73 342.495Q1022.65 342.495 1019.22 338.778Q1015.78 335.05 1015.78 328.14Q1015.78 323.211 1017.64 319.695Q1019.5 316.18 1022.84 314.362Q1026.17 312.543 1030.55 312.543Q1032.87 312.543 1035 313.059Q1037.13 313.574 1038.62 314.523L1036.14 319.453Q1033.99 317.998 1030.71 317.998Q1027.04 317.998 1024.89 320.15Q1022.73 322.302 1022.56 326.403Q1025.13 323.837 1029.72 323.837ZM1028.36 337.495Q1030.51 337.495 1031.86 336.333Q1033.2 335.171 1033.2 333.191Q1033.2 331.201 1031.86 330.019Q1030.51 328.837 1028.28 328.837Q1026.09 328.837 1024.67 330.06Q1023.27 331.282 1023.27 333.191Q1023.27 335.09 1024.63 336.293Q1026 337.495 1028.36 337.495ZM1046.4 334.303Q1048.14 334.303 1049.25 335.404Q1050.37 336.495 1050.37 338.272Q1050.37 339.101 1050.16 339.929Q1049.96 340.758 1049.25 342.414L1046.9 348.374L1042.8 348.374L1044.63 341.798Q1043.59 341.384 1042.98 340.454Q1042.38 339.515 1042.38 338.272Q1042.38 336.495 1043.52 335.404Q1044.67 334.303 1046.4 334.303ZM1066.8 323.837Q1069.58 323.837 1071.85 324.958Q1074.12 326.07 1075.45 328.12Q1076.77 330.171 1076.77 332.858Q1076.77 335.757 1075.32 337.949Q1073.88 340.141 1071.37 341.323Q1068.87 342.495 1065.81 342.495Q1059.73 342.495 1056.29 338.778Q1052.86 335.05 1052.86 328.14Q1052.86 323.211 1054.72 319.695Q1056.58 316.18 1059.91 314.362Q1063.24 312.543 1067.63 312.543Q1069.94 312.543 1072.07 313.059Q1074.2 313.574 1075.7 314.523L1073.21 319.453Q1071.06 317.998 1067.79 317.998Q1064.11 317.998 1061.96 320.15Q1059.81 322.302 1059.64 326.403Q1062.2 323.837 1066.8 323.837ZM1065.43 337.495Q1067.59 337.495 1068.93 336.333Q1070.27 335.171 1070.27 333.191Q1070.27 331.201 1068.93 330.019Q1067.59 328.837 1065.35 328.837Q1063.16 328.837 1061.75 330.06Q1060.34 331.282 1060.34 333.191Q1060.34 335.09 1061.71 336.293Q1063.07 337.495 1065.43 337.495Z" fill="#737373" fill-opacity="1.000000" fill-rule="evenodd"/>
	<path id="Rectangle 17" d="M866.915 377L943.356 377C955.109 377 964.636 386.527 964.636 398.279L964.636 562L845.636 562L845.636 398.279C845.636 386.527 855.163 377 866.915 377Z" fill="url(#paint_linear_57_175_0)" fill-opacity="1.000000" fill-rule="evenodd"/>
	<path id="Rectangle 20" d="M994.915 356L1070.36 356C1082.11 356 1091.64 365.527 1091.64 377.279L1091.64 562L973.636 562L973.636 377.279C973.636 365.527 983.163 356 994.915 356Z" fill="url(#paint_linear_57_176_0)" fill-opacity="1.000000" fill-rule="evenodd"/>
	<path id="Line 5" d="M65.2876 193.85L53.4658 193.85" stroke="#000000" stroke-opacity="1.000000" stroke-width="1.182186" stroke-linecap="round"/>
	<path id="Line 11" d="M65.2876 102L53.4658 102" stroke="#000000" stroke-opacity="1.000000" stroke-width="1.182186" stroke-linecap="round"/>
	<path id="Line 6" d="M65.2876 285.47L53.4658 285.47" stroke="#000000" stroke-opacity="1.000000" stroke-width="1.182186" stroke-linecap="round"/>
	<path id="Line 7" d="M65.2876 377.089L53.4658 377.089" stroke="#000000" stroke-opacity="1.000000" stroke-width="1.182186" stroke-linecap="round"/>
	<path id="Line 9" d="M417.579 563.875L417.579 552.053" stroke="#000000" stroke-opacity="1.000000" stroke-width="1.182186" stroke-linecap="round"/>
	<path id="Line 10" d="M771.053 563.875L771.053 552.053" stroke="#000000" stroke-opacity="1.000000" stroke-width="1.182186" stroke-linecap="round"/>
	<path id="Line 8" d="M65.2876 468.708L53.4658 468.708" stroke="#000000" stroke-opacity="1.000000" stroke-width="1.182186" stroke-linecap="round"/>
	<path id="1-й день" d="M195.812 608.829L195.812 625L192.067 625L192.067 611.829L188.835 611.829L188.835 608.829L195.812 608.829ZM198.929 617.053L205.466 617.053L205.466 619.94L198.929 619.94L198.929 617.053ZM208.036 613.801L210.614 613.801L210.614 621.098L215.958 613.801L218.388 613.801L218.388 625L215.829 625L215.829 617.719L210.485 625L208.036 625L208.036 613.801ZM213.204 613.078Q210.13 613.078 210.099 610.633L211.876 610.633Q211.907 611.801 213.204 611.801Q213.845 611.801 214.181 611.504Q214.517 611.207 214.532 610.633L216.306 610.633Q216.29 611.832 215.521 612.457Q214.755 613.078 213.204 613.078ZM245.012 621.948L245.012 628.35L241.543 628.35L241.543 625L230.133 625L230.133 628.35L226.664 628.35L226.692 621.948L227.335 621.948Q228.79 621.903 229.388 619.828Q229.992 617.746 230.133 613.888L230.319 608.829L242.745 608.829L242.745 621.948L245.012 621.948ZM233.438 614.232Q233.32 617.12 232.947 619.072Q232.581 621.023 231.819 621.948L239.05 621.948L239.05 611.875L233.506 611.875L233.438 614.232ZM260.049 621.999L260.049 625L247.527 625L247.527 608.829L259.75 608.829L259.75 611.829L251.244 611.829L251.244 615.344L258.757 615.344L258.757 618.254L251.244 618.254L251.244 621.999L260.049 621.999ZM277.91 608.829L277.91 625L274.165 625L274.165 618.367L266.821 618.367L266.821 625L263.075 625L263.075 608.829L266.821 608.829L266.821 615.202L274.165 615.202L274.165 608.829L277.91 608.829ZM289.786 614.142Q292.741 614.142 294.32 615.462Q295.905 616.776 295.905 619.365Q295.905 622.112 294.163 623.556Q292.42 625 289.255 625L281.951 625L281.951 608.829L285.674 608.829L285.674 614.142L289.786 614.142ZM289.047 622.225Q290.502 622.225 291.32 621.514Q292.143 620.798 292.143 619.433Q292.143 616.912 289.047 616.912L285.674 616.912L285.674 622.225L289.047 622.225Z" fill="#000000" fill-opacity="1.000000" fill-rule="evenodd"/>
	<path id="3-й день" d="M542.316 615.411Q544.442 615.761 545.57 616.996Q546.704 618.231 546.704 620.053Q546.704 621.463 545.965 622.654Q545.226 623.844 543.715 624.56Q542.203 625.276 540.009 625.276Q538.294 625.276 536.641 624.825Q534.994 624.374 533.838 623.545L535.293 620.679Q536.218 621.373 537.431 621.757Q538.644 622.135 539.913 622.135Q541.323 622.135 542.13 621.593Q542.942 621.052 542.942 620.053Q542.942 618.068 539.913 618.068L538.204 618.068L538.204 615.597L541.532 611.829L534.645 611.829L534.645 608.829L545.965 608.829L545.965 611.254L542.316 615.411ZM548.739 617.053L555.277 617.053L555.277 619.94L548.739 619.94L548.739 617.053ZM557.846 613.801L560.425 613.801L560.425 621.098L565.768 613.801L568.198 613.801L568.198 625L565.639 625L565.639 617.719L560.296 625L557.846 625L557.846 613.801ZM563.014 613.078Q559.94 613.078 559.909 610.633L561.686 610.633Q561.718 611.801 563.014 611.801Q563.655 611.801 563.991 611.504Q564.327 611.207 564.343 610.633L566.116 610.633Q566.1 611.832 565.331 612.457Q564.565 613.078 563.014 613.078ZM594.823 621.948L594.823 628.35L591.354 628.35L591.354 625L579.943 625L579.943 628.35L576.474 628.35L576.502 621.948L577.145 621.948Q578.601 621.903 579.199 619.828Q579.802 617.746 579.943 613.888L580.129 608.829L592.555 608.829L592.555 621.948L594.823 621.948ZM583.248 614.232Q583.13 617.12 582.758 619.072Q582.391 621.023 581.63 621.948L588.861 621.948L588.861 611.875L583.316 611.875L583.248 614.232ZM609.859 621.999L609.859 625L597.337 625L597.337 608.829L609.56 608.829L609.56 611.829L601.054 611.829L601.054 615.344L608.567 615.344L608.567 618.254L601.054 618.254L601.054 621.999L609.859 621.999ZM627.72 608.829L627.72 625L623.975 625L623.975 618.367L616.631 618.367L616.631 625L612.886 625L612.886 608.829L616.631 608.829L616.631 615.202L623.975 615.202L623.975 608.829L627.72 608.829ZM639.596 614.142Q642.552 614.142 644.131 615.462Q645.716 616.776 645.716 619.365Q645.716 622.112 643.973 623.556Q642.23 625 639.066 625L631.761 625L631.761 608.829L635.484 608.829L635.484 614.142L639.596 614.142ZM638.857 622.225Q640.312 622.225 641.13 621.514Q641.954 620.798 641.954 619.433Q641.954 616.912 638.857 616.912L635.484 616.912L635.484 622.225L638.857 622.225Z" fill="#000000" fill-opacity="1.000000" fill-rule="evenodd"/>
	<path id="7-й день" d="M930.675 608.829L930.675 611.254L924.667 625L920.601 625L926.405 611.875L921.041 611.875L921.041 614.509L917.713 614.509L917.713 608.829L930.675 608.829ZM931.485 617.053L938.023 617.053L938.023 619.94L931.485 619.94L931.485 617.053ZM940.592 613.801L943.17 613.801L943.17 621.098L948.514 613.801L950.944 613.801L950.944 625L948.385 625L948.385 617.719L943.042 625L940.592 625L940.592 613.801ZM945.76 613.078Q942.686 613.078 942.655 610.633L944.432 610.633Q944.463 611.801 945.76 611.801Q946.401 611.801 946.737 611.504Q947.073 611.207 947.088 610.633L948.862 610.633Q948.846 611.832 948.077 612.457Q947.311 613.078 945.76 613.078ZM977.569 621.948L977.569 628.35L974.1 628.35L974.1 625L962.689 625L962.689 628.35L959.22 628.35L959.248 621.948L959.891 621.948Q961.346 621.903 961.944 619.828Q962.548 617.746 962.689 613.888L962.875 608.829L975.301 608.829L975.301 621.948L977.569 621.948ZM965.994 614.232Q965.876 617.12 965.504 619.072Q965.137 621.023 964.375 621.948L971.607 621.948L971.607 611.875L966.062 611.875L965.994 614.232ZM992.605 621.999L992.605 625L980.083 625L980.083 608.829L992.306 608.829L992.306 611.829L983.8 611.829L983.8 615.344L991.313 615.344L991.313 618.254L983.8 618.254L983.8 621.999L992.605 621.999ZM1010.47 608.829L1010.47 625L1006.72 625L1006.72 618.367L999.377 618.367L999.377 625L995.632 625L995.632 608.829L999.377 608.829L999.377 615.202L1006.72 615.202L1006.72 608.829L1010.47 608.829ZM1022.34 614.142Q1025.3 614.142 1026.88 615.462Q1028.46 616.776 1028.46 619.365Q1028.46 622.112 1026.72 623.556Q1024.98 625 1021.81 625L1014.51 625L1014.51 608.829L1018.23 608.829L1018.23 614.142L1022.34 614.142ZM1021.6 622.225Q1023.06 622.225 1023.88 621.514Q1024.7 620.798 1024.7 619.433Q1024.7 616.912 1021.6 616.912L1018.23 616.912L1018.23 622.225L1021.6 622.225Z" fill="#000000" fill-opacity="1.000000" fill-rule="evenodd"/>
	<path id="36,0" d="M11.9682 467.549Q14.0462 467.66 15.1314 468.671Q16.2213 469.683 16.2213 471.313Q16.2213 472.444 15.6717 473.326Q15.1268 474.204 14.0462 474.716Q12.9702 475.229 11.4186 475.229Q9.98246 475.229 8.7033 474.767Q7.42875 474.301 6.65294 473.525L7.3133 472.444Q7.97828 473.128 9.07273 473.552Q10.1718 473.977 11.4186 473.977Q13.0441 473.977 13.9308 473.271Q14.822 472.56 14.822 471.313Q14.822 470.08 13.9308 469.382Q13.0441 468.681 11.2478 468.681L10.3011 468.681L10.3011 467.678L13.9723 463.084L7.20247 463.084L7.20247 461.874L15.7133 461.874L15.7133 462.839L11.9682 467.549ZM23.6198 467.189Q24.9221 467.189 25.9334 467.683Q26.9493 468.173 27.5127 469.073Q28.0807 469.969 28.0807 471.16Q28.0807 472.37 27.4943 473.298Q26.9124 474.222 25.878 474.725Q24.8482 475.229 23.5644 475.229Q20.9322 475.229 19.533 473.497Q18.1337 471.765 18.1337 468.607Q18.1337 466.395 18.8911 464.862Q19.6484 463.328 21.0061 462.543Q22.3684 461.758 24.1878 461.758Q26.1551 461.758 27.328 462.479L26.7785 463.573Q25.8318 462.95 24.2063 462.95Q22.0128 462.95 20.7613 464.34Q19.5145 465.73 19.5145 468.38Q19.5145 468.851 19.5699 469.456Q20.064 468.38 21.14 467.785Q22.2206 467.189 23.6198 467.189ZM23.5044 474.074Q24.9452 474.074 25.841 473.289Q26.7415 472.504 26.7415 471.197Q26.7415 469.895 25.841 469.119Q24.9452 468.343 23.412 468.343Q22.4099 468.343 21.6434 468.722Q20.8768 469.096 20.4381 469.761Q20.004 470.421 20.004 471.234Q20.004 471.992 20.4104 472.638Q20.8214 473.28 21.6157 473.677Q22.4099 474.074 23.5044 474.074ZM30.8811 473.146Q31.3152 473.146 31.5969 473.442Q31.8832 473.733 31.8832 474.167Q31.8832 474.393 31.8186 474.661Q31.7539 474.924 31.62 475.266L30.8257 477.875L29.916 477.875L30.5625 475.132Q30.2577 475.039 30.0684 474.785Q29.8791 474.527 29.8791 474.167Q29.8791 473.733 30.1608 473.442Q30.4471 473.146 30.8811 473.146ZM38.9223 475.229Q37.3892 475.229 36.1885 474.416Q34.9878 473.599 34.3136 472.079Q33.644 470.555 33.644 468.491Q33.644 466.432 34.3136 464.908Q34.9878 463.384 36.1885 462.571Q37.3892 461.758 38.9223 461.758Q40.4555 461.758 41.6561 462.571Q42.8568 463.384 43.5356 464.908Q44.2191 466.432 44.2191 468.491Q44.2191 470.555 43.5356 472.079Q42.8568 473.599 41.6561 474.416Q40.4555 475.229 38.9223 475.229ZM38.9223 473.977Q40.0768 473.977 40.9542 473.335Q41.8362 472.693 42.3257 471.465Q42.8198 470.232 42.8198 468.491Q42.8198 466.755 42.3257 465.526Q41.8362 464.294 40.9542 463.652Q40.0768 463.01 38.9223 463.01Q37.7678 463.01 36.8858 463.652Q36.0084 464.294 35.5143 465.526Q35.0248 466.755 35.0248 468.491Q35.0248 470.232 35.5143 471.465Q36.0084 472.693 36.8858 473.335Q37.7678 473.977 38.9223 473.977Z" fill="#000000" fill-opacity="1.000000" fill-rule="evenodd"/>
	<path id="35,5" d="M12.7676 562.436Q14.8456 562.547 15.9308 563.558Q17.0207 564.569 17.0207 566.199Q17.0207 567.331 16.4711 568.213Q15.9262 569.09 14.8456 569.603Q13.7697 570.115 12.218 570.115Q10.7819 570.115 9.50271 569.654Q8.22817 569.187 7.45236 568.411L8.11272 567.331Q8.7777 568.014 9.87214 568.439Q10.9712 568.864 12.218 568.864Q13.8436 568.864 14.7302 568.157Q15.6214 567.446 15.6214 566.199Q15.6214 564.966 14.7302 564.269Q13.8436 563.567 12.0472 563.567L11.1005 563.567L11.1005 562.565L14.7718 557.97L8.00189 557.97L8.00189 556.76L16.5127 556.76L16.5127 557.726L12.7676 562.436ZM22.2259 562.186Q25.0983 562.186 26.4144 563.221Q27.7305 564.251 27.7305 566.102Q27.7305 567.257 27.1902 568.167Q26.6499 569.072 25.5693 569.594Q24.4933 570.115 22.9232 570.115Q21.5055 570.115 20.2264 569.654Q18.9518 569.187 18.176 568.411L18.8364 567.331Q19.5013 568.014 20.5773 568.439Q21.6579 568.864 22.9048 568.864Q24.5487 568.864 25.4492 568.13Q26.3497 567.391 26.3497 566.163Q26.3497 564.8 25.3338 564.098Q24.3225 563.396 21.9211 563.396L19.1042 563.396L19.783 556.76L27.0285 556.76L27.0285 557.97L20.9745 557.97L20.5219 562.186L22.2259 562.186ZM30.4889 568.033Q30.923 568.033 31.2047 568.328Q31.491 568.619 31.491 569.053Q31.491 569.28 31.4264 569.547Q31.3617 569.811 31.2278 570.152L30.4335 572.762L29.5238 572.762L30.1703 570.018Q29.8655 569.926 29.6762 569.672Q29.4868 569.414 29.4868 569.053Q29.4868 568.619 29.7685 568.328Q30.0548 568.033 30.4889 568.033ZM36.9418 562.186Q39.8141 562.186 41.1302 563.221Q42.4463 564.251 42.4463 566.102Q42.4463 567.257 41.906 568.167Q41.3657 569.072 40.2851 569.594Q39.2092 570.115 37.6391 570.115Q36.2214 570.115 34.9422 569.654Q33.6677 569.187 32.8919 568.411L33.5522 567.331Q34.2172 568.014 35.2932 568.439Q36.3738 568.864 37.6206 568.864Q39.2646 568.864 40.1651 568.13Q41.0656 567.391 41.0656 566.163Q41.0656 564.8 40.0496 564.098Q39.0383 563.396 36.637 563.396L33.8201 563.396L34.4989 556.76L41.7444 556.76L41.7444 557.97L35.6903 557.97L35.2378 562.186L36.9418 562.186Z" fill="#000000" fill-opacity="1.000000" fill-rule="evenodd"/>
	<path id="36,5" d="M6.39381 376.521Q8.47187 376.632 9.55708 377.643Q10.6469 378.654 10.6469 380.284Q10.6469 381.416 10.0974 382.298Q9.55246 383.175 8.47187 383.688Q7.39589 384.2 5.84427 384.2Q4.4081 384.2 3.12894 383.739Q1.8544 383.272 1.07859 382.496L1.73895 381.416Q2.40393 382.099 3.49837 382.524Q4.59744 382.949 5.84427 382.949Q7.46978 382.949 8.35642 382.242Q9.24768 381.531 9.24768 380.284Q9.24768 379.051 8.35642 378.354Q7.46978 377.652 5.67341 377.652L4.72674 377.652L4.72674 376.65L8.39798 372.055L1.62812 372.055L1.62812 370.845L10.1389 370.845L10.1389 371.811L6.39381 376.521ZM18.0455 376.161Q19.3477 376.161 20.359 376.655Q21.375 377.144 21.9384 378.045Q22.5064 378.941 22.5064 380.132Q22.5064 381.342 21.9199 382.27Q21.338 383.194 20.3036 383.697Q19.2738 384.2 17.9901 384.2Q15.3578 384.2 13.9586 382.469Q12.5594 380.737 12.5594 377.578Q12.5594 375.366 13.3167 373.833Q14.0741 372.3 15.4317 371.515Q16.794 370.73 18.6135 370.73Q20.5807 370.73 21.7537 371.45L21.2041 372.545Q20.2575 371.921 18.6319 371.921Q16.4384 371.921 15.187 373.311Q13.9401 374.701 13.9401 377.352Q13.9401 377.823 13.9956 378.428Q14.4897 377.352 15.5656 376.756Q16.6462 376.161 18.0455 376.161ZM17.93 383.046Q19.3708 383.046 20.2667 382.261Q21.1672 381.476 21.1672 380.169Q21.1672 378.867 20.2667 378.091Q19.3708 377.315 17.8377 377.315Q16.8356 377.315 16.069 377.694Q15.3024 378.068 14.8637 378.733Q14.4296 379.393 14.4296 380.206Q14.4296 380.963 14.836 381.61Q15.247 382.252 16.0413 382.649Q16.8356 383.046 17.93 383.046ZM25.3068 382.118Q25.7409 382.118 26.0226 382.413Q26.3089 382.704 26.3089 383.138Q26.3089 383.365 26.2442 383.632Q26.1796 383.896 26.0457 384.237L25.2514 386.846L24.3416 386.846L24.9882 384.103Q24.6834 384.011 24.494 383.757Q24.3047 383.498 24.3047 383.138Q24.3047 382.704 24.5864 382.413Q24.8727 382.118 25.3068 382.118ZM31.7596 376.271Q34.632 376.271 35.9481 377.306Q37.2642 378.336 37.2642 380.187Q37.2642 381.342 36.7239 382.252Q36.1836 383.157 35.103 383.679Q34.027 384.2 32.457 384.2Q31.0392 384.2 29.7601 383.739Q28.4855 383.272 27.7097 382.496L28.3701 381.416Q29.0351 382.099 30.111 382.524Q31.1916 382.949 32.4385 382.949Q34.0825 382.949 34.9829 382.215Q35.8834 381.476 35.8834 380.247Q35.8834 378.885 34.8675 378.183Q33.8562 377.481 31.4549 377.481L28.6379 377.481L29.3168 370.845L36.5623 370.845L36.5623 372.055L30.5082 372.055L30.0556 376.271L31.7596 376.271Z" fill="#000000" fill-opacity="1.000000" fill-rule="evenodd"/>
	<path id="37,0" d="M6.784 285.492Q8.86206 285.603 9.94727 286.615Q11.0371 287.626 11.0371 289.256Q11.0371 290.387 10.4876 291.27Q9.94265 292.147 8.86206 292.659Q7.78609 293.172 6.23447 293.172Q4.7983 293.172 3.51913 292.71Q2.24459 292.244 1.46878 291.468L2.12914 290.387Q2.79412 291.071 3.88857 291.496Q4.98763 291.921 6.23447 291.921Q7.85997 291.921 8.74661 291.214Q9.63787 290.503 9.63787 289.256Q9.63787 288.023 8.74661 287.326Q7.85997 286.624 6.0636 286.624L5.11693 286.624L5.11693 285.622L8.78817 281.027L2.01831 281.027L2.01831 279.817L10.5291 279.817L10.5291 280.782L6.784 285.492ZM22.0457 279.817L22.0457 280.782L16.5042 293.057L15.0311 293.057L20.4756 281.027L13.6688 281.027L13.6688 283.507L12.325 283.507L12.325 279.817L22.0457 279.817ZM23.8811 291.089Q24.3152 291.089 24.5969 291.385Q24.8832 291.676 24.8832 292.11Q24.8832 292.336 24.8186 292.604Q24.7539 292.867 24.62 293.209L23.8257 295.818L22.916 295.818L23.5625 293.075Q23.2577 292.983 23.0684 292.729Q22.8791 292.47 22.8791 292.11Q22.8791 291.676 23.1608 291.385Q23.4471 291.089 23.8811 291.089ZM31.9223 293.172Q30.3892 293.172 29.1885 292.359Q27.9878 291.542 27.3136 290.023Q26.644 288.499 26.644 286.435Q26.644 284.375 27.3136 282.851Q27.9878 281.327 29.1885 280.514Q30.3892 279.702 31.9223 279.702Q33.4555 279.702 34.6561 280.514Q35.8568 281.327 36.5356 282.851Q37.2191 284.375 37.2191 286.435Q37.2191 288.499 36.5356 290.023Q35.8568 291.542 34.6561 292.359Q33.4555 293.172 31.9223 293.172ZM31.9223 291.921Q33.0768 291.921 33.9542 291.279Q34.8362 290.637 35.3257 289.408Q35.8198 288.176 35.8198 286.435Q35.8198 284.698 35.3257 283.47Q34.8362 282.237 33.9542 281.595Q33.0768 280.953 31.9223 280.953Q30.7678 280.953 29.8858 281.595Q29.0084 282.237 28.5143 283.47Q28.0248 284.698 28.0248 286.435Q28.0248 288.176 28.5143 289.408Q29.0084 290.637 29.8858 291.279Q30.7678 291.921 31.9223 291.921Z" fill="#000000" fill-opacity="1.000000" fill-rule="evenodd"/>
	<path id="37,5" d="M8.39177 194.464Q10.4698 194.575 11.555 195.586Q12.6449 196.598 12.6449 198.228Q12.6449 199.359 12.0953 200.241Q11.5504 201.119 10.4698 201.631Q9.39386 202.144 7.84224 202.144Q6.40607 202.144 5.12691 201.682Q3.85236 201.216 3.07655 200.44L3.73691 199.359Q4.40189 200.043 5.49634 200.467Q6.5954 200.892 7.84224 200.892Q9.46775 200.892 10.3544 200.186Q11.2456 199.475 11.2456 198.228Q11.2456 196.995 10.3544 196.297Q9.46775 195.596 7.67138 195.596L6.7247 195.596L6.7247 194.593L10.3959 189.999L3.62608 189.999L3.62608 188.789L12.1369 188.789L12.1369 189.754L8.39177 194.464ZM23.6535 188.789L23.6535 189.754L18.112 202.028L16.6389 202.028L22.0834 189.999L15.2766 189.999L15.2766 192.478L13.9328 192.478L13.9328 188.789L23.6535 188.789ZM25.4889 200.061Q25.923 200.061 26.2047 200.357Q26.491 200.648 26.491 201.082Q26.491 201.308 26.4264 201.576Q26.3617 201.839 26.2278 202.181L25.4335 204.79L24.5238 204.79L25.1703 202.047Q24.8655 201.954 24.6762 201.7Q24.4868 201.442 24.4868 201.082Q24.4868 200.648 24.7685 200.357Q25.0548 200.061 25.4889 200.061ZM31.9418 194.215Q34.8141 194.215 36.1302 195.249Q37.4463 196.279 37.4463 198.131Q37.4463 199.285 36.906 200.195Q36.3657 201.1 35.2851 201.622Q34.2092 202.144 32.6391 202.144Q31.2214 202.144 29.9422 201.682Q28.6677 201.216 27.8919 200.44L28.5522 199.359Q29.2172 200.043 30.2932 200.467Q31.3738 200.892 32.6206 200.892Q34.2646 200.892 35.1651 200.158Q36.0656 199.419 36.0656 198.191Q36.0656 196.829 35.0496 196.127Q34.0383 195.425 31.637 195.425L28.8201 195.425L29.4989 188.789L36.7444 188.789L36.7444 189.999L30.6903 189.999L30.2378 194.215L31.9418 194.215Z" fill="#000000" fill-opacity="1.000000" fill-rule="evenodd"/>
	<path id="38,0" d="M7.87324 103.436Q9.9513 103.547 11.0365 104.558Q12.1263 105.569 12.1263 107.199Q12.1263 108.331 11.5768 109.213Q11.0319 110.09 9.9513 110.603Q8.87533 111.115 7.32371 111.115Q5.88754 111.115 4.60837 110.654Q3.33383 110.187 2.55802 109.411L3.21838 108.331Q3.88336 109.014 4.97781 109.439Q6.07687 109.864 7.32371 109.864Q8.94921 109.864 9.83585 109.157Q10.7271 108.446 10.7271 107.199Q10.7271 105.966 9.83585 105.269Q8.94921 104.567 7.15285 104.567L6.20617 104.567L6.20617 103.565L9.87742 98.9703L3.10755 98.9703L3.10755 97.7604L11.6184 97.7604L11.6184 98.7256L7.87324 103.436ZM21.6214 104.059Q22.8729 104.475 23.5425 105.306Q24.2167 106.137 24.2167 107.31Q24.2167 108.465 23.5887 109.328Q22.9653 110.187 21.8015 110.654Q20.6378 111.115 19.0723 111.115Q16.6849 111.115 15.3226 110.095Q13.9649 109.07 13.9649 107.31Q13.9649 106.119 14.6161 105.297Q15.2672 104.475 16.5186 104.059Q15.4935 103.662 14.9624 102.914Q14.436 102.166 14.436 101.145Q14.436 99.5383 15.692 98.5917Q16.9527 97.645 19.0723 97.645Q20.4716 97.645 21.5198 98.0745Q22.5681 98.4993 23.1546 99.2936Q23.7411 100.088 23.7411 101.145Q23.7411 102.166 23.1915 102.914Q22.6466 103.662 21.6214 104.059ZM15.7982 101.182Q15.7982 102.281 16.6664 102.923Q17.5392 103.565 19.0723 103.565Q20.6009 103.565 21.4783 102.923Q22.3603 102.281 22.3603 101.201Q22.3603 100.088 21.4598 99.446Q20.5639 98.7995 19.0723 98.7995Q17.5577 98.7995 16.6757 99.446Q15.7982 100.088 15.7982 101.182ZM19.0723 109.961Q20.8272 109.961 21.82 109.241Q22.8175 108.52 22.8175 107.292Q22.8175 106.063 21.82 105.357Q20.8272 104.646 19.0723 104.646Q17.3314 104.646 16.3385 105.357Q15.3457 106.063 15.3457 107.292Q15.3457 108.543 16.3293 109.254Q17.3129 109.961 19.0723 109.961ZM27.3348 109.033Q27.7688 109.033 28.0505 109.328Q28.3368 109.619 28.3368 110.053Q28.3368 110.28 28.2722 110.547Q28.2075 110.811 28.0736 111.152L27.2793 113.762L26.3696 113.762L27.0161 111.018Q26.7113 110.926 26.522 110.672Q26.3327 110.414 26.3327 110.053Q26.3327 109.619 26.6144 109.328Q26.9007 109.033 27.3348 109.033ZM35.3759 111.115Q33.8428 111.115 32.6421 110.303Q31.4415 109.485 30.7672 107.966Q30.0976 106.442 30.0976 104.378Q30.0976 102.318 30.7672 100.794Q31.4415 99.2705 32.6421 98.4577Q33.8428 97.645 35.3759 97.645Q36.9091 97.645 38.1097 98.4577Q39.3104 99.2705 39.9892 100.794Q40.6727 102.318 40.6727 104.378Q40.6727 106.442 39.9892 107.966Q39.3104 109.485 38.1097 110.303Q36.9091 111.115 35.3759 111.115ZM35.3759 109.864Q36.5304 109.864 37.4078 109.222Q38.2898 108.58 38.7793 107.352Q39.2734 106.119 39.2734 104.378Q39.2734 102.642 38.7793 101.413Q38.2898 100.18 37.4078 99.5383Q36.5304 98.8964 35.3759 98.8964Q34.2214 98.8964 33.3394 99.5383Q32.462 100.18 31.9679 101.413Q31.4784 102.642 31.4784 104.378Q31.4784 106.119 31.9679 107.352Q32.462 108.58 33.3394 109.222Q34.2214 109.864 35.3759 109.864Z" fill="#000000" fill-opacity="1.000000" fill-rule="evenodd"/>
	<path id="38,5" d="M9.48101 12.4359Q11.5591 12.5467 12.6443 13.558Q13.7341 14.5693 13.7341 16.1995Q13.7341 17.3308 13.1846 18.2129Q12.6397 19.0903 11.5591 19.6029Q10.4831 20.1154 8.93148 20.1154Q7.49531 20.1154 6.21615 19.6537Q4.9416 19.1872 4.16579 18.4114L4.82615 17.3308Q5.49113 18.0143 6.58558 18.4391Q7.68464 18.864 8.93148 18.864Q10.557 18.864 11.4436 18.1575Q12.3349 17.4463 12.3349 16.1995Q12.3349 14.9665 11.4436 14.2692Q10.557 13.5672 8.76062 13.5672L7.81395 13.5672L7.81395 12.5652L11.4852 7.97033L4.71532 7.97033L4.71532 6.76044L13.2261 6.76044L13.2261 7.72558L9.48101 12.4359ZM23.2292 13.0593Q24.4807 13.4749 25.1503 14.3061Q25.8245 15.1373 25.8245 16.3103Q25.8245 17.4648 25.1964 18.3283Q24.573 19.1872 23.4093 19.6537Q22.2456 20.1154 20.6801 20.1154Q18.2927 20.1154 16.9304 19.0949Q15.5727 18.0697 15.5727 16.3103Q15.5727 15.1189 16.2238 14.2969Q16.875 13.4749 18.1264 13.0593Q17.1012 12.6621 16.5702 11.914Q16.0437 11.1659 16.0437 10.1454Q16.0437 8.53833 17.2998 7.59166Q18.5605 6.64499 20.6801 6.64499Q22.0793 6.64499 23.1276 7.07446Q24.1759 7.4993 24.7624 8.29359Q25.3488 9.08787 25.3488 10.1454Q25.3488 11.1659 24.7993 11.914Q24.2544 12.6621 23.2292 13.0593ZM17.406 10.1823Q17.406 11.2814 18.2742 11.9233Q19.147 12.5652 20.6801 12.5652Q22.2087 12.5652 23.0861 11.9233Q23.9681 11.2814 23.9681 10.2008Q23.9681 9.08787 23.0676 8.44598Q22.1717 7.79947 20.6801 7.79947Q19.1654 7.79947 18.2834 8.44598Q17.406 9.08787 17.406 10.1823ZM20.6801 18.961Q22.4349 18.961 23.4278 18.2406Q24.4253 17.5202 24.4253 16.2918Q24.4253 15.0634 23.4278 14.3569Q22.4349 13.6457 20.6801 13.6457Q18.9392 13.6457 17.9463 14.3569Q16.9535 15.0634 16.9535 16.2918Q16.9535 17.5433 17.9371 18.2544Q18.9207 18.961 20.6801 18.961ZM28.9425 18.0328Q29.3766 18.0328 29.6583 18.3283Q29.9446 18.6192 29.9446 19.0533Q29.9446 19.2796 29.88 19.5474Q29.8153 19.8107 29.6814 20.1524L28.8871 22.7615L27.9774 22.7615L28.6239 20.0185Q28.3191 19.9261 28.1298 19.6721Q27.9404 19.4135 27.9404 19.0533Q27.9404 18.6192 28.2221 18.3283Q28.5084 18.0328 28.9425 18.0328ZM35.3954 12.1865Q38.2677 12.1865 39.5838 13.2209Q40.8999 14.2507 40.8999 16.1025Q40.8999 17.257 40.3596 18.1667Q39.8194 19.0718 38.7388 19.5936Q37.6628 20.1154 36.0927 20.1154Q34.675 20.1154 33.3958 19.6537Q32.1213 19.1872 31.3455 18.4114L32.0058 17.3308Q32.6708 18.0143 33.7468 18.4391Q34.8274 18.864 36.0742 18.864Q37.7182 18.864 38.6187 18.1297Q39.5192 17.3909 39.5192 16.1625Q39.5192 14.8002 38.5032 14.0983Q37.4919 13.3964 35.0906 13.3964L32.2737 13.3964L32.9525 6.76044L40.198 6.76044L40.198 7.97033L34.1439 7.97033L33.6914 12.1865L35.3954 12.1865Z" fill="#000000" fill-opacity="1.000000" fill-rule="evenodd"/>
	<path id="image 9 (Traced)" d="M395.75 601.734C394.449 602.212 393.454 603.831 393.664 605.126C393.892 606.531 394.257 606.949 402.579 615.331C413.523 626.354 413.523 623.697 402.579 634.721C396.483 640.861 394.364 643.092 394.101 643.648C392.581 646.865 395.391 649.561 398.599 647.964C399.773 647.379 419.242 627.846 419.798 626.695C421.043 624.116 421.203 624.333 409.338 612.452C397.786 600.884 397.874 600.953 395.75 601.734ZM415.711 602.228C414.278 603.088 413.792 604.906 414.561 606.532C414.843 607.127 416.771 609.162 422.974 615.41C433.825 626.341 433.836 623.7 422.894 634.721C416.798 640.861 414.68 643.092 414.417 643.648C412.897 646.865 415.708 649.562 418.914 647.963C420.127 647.359 439.425 628.009 440.033 626.788C441.36 624.12 441.47 624.272 429.818 612.605C418.161 600.932 418.03 600.836 415.711 602.228Z" fill="url(#paint_linear_57_191_0)" fill-opacity="1.000000" fill-rule="evenodd"/>
	<path id="image 9 (Traced)" d="M741.75 601.734C740.449 602.212 739.454 603.831 739.664 605.126C739.892 606.531 740.257 606.949 748.579 615.331C759.523 626.354 759.523 623.697 748.579 634.721C742.483 640.861 740.364 643.092 740.101 643.648C738.581 646.865 741.391 649.561 744.599 647.964C745.773 647.379 765.242 627.846 765.798 626.695C767.043 624.116 767.203 624.333 755.338 612.452C743.786 600.884 743.874 600.953 741.75 601.734ZM761.711 602.228C760.278 603.088 759.792 604.906 760.561 606.532C760.843 607.127 762.771 609.162 768.974 615.41C779.825 626.341 779.836 623.7 768.894 634.721C762.798 640.861 760.68 643.092 760.417 643.648C758.897 646.865 761.708 649.562 764.914 647.963C766.127 647.359 785.425 628.009 786.033 626.788C787.36 624.12 787.47 624.272 775.818 612.605C764.161 600.932 764.03 600.836 761.711 602.228Z" fill="url(#paint_linear_57_192_0)" fill-opacity="1.000000" fill-rule="evenodd"/>
</svg>
