<svg width="1173.341553" height="662.894043" viewBox="0 0 1173.34 662.894" fill="none" xmlns="http://www.w3.org/2000/svg" xmlns:xlink="http://www.w3.org/1999/xlink">
	<desc>
			Created with Pixso.
	</desc>
	<defs>
		<linearGradient id="paint_linear_58_450_0" x1="962.738770" y1="-158.825546" x2="953.154541" y2="549.179199" gradientUnits="userSpaceOnUse">
			<stop stop-color="#008083"/>
			<stop offset="1.000000" stop-color="#3FBEC1"/>
		</linearGradient>
		<linearGradient id="paint_linear_58_439_0" x1="228.739288" y1="377.174500" x2="219.154602" y2="570.026550" gradientUnits="userSpaceOnUse">
			<stop stop-color="#008083"/>
			<stop offset="1.000000" stop-color="#3FBEC1"/>
		</linearGradient>
		<linearGradient id="paint_linear_58_444_0" x1="585.739502" y1="-8.299667" x2="576.154541" y2="555.726440" gradientUnits="userSpaceOnUse">
			<stop stop-color="#008083"/>
			<stop offset="1.000000" stop-color="#3FBEC1"/>
		</linearGradient>
		<linearGradient id="paint_linear_58_477_0" x1="409.637573" y1="598.419739" x2="405.852020" y2="660.502258" gradientUnits="userSpaceOnUse">
			<stop stop-color="#008083"/>
			<stop offset="1.000000" stop-color="#3FBEC1"/>
		</linearGradient>
		<linearGradient id="paint_linear_58_478_0" x1="755.637573" y1="598.419739" x2="751.851990" y2="660.502258" gradientUnits="userSpaceOnUse">
			<stop stop-color="#008083"/>
			<stop offset="1.000000" stop-color="#3FBEC1"/>
		</linearGradient>
	</defs>
	<path id="Rectangle 17" d="M914.434 40.4565L990.875 40.4565C1002.63 40.4565 1012.15 49.9834 1012.15 61.7358L1012.15 576.457L893.155 576.457L893.155 61.7358C893.155 49.9834 902.681 40.4565 914.434 40.4565Z" fill="url(#paint_linear_58_450_0)" fill-opacity="1.000000" fill-rule="evenodd"/>
	<path id="Line 2" d="M55.3367 24.4565L55.3367 578.457L52.9724 578.457L52.9724 24.4565L55.3367 24.4565ZM54.1545 26.1284L48.303 31.98C47.835 32.4482 47.0994 32.4482 46.6311 31.98C46.1631 31.5117 46.1631 30.7764 46.6311 30.3081L53.3186 23.6206C53.7866 23.1523 54.5225 23.1523 54.9905 23.6206L61.678 30.3081C62.146 30.7764 62.146 31.5117 61.678 31.98C61.2097 32.4482 60.4741 32.4482 60.0061 31.98L54.1545 26.1284Z" fill="#000000" fill-opacity="1.000000" fill-rule="evenodd"/>
	<path id="Line 3" d="M1172.15 579.513L53.8064 579.513L53.8064 577.149L1172.15 577.149L1172.15 579.513ZM1170.48 578.331L1164.63 572.479C1164.16 572.011 1164.16 571.276 1164.63 570.808C1165.1 570.339 1165.83 570.339 1166.3 570.808L1172.99 577.495C1173.46 577.963 1173.46 578.699 1172.99 579.167L1166.3 585.854C1165.83 586.323 1165.1 586.323 1164.63 585.854C1164.16 585.386 1164.16 584.651 1164.63 584.183L1170.48 578.331Z" fill="#000000" fill-opacity="1.000000" fill-rule="evenodd"/>
	<path id="29" d="M216.524 411.992L216.524 417.457L194.634 417.457L194.634 413.113L205.806 402.557Q207.584 400.87 208.2 399.647Q208.827 398.425 208.827 397.223Q208.827 395.485 207.645 394.556Q206.473 393.627 204.19 393.627Q202.291 393.627 200.755 394.354Q199.23 395.071 198.19 396.516L193.31 393.374Q195.008 390.849 197.988 389.424Q200.968 388 204.816 388Q208.039 388 210.463 389.061Q212.888 390.111 214.231 392.031Q215.575 393.95 215.575 396.566Q215.575 398.92 214.575 400.991Q213.585 403.062 210.736 405.708L204.069 411.992L216.524 411.992ZM229.471 388Q235.552 388 238.987 391.707Q242.421 395.405 242.421 402.355Q242.421 407.274 240.583 410.8Q238.744 414.315 235.39 416.133Q232.037 417.952 227.653 417.952Q225.339 417.952 223.228 417.436Q221.117 416.921 219.632 415.972L222.107 411.042Q224.218 412.487 227.531 412.487Q231.208 412.487 233.36 410.315Q235.512 408.143 235.683 404.052Q233.077 406.658 228.481 406.658Q225.713 406.658 223.43 405.547Q221.157 404.425 219.834 402.375Q218.511 400.324 218.511 397.637Q218.511 394.738 219.955 392.546Q221.41 390.354 223.905 389.182Q226.41 388 229.471 388ZM229.976 401.647Q232.168 401.647 233.552 400.435Q234.936 399.213 234.936 397.304Q234.936 395.405 233.592 394.202Q232.249 393 229.885 393Q227.733 393 226.39 394.162Q225.046 395.324 225.046 397.304Q225.046 399.294 226.39 400.476Q227.733 401.647 229.976 401.647Z" fill="#008083" fill-opacity="1.000000" fill-rule="evenodd"/>
	<path id="Rectangle 17" d="M180.434 431.457L256.875 431.457C268.628 431.457 278.155 440.983 278.155 452.736L278.155 577.457L159.155 577.457L159.155 452.736C159.155 440.983 168.682 431.457 180.434 431.457Z" fill="url(#paint_linear_58_439_0)" fill-opacity="1.000000" fill-rule="evenodd"/>
	<path id="78" d="M573.81 107.495L573.81 111.839L563.051 136.457L555.768 136.457L566.163 112.95L556.556 112.95L556.556 117.667L550.596 117.667L550.596 107.495L573.81 107.495ZM595.911 121.233Q598.063 122.304 599.194 124.042Q600.336 125.779 600.336 128.062Q600.336 130.749 598.8 132.759Q597.275 134.759 594.497 135.861Q591.729 136.952 588.092 136.952Q584.446 136.952 581.688 135.861Q578.94 134.759 577.425 132.759Q575.92 130.749 575.92 128.062Q575.92 125.779 577.061 124.042Q578.203 122.304 580.314 121.233Q578.698 120.233 577.829 118.728Q576.96 117.213 576.96 115.273Q576.96 112.748 578.364 110.889Q579.769 109.02 582.294 108.01Q584.819 107 588.092 107Q591.396 107 593.941 108.01Q596.487 109.02 597.891 110.889Q599.305 112.748 599.305 115.273Q599.305 117.213 598.437 118.728Q597.568 120.233 595.911 121.233ZM588.092 111.92Q586.062 111.92 584.84 112.899Q583.617 113.869 583.617 115.566Q583.617 117.213 584.819 118.172Q586.022 119.122 588.092 119.122Q590.153 119.122 591.396 118.172Q592.638 117.213 592.638 115.566Q592.638 113.869 591.396 112.899Q590.153 111.92 588.092 111.92ZM588.092 132.032Q590.608 132.032 592.072 130.891Q593.547 129.749 593.547 127.85Q593.547 125.951 592.072 124.829Q590.608 123.708 588.092 123.708Q585.607 123.708 584.153 124.829Q582.708 125.951 582.708 127.85Q582.708 129.8 584.153 130.921Q585.607 132.032 588.092 132.032Z" fill="#008083" fill-opacity="1.000000" fill-rule="evenodd"/>
	<path id="Rectangle 17" d="M537.434 150.457L613.875 150.457C625.628 150.457 635.155 159.983 635.155 171.736L635.155 577.457L516.155 577.457L516.155 171.736C516.155 159.983 525.681 150.457 537.434 150.457Z" fill="url(#paint_linear_58_444_0)" fill-opacity="1.000000" fill-rule="evenodd"/>
	<path id="95" d="M938.955 1.71661e-05Q945.036 1.71661e-05 948.471 3.70734Q951.906 7.40456 951.906 14.3545Q951.906 19.274 950.067 22.7995Q948.229 26.3149 944.875 28.1332Q941.521 29.9515 937.137 29.9515Q934.824 29.9515 932.712 29.4363Q930.601 28.9212 929.116 27.9716L931.591 23.042Q933.702 24.4865 937.016 24.4865Q940.693 24.4865 942.844 22.3146Q944.996 20.1428 945.168 16.0516Q942.562 18.6578 937.965 18.6578Q935.197 18.6578 932.914 17.5467Q930.642 16.4254 929.318 14.3747Q927.995 12.3241 927.995 9.63703Q927.995 6.73784 929.439 4.54578Q930.894 2.35371 933.389 1.18192Q935.894 1.71661e-05 938.955 1.71661e-05ZM939.46 13.6474Q941.652 13.6474 943.036 12.4352Q944.42 11.2129 944.42 9.30367Q944.42 7.40456 943.077 6.20246Q941.733 5.00035 939.369 5.00035Q937.218 5.00035 935.874 6.16205Q934.531 7.32374 934.531 9.30367Q934.531 11.2937 935.874 12.4756Q937.218 13.6474 939.46 13.6474ZM965.07 11.3745Q971.191 11.3745 974.111 13.8191Q977.03 16.2536 977.03 20.3549Q977.03 23.0016 975.697 25.1734Q974.373 27.3453 971.666 28.6484Q968.959 29.9515 964.989 29.9515Q961.918 29.9515 958.958 29.1434Q956.008 28.3353 953.938 26.8503L956.584 21.7187Q958.241 22.9612 960.393 23.6481Q962.544 24.3249 964.817 24.3249Q967.343 24.3249 968.787 23.3349Q970.242 22.3349 970.242 20.557Q970.242 18.6982 968.727 17.7487Q967.221 16.7991 963.494 16.7991L956.089 16.7991L957.574 0.495001L975.242 0.495001L975.242 5.8691L963.16 5.8691L962.706 11.3745L965.07 11.3745Z" fill="#008083" fill-opacity="1.000000" fill-rule="evenodd"/>
	<path id="Line 9" d="M406.098 578.331L406.098 566.509" stroke="#000000" stroke-opacity="1.000000" stroke-width="1.182186" stroke-linecap="round"/>
	<path id="Line 10" d="M759.572 578.331L759.572 566.509" stroke="#000000" stroke-opacity="1.000000" stroke-width="1.182186" stroke-linecap="round"/>
	<path id="Line 8" d="M53.8064 467.457L41.9846 467.457" stroke="#000000" stroke-opacity="1.000000" stroke-width="1.182186" stroke-linecap="round"/>
	<path id="Line 11" d="M53.8064 357.457L41.9846 357.457" stroke="#000000" stroke-opacity="1.000000" stroke-width="1.182186" stroke-linecap="round"/>
	<path id="Line 12" d="M53.8064 247.457L41.9846 247.457" stroke="#000000" stroke-opacity="1.000000" stroke-width="1.182186" stroke-linecap="round"/>
	<path id="Line 13" d="M53.8064 137.457L41.9846 137.457" stroke="#000000" stroke-opacity="1.000000" stroke-width="1.182186" stroke-linecap="round"/>
	<path id="1-й день" d="M184.331 623.285L184.331 639.457L180.585 639.457L180.585 626.286L177.353 626.286L177.353 623.285L184.331 623.285ZM187.448 631.509L193.985 631.509L193.985 634.397L187.448 634.397L187.448 631.509ZM196.555 628.257L199.133 628.257L199.133 635.554L204.477 628.257L206.906 628.257L206.906 639.457L204.348 639.457L204.348 632.175L199.004 639.457L196.555 639.457L196.555 628.257ZM201.723 627.535Q198.649 627.535 198.617 625.089L200.395 625.089Q200.426 626.257 201.723 626.257Q202.364 626.257 202.699 625.96Q203.035 625.664 203.051 625.089L204.824 625.089Q204.809 626.289 204.039 626.914Q203.274 627.535 201.723 627.535ZM233.531 636.405L233.531 642.807L230.062 642.807L230.062 639.457L218.652 639.457L218.652 642.807L215.183 642.807L215.211 636.405L215.854 636.405Q217.309 636.36 217.907 634.284Q218.511 632.203 218.652 628.345L218.838 623.285L231.264 623.285L231.264 636.405L233.531 636.405ZM221.957 628.689Q221.838 631.577 221.466 633.528Q221.1 635.48 220.338 636.405L227.569 636.405L227.569 626.331L222.025 626.331L221.957 628.689ZM248.567 636.456L248.567 639.457L236.046 639.457L236.046 623.285L248.268 623.285L248.268 626.286L239.763 626.286L239.763 629.8L247.276 629.8L247.276 632.711L239.763 632.711L239.763 636.456L248.567 636.456ZM266.429 623.285L266.429 639.457L262.683 639.457L262.683 632.823L255.339 632.823L255.339 639.457L251.594 639.457L251.594 623.285L255.339 623.285L255.339 629.659L262.683 629.659L262.683 623.285L266.429 623.285ZM278.304 628.599Q281.26 628.599 282.839 629.918Q284.424 631.233 284.424 633.822Q284.424 636.569 282.681 638.013Q280.938 639.457 277.774 639.457L270.47 639.457L270.47 623.285L274.192 623.285L274.192 628.599L278.304 628.599ZM277.565 636.681Q279.021 636.681 279.839 635.971Q280.662 635.254 280.662 633.889Q280.662 631.368 277.565 631.368L274.192 631.368L274.192 636.681L277.565 636.681Z" fill="#000000" fill-opacity="1.000000" fill-rule="evenodd"/>
	<path id="3-й день" d="M530.835 629.868Q532.961 630.217 534.089 631.453Q535.223 632.688 535.223 634.51Q535.223 635.92 534.484 637.11Q533.745 638.3 532.233 639.017Q530.722 639.733 528.528 639.733Q526.813 639.733 525.16 639.282Q523.513 638.83 522.357 638.001L523.812 635.136Q524.737 635.83 525.95 636.213Q527.163 636.591 528.432 636.591Q529.842 636.591 530.648 636.05Q531.461 635.508 531.461 634.51Q531.461 632.524 528.432 632.524L526.723 632.524L526.723 630.054L530.051 626.286L523.164 626.286L523.164 623.285L534.484 623.285L534.484 625.711L530.835 629.868ZM537.258 631.509L543.795 631.509L543.795 634.397L537.258 634.397L537.258 631.509ZM546.365 628.257L548.943 628.257L548.943 635.554L554.287 628.257L556.717 628.257L556.717 639.457L554.158 639.457L554.158 632.175L548.815 639.457L546.365 639.457L546.365 628.257ZM551.533 627.535Q548.459 627.535 548.428 625.089L550.205 625.089Q550.236 626.257 551.533 626.257Q552.174 626.257 552.51 625.96Q552.846 625.664 552.861 625.089L554.635 625.089Q554.619 626.289 553.85 626.914Q553.084 627.535 551.533 627.535ZM583.341 636.405L583.341 642.807L579.873 642.807L579.873 639.457L568.462 639.457L568.462 642.807L564.993 642.807L565.021 636.405L565.664 636.405Q567.119 636.36 567.717 634.284Q568.321 632.203 568.462 628.345L568.648 623.285L581.074 623.285L581.074 636.405L583.341 636.405ZM571.767 628.689Q571.649 631.577 571.276 633.528Q570.91 635.48 570.148 636.405L577.38 636.405L577.38 626.331L571.835 626.331L571.767 628.689ZM598.378 636.456L598.378 639.457L585.856 639.457L585.856 623.285L598.079 623.285L598.079 626.286L589.573 626.286L589.573 629.8L597.086 629.8L597.086 632.711L589.573 632.711L589.573 636.456L598.378 636.456ZM616.239 623.285L616.239 639.457L612.494 639.457L612.494 632.823L605.15 632.823L605.15 639.457L601.405 639.457L601.405 623.285L605.15 623.285L605.15 629.659L612.494 629.659L612.494 623.285L616.239 623.285ZM628.115 628.599Q631.07 628.599 632.65 629.918Q634.235 631.233 634.235 633.822Q634.235 636.569 632.492 638.013Q630.749 639.457 627.584 639.457L620.28 639.457L620.28 623.285L624.003 623.285L624.003 628.599L628.115 628.599ZM627.376 636.681Q628.831 636.681 629.649 635.971Q630.472 635.254 630.472 633.889Q630.472 631.368 627.376 631.368L624.003 631.368L624.003 636.681L627.376 636.681Z" fill="#000000" fill-opacity="1.000000" fill-rule="evenodd"/>
	<path id="7-й день" d="M919.193 623.285L919.193 625.711L913.186 639.457L909.119 639.457L914.924 626.331L909.559 626.331L909.559 628.965L906.232 628.965L906.232 623.285L919.193 623.285ZM920.004 631.509L926.541 631.509L926.541 634.397L920.004 634.397L920.004 631.509ZM929.111 628.257L931.689 628.257L931.689 635.554L937.033 628.257L939.463 628.257L939.463 639.457L936.904 639.457L936.904 632.175L931.56 639.457L929.111 639.457L929.111 628.257ZM934.279 627.535Q931.205 627.535 931.174 625.089L932.951 625.089Q932.982 626.257 934.279 626.257Q934.92 626.257 935.256 625.96Q935.592 625.664 935.607 625.089L937.381 625.089Q937.365 626.289 936.596 626.914Q935.83 627.535 934.279 627.535ZM966.087 636.405L966.087 642.807L962.618 642.807L962.618 639.457L951.208 639.457L951.208 642.807L947.739 642.807L947.767 636.405L948.41 636.405Q949.865 636.36 950.463 634.284Q951.067 632.203 951.208 628.345L951.394 623.285L963.82 623.285L963.82 636.405L966.087 636.405ZM954.513 628.689Q954.395 631.577 954.022 633.528Q953.656 635.48 952.894 636.405L960.125 636.405L960.125 626.331L954.581 626.331L954.513 628.689ZM981.124 636.456L981.124 639.457L968.602 639.457L968.602 623.285L980.825 623.285L980.825 626.286L972.319 626.286L972.319 629.8L979.832 629.8L979.832 632.711L972.319 632.711L972.319 636.456L981.124 636.456ZM998.985 623.285L998.985 639.457L995.24 639.457L995.24 632.823L987.896 632.823L987.896 639.457L984.15 639.457L984.15 623.285L987.896 623.285L987.896 629.659L995.24 629.659L995.24 623.285L998.985 623.285ZM1010.86 628.599Q1013.82 628.599 1015.4 629.918Q1016.98 631.233 1016.98 633.822Q1016.98 636.569 1015.24 638.013Q1013.49 639.457 1010.33 639.457L1003.03 639.457L1003.03 623.285L1006.75 623.285L1006.75 628.599L1010.86 628.599ZM1010.12 636.681Q1011.58 636.681 1012.39 635.971Q1013.22 635.254 1013.22 633.889Q1013.22 631.368 1010.12 631.368L1006.75 631.368L1006.75 636.681L1010.12 636.681Z" fill="#000000" fill-opacity="1.000000" fill-rule="evenodd"/>
	<path id="0" d="M25.4411 584.572Q23.908 584.572 22.7073 583.759Q21.5066 582.942 20.8324 581.423Q20.1628 579.899 20.1628 577.834Q20.1628 575.775 20.8324 574.251Q21.5066 572.727 22.7073 571.914Q23.908 571.102 25.4411 571.102Q26.9743 571.102 28.1749 571.914Q29.3756 572.727 30.0544 574.251Q30.7379 575.775 30.7379 577.834Q30.7379 579.899 30.0544 581.423Q29.3756 582.942 28.1749 583.759Q26.9743 584.572 25.4411 584.572ZM25.4411 583.321Q26.5956 583.321 27.473 582.679Q28.355 582.037 28.8445 580.808Q29.3386 579.575 29.3386 577.834Q29.3386 576.098 28.8445 574.87Q28.355 573.637 27.473 572.995Q26.5956 572.353 25.4411 572.353Q24.2866 572.353 23.4046 572.995Q22.5272 573.637 22.0331 574.87Q21.5436 576.098 21.5436 577.834Q21.5436 579.575 22.0331 580.808Q22.5272 582.037 23.4046 582.679Q24.2866 583.321 25.4411 583.321Z" fill="#000000" fill-opacity="1.000000" fill-rule="evenodd"/>
	<path id="20" d="M18.5367 473.247L18.5367 474.457L9.25003 474.457L9.25003 473.491L14.7546 468.102Q15.7936 467.082 16.163 466.334Q16.5325 465.586 16.5325 464.828Q16.5325 463.655 15.729 463.004Q14.9254 462.353 13.4292 462.353Q11.1018 462.353 9.81803 463.826L8.85289 462.995Q9.6287 462.085 10.8294 461.596Q12.03 461.102 13.5447 461.102Q15.5673 461.102 16.7495 462.057Q17.9317 463.013 17.9317 464.676Q17.9317 465.701 17.4745 466.648Q17.022 467.59 15.7567 468.818L11.2542 473.247L18.5367 473.247ZM25.4411 474.572Q23.908 474.572 22.7073 473.759Q21.5066 472.942 20.8324 471.423Q20.1628 469.899 20.1628 467.834Q20.1628 465.775 20.8324 464.251Q21.5066 462.727 22.7073 461.914Q23.908 461.102 25.4411 461.102Q26.9743 461.102 28.1749 461.914Q29.3756 462.727 30.0544 464.251Q30.7379 465.775 30.7379 467.834Q30.7379 469.899 30.0544 471.423Q29.3756 472.942 28.1749 473.759Q26.9743 474.572 25.4411 474.572ZM25.4411 473.321Q26.5956 473.321 27.473 472.679Q28.355 472.037 28.8445 470.808Q29.3386 469.575 29.3386 467.834Q29.3386 466.098 28.8445 464.87Q28.355 463.637 27.473 462.995Q26.5956 462.353 25.4411 462.353Q24.2866 462.353 23.4046 462.995Q22.5272 463.637 22.0331 464.87Q21.5436 466.098 21.5436 467.834Q21.5436 469.575 22.0331 470.808Q22.5272 472.037 23.4046 472.679Q24.2866 473.321 25.4411 473.321Z" fill="#000000" fill-opacity="1.000000" fill-rule="evenodd"/>
	<path id="40" d="M18.9139 360.975L16.2678 360.975L16.2678 364.457L14.9055 364.457L14.9055 360.975L7.43375 360.975L7.43375 359.991L14.4484 351.217L15.963 351.217L9.19317 359.765L14.9425 359.765L14.9425 356.703L16.2678 356.703L16.2678 359.765L18.9139 359.765L18.9139 360.975ZM25.4411 364.572Q23.908 364.572 22.7073 363.759Q21.5066 362.942 20.8324 361.423Q20.1628 359.899 20.1628 357.834Q20.1628 355.775 20.8324 354.251Q21.5066 352.727 22.7073 351.914Q23.908 351.102 25.4411 351.102Q26.9743 351.102 28.1749 351.914Q29.3756 352.727 30.0544 354.251Q30.7379 355.775 30.7379 357.834Q30.7379 359.899 30.0544 361.423Q29.3756 362.942 28.1749 363.759Q26.9743 364.572 25.4411 364.572ZM25.4411 363.321Q26.5956 363.321 27.473 362.679Q28.355 362.037 28.8445 360.808Q29.3386 359.575 29.3386 357.834Q29.3386 356.098 28.8445 354.87Q28.355 353.637 27.473 352.995Q26.5956 352.353 25.4411 352.353Q24.2866 352.353 23.4046 352.995Q22.5272 353.637 22.0331 354.87Q21.5436 356.098 21.5436 357.834Q21.5436 359.575 22.0331 360.808Q22.5272 362.037 23.4046 362.679Q24.2866 363.321 25.4411 363.321Z" fill="#000000" fill-opacity="1.000000" fill-rule="evenodd"/>
	<path id="60" d="M14.1297 246.532Q15.4319 246.532 16.4433 247.026Q17.4592 247.516 18.0226 248.416Q18.5906 249.312 18.5906 250.504Q18.5906 251.714 18.0041 252.642Q17.4223 253.565 16.3878 254.069Q15.3581 254.572 14.0743 254.572Q11.4421 254.572 10.0428 252.84Q8.6436 251.109 8.6436 247.95Q8.6436 245.738 9.40094 244.205Q10.1583 242.672 11.5159 241.887Q12.8782 241.102 14.6977 241.102Q16.6649 241.102 17.8379 241.822L17.2883 242.916Q16.3417 242.293 14.7162 242.293Q12.5227 242.293 11.2712 243.683Q10.0244 245.073 10.0244 247.724Q10.0244 248.195 10.0798 248.8Q10.5739 247.724 11.6499 247.128Q12.7305 246.532 14.1297 246.532ZM14.0142 253.418Q15.455 253.418 16.3509 252.632Q17.2514 251.847 17.2514 250.541Q17.2514 249.238 16.3509 248.462Q15.455 247.687 13.9219 247.687Q12.9198 247.687 12.1532 248.065Q11.3866 248.439 10.9479 249.104Q10.5139 249.765 10.5139 250.577Q10.5139 251.335 10.9202 251.981Q11.3312 252.623 12.1255 253.02Q12.9198 253.418 14.0142 253.418ZM25.4411 254.572Q23.908 254.572 22.7073 253.759Q21.5066 252.942 20.8324 251.423Q20.1628 249.899 20.1628 247.834Q20.1628 245.775 20.8324 244.251Q21.5066 242.727 22.7073 241.914Q23.908 241.102 25.4411 241.102Q26.9743 241.102 28.1749 241.914Q29.3756 242.727 30.0544 244.251Q30.7379 245.775 30.7379 247.834Q30.7379 249.899 30.0544 251.423Q29.3756 252.942 28.1749 253.759Q26.9743 254.572 25.4411 254.572ZM25.4411 253.321Q26.5956 253.321 27.473 252.679Q28.355 252.037 28.8445 250.808Q29.3386 249.575 29.3386 247.834Q29.3386 246.098 28.8445 244.87Q28.355 243.637 27.473 242.995Q26.5956 242.353 25.4411 242.353Q24.2866 242.353 23.4046 242.995Q22.5272 243.637 22.0331 244.87Q21.5436 246.098 21.5436 247.834Q21.5436 249.575 22.0331 250.808Q22.5272 252.037 23.4046 252.679Q24.2866 253.321 25.4411 253.321Z" fill="#000000" fill-opacity="1.000000" fill-rule="evenodd"/>
	<path id="80" d="M15.6777 137.516Q16.9291 137.931 17.5987 138.763Q18.273 139.594 18.273 140.767Q18.273 141.921 17.6449 142.785Q17.0215 143.644 15.8578 144.11Q14.6941 144.572 13.1286 144.572Q10.7411 144.572 9.37885 143.551Q8.02118 142.526 8.02118 140.767Q8.02118 139.575 8.67231 138.753Q9.32343 137.931 10.5749 137.516Q9.54971 137.119 9.01865 136.371Q8.49221 135.622 8.49221 134.602Q8.49221 132.995 9.74828 132.048Q11.009 131.102 13.1286 131.102Q14.5278 131.102 15.5761 131.531Q16.6244 131.956 17.2108 132.75Q17.7973 133.544 17.7973 134.602Q17.7973 135.622 17.2478 136.371Q16.7029 137.119 15.6777 137.516ZM9.8545 134.639Q9.8545 135.738 10.7227 136.38Q11.5954 137.022 13.1286 137.022Q14.6571 137.022 15.5345 136.38Q16.4166 135.738 16.4166 134.657Q16.4166 133.544 15.5161 132.903Q14.6202 132.256 13.1286 132.256Q11.6139 132.256 10.7319 132.903Q9.8545 133.544 9.8545 134.639ZM13.1286 143.418Q14.8834 143.418 15.8763 142.697Q16.8737 141.977 16.8737 140.748Q16.8737 139.52 15.8763 138.813Q14.8834 138.102 13.1286 138.102Q11.3876 138.102 10.3948 138.813Q9.40194 139.52 9.40194 140.748Q9.40194 142 10.3856 142.711Q11.3692 143.418 13.1286 143.418ZM25.4411 144.572Q23.908 144.572 22.7073 143.759Q21.5066 142.942 20.8324 141.423Q20.1628 139.899 20.1628 137.834Q20.1628 135.775 20.8324 134.251Q21.5066 132.727 22.7073 131.914Q23.908 131.102 25.4411 131.102Q26.9743 131.102 28.1749 131.914Q29.3756 132.727 30.0544 134.251Q30.7379 135.775 30.7379 137.834Q30.7379 139.899 30.0544 141.423Q29.3756 142.942 28.1749 143.759Q26.9743 144.572 25.4411 144.572ZM25.4411 143.321Q26.5956 143.321 27.473 142.679Q28.355 142.037 28.8445 140.808Q29.3386 139.575 29.3386 137.834Q29.3386 136.098 28.8445 134.87Q28.355 133.637 27.473 132.995Q26.5956 132.353 25.4411 132.353Q24.2866 132.353 23.4046 132.995Q22.5272 133.637 22.0331 134.87Q21.5436 136.098 21.5436 137.834Q21.5436 139.575 22.0331 140.808Q22.5272 142.037 23.4046 142.679Q24.2866 143.321 25.4411 143.321Z" fill="#000000" fill-opacity="1.000000" fill-rule="evenodd"/>
	<path id="100" d="M4.48404 21.217L4.48404 34.4565L3.12176 34.4565L3.12176 22.4269L4.83394e-05 22.4269L4.83394e-05 21.217L4.48404 21.217ZM12.9194 34.572Q11.3862 34.572 10.1856 33.7592Q8.98492 32.9419 8.31071 31.4226Q7.64111 29.8987 7.64111 27.8345Q7.64111 25.7749 8.31071 24.2509Q8.98492 22.727 10.1856 21.9143Q11.3862 21.1015 12.9194 21.1015Q14.4525 21.1015 15.6532 21.9143Q16.8539 22.727 17.5327 24.2509Q18.2161 25.7749 18.2161 27.8345Q18.2161 29.8987 17.5327 31.4226Q16.8539 32.9419 15.6532 33.7592Q14.4525 34.572 12.9194 34.572ZM12.9194 33.3205Q14.0739 33.3205 14.9513 32.6786Q15.8333 32.0368 16.3228 30.8084Q16.8169 29.5754 16.8169 27.8345Q16.8169 26.0981 16.3228 24.8698Q15.8333 23.6368 14.9513 22.9949Q14.0739 22.353 12.9194 22.353Q11.7649 22.353 10.8829 22.9949Q10.0055 23.6368 9.51136 24.8698Q9.02187 26.0981 9.02187 27.8345Q9.02187 29.5754 9.51136 30.8084Q10.0055 32.0368 10.8829 32.6786Q11.7649 33.3205 12.9194 33.3205ZM25.4411 34.572Q23.908 34.572 22.7073 33.7592Q21.5066 32.9419 20.8324 31.4226Q20.1628 29.8987 20.1628 27.8345Q20.1628 25.7749 20.8324 24.2509Q21.5066 22.727 22.7073 21.9143Q23.908 21.1015 25.4411 21.1015Q26.9743 21.1015 28.1749 21.9143Q29.3756 22.727 30.0544 24.2509Q30.7379 25.7749 30.7379 27.8345Q30.7379 29.8987 30.0544 31.4226Q29.3756 32.9419 28.1749 33.7592Q26.9743 34.572 25.4411 34.572ZM25.4411 33.3205Q26.5956 33.3205 27.473 32.6786Q28.355 32.0368 28.8445 30.8084Q29.3386 29.5754 29.3386 27.8345Q29.3386 26.0981 28.8445 24.8698Q28.355 23.6368 27.473 22.9949Q26.5956 22.353 25.4411 22.353Q24.2866 22.353 23.4046 22.9949Q22.5272 23.6368 22.0331 24.8698Q21.5436 26.0981 21.5436 27.8345Q21.5436 29.5754 22.0331 30.8084Q22.5272 32.0368 23.4046 32.6786Q24.2866 33.3205 25.4411 33.3205Z" fill="#000000" fill-opacity="1.000000" fill-rule="evenodd"/>
	<path id="image 9 (Traced)" d="M384.269 616.19C382.968 616.668 381.972 618.288 382.182 619.583C382.41 620.988 382.776 621.406 391.097 629.788C402.042 640.812 402.042 638.154 391.097 649.178C385.002 655.317 382.883 657.548 382.62 658.104C381.1 661.321 383.909 664.018 387.117 662.42C388.292 661.835 407.761 642.303 408.317 641.151C409.562 638.573 409.721 638.79 397.857 626.909C386.304 615.34 386.392 615.41 384.269 616.19ZM404.23 616.685C402.797 617.544 402.311 619.363 403.08 620.989C403.362 621.584 405.289 623.619 411.492 629.867C422.344 640.797 422.355 638.157 411.413 649.178C405.317 655.317 403.198 657.548 402.936 658.104C401.416 661.321 404.226 664.019 407.433 662.42C408.646 661.815 427.944 642.465 428.552 641.245C429.879 638.577 429.989 638.729 418.337 627.062C406.68 615.389 406.549 615.292 404.23 616.685Z" fill="url(#paint_linear_58_477_0)" fill-opacity="1.000000" fill-rule="evenodd"/>
	<path id="image 9 (Traced)" d="M730.269 616.19C728.968 616.668 727.972 618.288 728.182 619.583C728.41 620.988 728.776 621.406 737.097 629.788C748.042 640.812 748.042 638.154 737.097 649.178C731.002 655.317 728.883 657.548 728.62 658.104C727.1 661.321 729.909 664.018 733.117 662.42C734.292 661.835 753.761 642.303 754.317 641.151C755.562 638.573 755.721 638.79 743.857 626.909C732.304 615.34 732.392 615.41 730.269 616.19ZM750.23 616.685C748.797 617.544 748.311 619.363 749.08 620.989C749.362 621.584 751.289 623.619 757.492 629.867C768.344 640.797 768.355 638.157 757.413 649.178C751.317 655.317 749.198 657.548 748.936 658.104C747.416 661.321 750.226 664.019 753.433 662.42C754.646 661.815 773.944 642.465 774.552 641.245C775.879 638.577 775.989 638.729 764.337 627.062C752.68 615.389 752.549 615.292 750.23 616.685Z" fill="url(#paint_linear_58_478_0)" fill-opacity="1.000000" fill-rule="evenodd"/>
</svg>
