<svg width="1164.488770" height="678.437500" viewBox="0 0 1164.49 678.438" fill="none" xmlns="http://www.w3.org/2000/svg" xmlns:xlink="http://www.w3.org/1999/xlink">
	<desc>
			Created with Pixso.
	</desc>
	<defs>
		<linearGradient id="paint_linear_58_283_0" x1="169.886902" y1="-140.911102" x2="160.301880" y2="565.772461" gradientUnits="userSpaceOnUse">
			<stop stop-color="#008083"/>
			<stop offset="1.000000" stop-color="#3FBEC1"/>
		</linearGradient>
		<linearGradient id="paint_linear_58_284_0" x1="287.301758" y1="87.000000" x2="287.301758" y2="894.653870" gradientUnits="userSpaceOnUse">
			<stop stop-color="#BBBBBB"/>
			<stop offset="1.000000" stop-color="#BBBBBB" stop-opacity="0.000000"/>
		</linearGradient>
		<linearGradient id="paint_linear_58_288_0" x1="527.885925" y1="258.282043" x2="518.301697" y2="580.582642" gradientUnits="userSpaceOnUse">
			<stop stop-color="#008083"/>
			<stop offset="1.000000" stop-color="#3FBEC1"/>
		</linearGradient>
		<linearGradient id="paint_linear_58_289_0" x1="645.301758" y1="393.000000" x2="645.301758" y2="712.230774" gradientUnits="userSpaceOnUse">
			<stop stop-color="#BBBBBB"/>
			<stop offset="1.000000" stop-color="#BBBBBB" stop-opacity="0.000000"/>
		</linearGradient>
		<linearGradient id="paint_linear_58_294_0" x1="894.886475" y1="497.346161" x2="885.301758" y2="588.488525" gradientUnits="userSpaceOnUse">
			<stop stop-color="#008083"/>
			<stop offset="1.000000" stop-color="#3FBEC1"/>
		</linearGradient>
		<linearGradient id="paint_linear_58_295_0" x1="1012.301758" y1="534.000000" x2="1012.301758" y2="626.576904" gradientUnits="userSpaceOnUse">
			<stop stop-color="#BBBBBB"/>
			<stop offset="1.000000" stop-color="#BBBBBB" stop-opacity="0.000000"/>
		</linearGradient>
		<linearGradient id="paint_linear_58_313_0" x1="400.784790" y1="613.963196" x2="396.999237" y2="676.045715" gradientUnits="userSpaceOnUse">
			<stop stop-color="#008083"/>
			<stop offset="1.000000" stop-color="#3FBEC1"/>
		</linearGradient>
		<linearGradient id="paint_linear_58_314_0" x1="746.784790" y1="613.963196" x2="742.999207" y2="676.045715" gradientUnits="userSpaceOnUse">
			<stop stop-color="#008083"/>
			<stop offset="1.000000" stop-color="#3FBEC1"/>
		</linearGradient>
	</defs>
	<path id="Line 2" d="M46.4839 40L46.4839 594L44.1196 594L44.1196 40L46.4839 40ZM45.3018 41.6719L39.4502 47.5234C38.9822 47.9915 38.2466 47.9915 37.7783 47.5234C37.3103 47.0552 37.3103 46.3196 37.7783 45.8516L44.4658 39.1641C44.9338 38.696 45.6697 38.696 46.1377 39.1641L52.8252 45.8516C53.2932 46.3196 53.2932 47.0552 52.8252 47.5234C52.3569 47.9915 51.6213 47.9915 51.1533 47.5234L45.3018 41.6719Z" fill="#000000" fill-opacity="1.000000" fill-rule="evenodd"/>
	<path id="Line 3" d="M1163.3 595.057L44.9536 595.057L44.9536 592.692L1163.3 592.692L1163.3 595.057ZM1161.63 593.875L1155.78 588.023C1155.31 587.555 1155.31 586.819 1155.78 586.351C1156.25 585.883 1156.98 585.883 1157.45 586.351L1164.14 593.039C1164.61 593.507 1164.61 594.242 1164.14 594.71L1157.45 601.398C1156.98 601.866 1156.25 601.866 1155.78 601.398C1155.31 600.93 1155.31 600.194 1155.78 599.726L1161.63 593.875Z" fill="#000000" fill-opacity="1.000000" fill-rule="evenodd"/>
	<path id="19" d="M142.302 15.0385L142.302 44L135.595 44L135.595 20.4126L129.806 20.4126L129.806 15.0385L142.302 15.0385ZM157.522 14.5435Q163.603 14.5435 167.038 18.2508Q170.472 21.948 170.472 28.898Q170.472 33.8175 168.634 37.343Q166.795 40.8584 163.441 42.6767Q160.088 44.495 155.704 44.495Q153.39 44.495 151.279 43.9798Q149.168 43.4646 147.683 42.5151L150.158 37.5854Q152.269 39.03 155.582 39.03Q159.259 39.03 161.411 36.8581Q163.563 34.6862 163.734 30.5951Q161.128 33.2013 156.532 33.2013Q153.764 33.2013 151.481 32.0901Q149.208 30.9688 147.885 28.9182Q146.561 26.8675 146.561 24.1805Q146.561 21.2813 148.006 19.0892Q149.461 16.8972 151.956 15.7254Q154.461 14.5435 157.522 14.5435ZM158.027 28.1909Q160.219 28.1909 161.603 26.9787Q162.987 25.7563 162.987 23.8471Q162.987 21.948 161.643 20.7459Q160.3 19.5438 157.936 19.5438Q155.784 19.5438 154.441 20.7055Q153.097 21.8672 153.097 23.8471Q153.097 25.8372 154.441 27.0191Q155.784 28.1909 158.027 28.1909Z" fill="#008083" fill-opacity="1.000000" fill-rule="evenodd"/>
	<path id="18,6" d="M259.29 44.0385L259.29 73L252.582 73L252.582 49.4126L246.794 49.4126L246.794 44.0385L259.29 44.0385ZM284.156 57.7768Q286.308 58.8475 287.439 60.585Q288.581 62.3225 288.581 64.6055Q288.581 67.2925 287.045 69.3028Q285.52 71.3029 282.742 72.404Q279.974 73.495 276.338 73.495Q272.691 73.495 269.933 72.404Q267.186 71.3029 265.67 69.3028Q264.165 67.2925 264.165 64.6055Q264.165 62.3225 265.307 60.585Q266.448 58.8475 268.559 57.7768Q266.943 56.7767 266.074 55.2715Q265.206 53.7563 265.206 51.8168Q265.206 49.2913 266.61 47.4326Q268.014 45.5638 270.539 44.5536Q273.065 43.5435 276.338 43.5435Q279.641 43.5435 282.187 44.5536Q284.732 45.5638 286.136 47.4326Q287.551 49.2913 287.551 51.8168Q287.551 53.7563 286.682 55.2715Q285.813 56.7767 284.156 57.7768ZM276.338 48.463Q274.307 48.463 273.085 49.4429Q271.863 50.4126 271.863 52.1097Q271.863 53.7563 273.065 54.7159Q274.267 55.6655 276.338 55.6655Q278.398 55.6655 279.641 54.7159Q280.883 53.7563 280.883 52.1097Q280.883 50.4126 279.641 49.4429Q278.398 48.463 276.338 48.463ZM276.338 68.5755Q278.853 68.5755 280.318 67.434Q281.793 66.2925 281.793 64.3934Q281.793 62.4942 280.318 61.373Q278.853 60.2517 276.338 60.2517Q273.853 60.2517 272.398 61.373Q270.953 62.4942 270.953 64.3934Q270.953 66.343 272.398 67.4643Q273.853 68.5755 276.338 68.5755ZM295.908 65.3025Q297.645 65.3025 298.757 66.4036Q299.878 67.4946 299.878 69.2725Q299.878 70.1008 299.666 70.9292Q299.464 71.7575 298.757 73.4142L296.403 79.3742L292.302 79.3742L294.13 72.798Q293.09 72.3838 292.483 71.4544Q291.887 70.515 291.887 69.2725Q291.887 67.4946 293.029 66.4036Q294.17 65.3025 295.908 65.3025ZM316.302 54.8372Q319.08 54.8372 321.353 55.9585Q323.626 57.0696 324.949 59.1203Q326.273 61.1709 326.273 63.858Q326.273 66.7572 324.828 68.9492Q323.384 71.1413 320.878 72.3232Q318.373 73.495 315.312 73.495Q309.231 73.495 305.796 69.7776Q302.362 66.05 302.362 59.1405Q302.362 54.2109 304.221 50.6955Q306.079 47.1801 309.413 45.3618Q312.746 43.5435 317.131 43.5435Q319.444 43.5435 321.575 44.0587Q323.707 44.5738 325.202 45.5234L322.717 50.453Q320.565 48.9984 317.292 48.9984Q313.615 48.9984 311.464 51.15Q309.312 53.3017 309.14 57.403Q311.706 54.8372 316.302 54.8372ZM314.939 68.4946Q317.09 68.4946 318.434 67.333Q319.777 66.1713 319.777 64.1913Q319.777 62.2013 318.434 61.0194Q317.09 59.8375 314.858 59.8375Q312.666 59.8375 311.251 61.0598Q309.847 62.2821 309.847 64.1913Q309.847 66.0904 311.211 67.2925Q312.575 68.4946 314.939 68.4946Z" fill="#737373" fill-opacity="1.000000" fill-rule="evenodd"/>
	<path id="Rectangle 17" d="M121.581 58L198.022 58C209.775 58 219.302 67.5271 219.302 79.2793L219.302 593L100.302 593L100.302 79.2793C100.302 67.5271 109.829 58 121.581 58Z" fill="url(#paint_linear_58_283_0)" fill-opacity="1.000000" fill-rule="evenodd"/>
	<path id="Rectangle 20" d="M249.581 87L325.022 87C336.775 87 346.302 96.5271 346.302 108.279L346.302 593L228.302 593L228.302 108.279C228.302 96.5271 237.829 87 249.581 87Z" fill="url(#paint_linear_58_284_0)" fill-opacity="1.000000" fill-rule="evenodd"/>
	<path id="9,2" d="M499.348 302.543Q505.429 302.543 508.863 306.251Q512.298 309.948 512.298 316.898Q512.298 321.818 510.46 325.343Q508.621 328.858 505.267 330.677Q501.914 332.495 497.529 332.495Q495.216 332.495 493.105 331.98Q490.994 331.465 489.509 330.515L491.984 325.585Q494.095 327.03 497.408 327.03Q501.085 327.03 503.237 324.858Q505.388 322.686 505.56 318.595Q502.954 321.201 498.358 321.201Q495.59 321.201 493.307 320.09Q491.034 318.969 489.711 316.918Q488.387 314.868 488.387 312.18Q488.387 309.281 489.832 307.089Q491.287 304.897 493.782 303.725Q496.287 302.543 499.348 302.543ZM499.853 316.191Q502.045 316.191 503.429 314.979Q504.813 313.756 504.813 311.847Q504.813 309.948 503.469 308.746Q502.126 307.544 499.762 307.544Q497.61 307.544 496.267 308.706Q494.923 309.867 494.923 311.847Q494.923 313.837 496.267 315.019Q497.61 316.191 499.853 316.191ZM518.843 324.303Q520.58 324.303 521.692 325.404Q522.813 326.495 522.813 328.272Q522.813 329.101 522.601 329.929Q522.399 330.758 521.692 332.414L519.338 338.374L515.237 338.374L517.065 331.798Q516.025 331.384 515.419 330.454Q514.823 329.515 514.823 328.272Q514.823 326.495 515.964 325.404Q517.105 324.303 518.843 324.303ZM547.886 326.535L547.886 332L525.996 332L525.996 327.656L537.169 317.1Q538.946 315.413 539.563 314.191Q540.189 312.968 540.189 311.766Q540.189 310.029 539.007 309.099Q537.835 308.17 535.552 308.17Q533.653 308.17 532.118 308.897Q530.592 309.615 529.552 311.059L524.673 307.918Q526.37 305.392 529.35 303.968Q532.33 302.543 536.179 302.543Q539.401 302.543 541.825 303.604Q544.25 304.655 545.593 306.574Q546.937 308.493 546.937 311.11Q546.937 313.463 545.937 315.534Q544.947 317.605 542.098 320.252L535.431 326.535L547.886 326.535Z" fill="#008083" fill-opacity="1.000000" fill-rule="evenodd"/>
	<path id="7,8" d="M638.992 350.038L638.992 354.382L628.233 379L620.95 379L631.345 355.493L621.738 355.493L621.738 360.211L615.778 360.211L615.778 350.038L638.992 350.038ZM643.798 371.303Q645.536 371.303 646.647 372.404Q647.768 373.495 647.768 375.272Q647.768 376.101 647.556 376.929Q647.354 377.758 646.647 379.414L644.293 385.374L640.192 385.374L642.02 378.798Q640.98 378.384 640.374 377.454Q639.778 376.515 639.778 375.272Q639.778 373.495 640.919 372.404Q642.061 371.303 643.798 371.303ZM671.023 363.777Q673.175 364.848 674.307 366.585Q675.448 368.323 675.448 370.605Q675.448 373.293 673.913 375.303Q672.387 377.303 669.609 378.404Q666.841 379.495 663.205 379.495Q659.558 379.495 656.8 378.404Q654.053 377.303 652.537 375.303Q651.032 373.293 651.032 370.605Q651.032 368.323 652.174 366.585Q653.315 364.848 655.427 363.777Q653.81 362.777 652.941 361.272Q652.073 359.756 652.073 357.817Q652.073 355.291 653.477 353.433Q654.881 351.564 657.406 350.554Q659.932 349.543 663.205 349.543Q666.508 349.543 669.054 350.554Q671.599 351.564 673.003 353.433Q674.418 355.291 674.418 357.817Q674.418 359.756 673.549 361.272Q672.68 362.777 671.023 363.777ZM663.205 354.463Q661.174 354.463 659.952 355.443Q658.73 356.413 658.73 358.11Q658.73 359.756 659.932 360.716Q661.134 361.665 663.205 361.665Q665.266 361.665 666.508 360.716Q667.751 359.756 667.751 358.11Q667.751 356.413 666.508 355.443Q665.266 354.463 663.205 354.463ZM663.205 374.575Q665.72 374.575 667.185 373.434Q668.66 372.292 668.66 370.393Q668.66 368.494 667.185 367.373Q665.72 366.252 663.205 366.252Q660.72 366.252 659.265 367.373Q657.821 368.494 657.821 370.393Q657.821 372.343 659.265 373.464Q660.72 374.575 663.205 374.575Z" fill="#737373" fill-opacity="1.000000" fill-rule="evenodd"/>
	<path id="Rectangle 17" d="M479.581 349L556.022 349C567.775 349 577.302 358.527 577.302 370.279L577.302 593L458.302 593L458.302 370.279C458.302 358.527 467.829 349 479.581 349Z" fill="url(#paint_linear_58_288_0)" fill-opacity="1.000000" fill-rule="evenodd"/>
	<path id="Rectangle 20" d="M607.581 393L683.022 393C694.775 393 704.302 402.527 704.302 414.279L704.302 593L586.302 593L586.302 414.279C586.302 402.527 595.829 393 607.581 393Z" fill="url(#paint_linear_58_289_0)" fill-opacity="1.000000" fill-rule="evenodd"/>
	<path id="2,3" d="M878.768 503.535L878.768 509L856.878 509L856.878 504.656L868.05 494.1Q869.828 492.413 870.444 491.191Q871.071 489.968 871.071 488.766Q871.071 487.029 869.889 486.099Q868.717 485.17 866.434 485.17Q864.535 485.17 863 485.897Q861.474 486.615 860.434 488.059L855.555 484.918Q857.252 482.392 860.232 480.968Q863.212 479.543 867.06 479.543Q870.283 479.543 872.707 480.604Q875.132 481.655 876.475 483.574Q877.819 485.493 877.819 488.11Q877.819 490.463 876.819 492.534Q875.829 494.605 872.98 497.252L866.313 503.535L878.768 503.535ZM885.805 501.303Q887.543 501.303 888.654 502.404Q889.775 503.495 889.775 505.272Q889.775 506.101 889.563 506.929Q889.361 507.758 888.654 509.414L886.3 515.374L882.199 515.374L884.027 508.798Q882.987 508.384 882.381 507.454Q881.785 506.515 881.785 505.272Q881.785 503.495 882.926 502.404Q884.068 501.303 885.805 501.303ZM906.737 491.827Q910.545 492.453 912.566 494.666Q914.596 496.878 914.596 500.141Q914.596 502.666 913.273 504.798Q911.949 506.929 909.242 508.212Q906.535 509.495 902.605 509.495Q899.534 509.495 896.575 508.687Q893.625 507.879 891.554 506.394L894.16 501.262Q895.817 502.505 897.989 503.192Q900.161 503.868 902.434 503.868Q904.959 503.868 906.404 502.899Q907.858 501.929 907.858 500.141Q907.858 496.585 902.434 496.585L899.373 496.585L899.373 492.16L905.333 485.413L892.999 485.413L892.999 480.038L913.273 480.038L913.273 484.382L906.737 491.827Z" fill="#008083" fill-opacity="1.000000" fill-rule="evenodd"/>
	<path id="1,9" d="M999.382 495.038L999.382 524L992.674 524L992.674 500.413L986.886 500.413L986.886 495.038L999.382 495.038ZM1008.28 516.302Q1010.02 516.302 1011.13 517.404Q1012.25 518.495 1012.25 520.272Q1012.25 521.101 1012.04 521.929Q1011.83 522.758 1011.13 524.414L1008.77 530.374L1004.67 530.374L1006.5 523.798Q1005.46 523.384 1004.85 522.454Q1004.26 521.515 1004.26 520.272Q1004.26 518.495 1005.4 517.404Q1006.54 516.302 1008.28 516.302ZM1025.44 494.543Q1031.52 494.543 1034.96 498.251Q1038.39 501.948 1038.39 508.898Q1038.39 513.818 1036.55 517.343Q1034.72 520.858 1031.36 522.677Q1028.01 524.495 1023.62 524.495Q1021.31 524.495 1019.2 523.98Q1017.09 523.465 1015.6 522.515L1018.08 517.585Q1020.19 519.03 1023.5 519.03Q1027.18 519.03 1029.33 516.858Q1031.48 514.686 1031.65 510.595Q1029.05 513.201 1024.45 513.201Q1021.68 513.201 1019.4 512.09Q1017.13 510.969 1015.81 508.918Q1014.48 506.868 1014.48 504.18Q1014.48 501.281 1015.93 499.089Q1017.38 496.897 1019.88 495.725Q1022.38 494.543 1025.44 494.543ZM1025.95 508.191Q1028.14 508.191 1029.52 506.979Q1030.91 505.756 1030.91 503.847Q1030.91 501.948 1029.56 500.746Q1028.22 499.544 1025.86 499.544Q1023.7 499.544 1022.36 500.706Q1021.02 501.867 1021.02 503.847Q1021.02 505.837 1022.36 507.019Q1023.7 508.191 1025.95 508.191Z" fill="#737373" fill-opacity="1.000000" fill-rule="evenodd"/>
	<path id="Rectangle 17" d="M846.581 523L923.022 523C934.775 523 944.302 532.527 944.302 544.279L944.302 592L825.302 592L825.302 544.279C825.302 532.527 834.829 523 846.581 523Z" fill="url(#paint_linear_58_294_0)" fill-opacity="1.000000" fill-rule="evenodd"/>
	<path id="Rectangle 20" d="M974.581 534L1050.02 534C1061.77 534 1071.3 543.527 1071.3 555.279L1071.3 592L953.302 592L953.302 555.279C953.302 543.527 962.829 534 974.581 534Z" fill="url(#paint_linear_58_295_0)" fill-opacity="1.000000" fill-rule="evenodd"/>
	<path id="Line 9" d="M397.245 593.875L397.245 582.053" stroke="#000000" stroke-opacity="1.000000" stroke-width="1.182186" stroke-linecap="round"/>
	<path id="Line 10" d="M750.719 593.875L750.719 582.053" stroke="#000000" stroke-opacity="1.000000" stroke-width="1.182186" stroke-linecap="round"/>
	<path id="Line 8" d="M44.9536 538L33.1318 538" stroke="#000000" stroke-opacity="1.000000" stroke-width="1.182186" stroke-linecap="round"/>
	<path id="Line 11" d="M44.9536 483L33.1318 483" stroke="#000000" stroke-opacity="1.000000" stroke-width="1.182186" stroke-linecap="round"/>
	<path id="Line 12" d="M44.9536 428L33.1318 428" stroke="#000000" stroke-opacity="1.000000" stroke-width="1.182186" stroke-linecap="round"/>
	<path id="Line 13" d="M44.9536 373L33.1318 373" stroke="#000000" stroke-opacity="1.000000" stroke-width="1.182186" stroke-linecap="round"/>
	<path id="Line 14" d="M44.9536 318L33.1318 318" stroke="#000000" stroke-opacity="1.000000" stroke-width="1.182186" stroke-linecap="round"/>
	<path id="Line 15" d="M44.9536 263L33.1318 263" stroke="#000000" stroke-opacity="1.000000" stroke-width="1.182186" stroke-linecap="round"/>
	<path id="Line 16" d="M44.9536 208L33.1318 208" stroke="#000000" stroke-opacity="1.000000" stroke-width="1.182186" stroke-linecap="round"/>
	<path id="Line 17" d="M44.9536 153L33.1318 153" stroke="#000000" stroke-opacity="1.000000" stroke-width="1.182186" stroke-linecap="round"/>
	<path id="Line 18" d="M44.9536 98L33.1318 98" stroke="#000000" stroke-opacity="1.000000" stroke-width="1.182186" stroke-linecap="round"/>
	<path id="1-й день" d="M175.478 638.829L175.478 655L171.733 655L171.733 641.829L168.501 641.829L168.501 638.829L175.478 638.829ZM178.595 647.053L185.132 647.053L185.132 649.94L178.595 649.94L178.595 647.053ZM187.702 643.801L190.28 643.801L190.28 651.098L195.624 643.801L198.054 643.801L198.054 655L195.495 655L195.495 647.719L190.151 655L187.702 655L187.702 643.801ZM192.87 643.078Q189.796 643.078 189.765 640.633L191.542 640.633Q191.573 641.801 192.87 641.801Q193.511 641.801 193.847 641.504Q194.183 641.207 194.198 640.633L195.972 640.633Q195.956 641.832 195.187 642.457Q194.421 643.078 192.87 643.078ZM224.678 651.948L224.678 658.35L221.209 658.35L221.209 655L209.799 655L209.799 658.35L206.33 658.35L206.358 651.948L207.001 651.948Q208.456 651.903 209.054 649.828Q209.658 647.746 209.799 643.888L209.985 638.829L222.411 638.829L222.411 651.948L224.678 651.948ZM213.104 644.232Q212.986 647.12 212.613 649.072Q212.247 651.023 211.485 651.948L218.716 651.948L218.716 641.875L213.172 641.875L213.104 644.232ZM239.715 651.999L239.715 655L227.193 655L227.193 638.829L239.416 638.829L239.416 641.829L230.91 641.829L230.91 645.344L238.423 645.344L238.423 648.254L230.91 648.254L230.91 651.999L239.715 651.999ZM257.576 638.829L257.576 655L253.831 655L253.831 648.367L246.487 648.367L246.487 655L242.741 655L242.741 638.829L246.487 638.829L246.487 645.202L253.831 645.202L253.831 638.829L257.576 638.829ZM269.452 644.142Q272.407 644.142 273.987 645.462Q275.571 646.776 275.571 649.365Q275.571 652.112 273.829 653.556Q272.086 655 268.921 655L261.617 655L261.617 638.829L265.34 638.829L265.34 644.142L269.452 644.142ZM268.713 652.225Q270.168 652.225 270.986 651.514Q271.809 650.798 271.809 649.433Q271.809 646.912 268.713 646.912L265.34 646.912L265.34 652.225L268.713 652.225Z" fill="#000000" fill-opacity="1.000000" fill-rule="evenodd"/>
	<path id="3-й день" d="M521.982 645.411Q524.108 645.761 525.236 646.996Q526.37 648.231 526.37 650.053Q526.37 651.463 525.631 652.654Q524.892 653.844 523.381 654.56Q521.869 655.276 519.675 655.276Q517.96 655.276 516.307 654.825Q514.66 654.374 513.504 653.545L514.959 650.679Q515.884 651.373 517.097 651.757Q518.31 652.135 519.579 652.135Q520.989 652.135 521.796 651.593Q522.608 651.052 522.608 650.053Q522.608 648.068 519.579 648.068L517.87 648.068L517.87 645.597L521.198 641.829L514.311 641.829L514.311 638.829L525.631 638.829L525.631 641.254L521.982 645.411ZM528.405 647.053L534.943 647.053L534.943 649.94L528.405 649.94L528.405 647.053ZM537.513 643.801L540.091 643.801L540.091 651.098L545.434 643.801L547.864 643.801L547.864 655L545.305 655L545.305 647.719L539.962 655L537.513 655L537.513 643.801ZM542.68 643.078Q539.606 643.078 539.575 640.633L541.352 640.633Q541.384 641.801 542.68 641.801Q543.321 641.801 543.657 641.504Q543.993 641.207 544.009 640.633L545.782 640.633Q545.766 641.832 544.997 642.457Q544.231 643.078 542.68 643.078ZM574.489 651.948L574.489 658.35L571.02 658.35L571.02 655L559.609 655L559.609 658.35L556.14 658.35L556.168 651.948L556.811 651.948Q558.267 651.903 558.865 649.828Q559.468 647.746 559.609 643.888L559.795 638.829L572.221 638.829L572.221 651.948L574.489 651.948ZM562.914 644.232Q562.796 647.12 562.424 649.072Q562.057 651.023 561.296 651.948L568.527 651.948L568.527 641.875L562.982 641.875L562.914 644.232ZM589.525 651.999L589.525 655L577.003 655L577.003 638.829L589.226 638.829L589.226 641.829L580.72 641.829L580.72 645.344L588.233 645.344L588.233 648.254L580.72 648.254L580.72 651.999L589.525 651.999ZM607.386 638.829L607.386 655L603.641 655L603.641 648.367L596.297 648.367L596.297 655L592.552 655L592.552 638.829L596.297 638.829L596.297 645.202L603.641 645.202L603.641 638.829L607.386 638.829ZM619.262 644.142Q622.218 644.142 623.797 645.462Q625.382 646.776 625.382 649.365Q625.382 652.112 623.639 653.556Q621.896 655 618.732 655L611.427 655L611.427 638.829L615.15 638.829L615.15 644.142L619.262 644.142ZM618.523 652.225Q619.978 652.225 620.796 651.514Q621.62 650.798 621.62 649.433Q621.62 646.912 618.523 646.912L615.15 646.912L615.15 652.225L618.523 652.225Z" fill="#000000" fill-opacity="1.000000" fill-rule="evenodd"/>
	<path id="7-й день" d="M910.341 638.829L910.341 641.254L904.333 655L900.267 655L906.071 641.875L900.707 641.875L900.707 644.509L897.379 644.509L897.379 638.829L910.341 638.829ZM911.151 647.053L917.689 647.053L917.689 649.94L911.151 649.94L911.151 647.053ZM920.258 643.801L922.836 643.801L922.836 651.098L928.18 643.801L930.61 643.801L930.61 655L928.051 655L928.051 647.719L922.708 655L920.258 655L920.258 643.801ZM925.426 643.078Q922.352 643.078 922.321 640.633L924.098 640.633Q924.129 641.801 925.426 641.801Q926.067 641.801 926.403 641.504Q926.739 641.207 926.754 640.633L928.528 640.633Q928.512 641.832 927.743 642.457Q926.977 643.078 925.426 643.078ZM957.235 651.948L957.235 658.35L953.766 658.35L953.766 655L942.355 655L942.355 658.35L938.886 658.35L938.914 651.948L939.557 651.948Q941.013 651.903 941.61 649.828Q942.214 647.746 942.355 643.888L942.541 638.829L954.967 638.829L954.967 651.948L957.235 651.948ZM945.66 644.232Q945.542 647.12 945.17 649.072Q944.803 651.023 944.042 651.948L951.273 651.948L951.273 641.875L945.728 641.875L945.66 644.232ZM972.271 651.999L972.271 655L959.749 655L959.749 638.829L971.972 638.829L971.972 641.829L963.466 641.829L963.466 645.344L970.979 645.344L970.979 648.254L963.466 648.254L963.466 651.999L972.271 651.999ZM990.132 638.829L990.132 655L986.387 655L986.387 648.367L979.043 648.367L979.043 655L975.298 655L975.298 638.829L979.043 638.829L979.043 645.202L986.387 645.202L986.387 638.829L990.132 638.829ZM1002.01 644.142Q1004.96 644.142 1006.54 645.462Q1008.13 646.776 1008.13 649.365Q1008.13 652.112 1006.38 653.556Q1004.64 655 1001.48 655L994.173 655L994.173 638.829L997.896 638.829L997.896 644.142L1002.01 644.142ZM1001.27 652.225Q1002.72 652.225 1003.54 651.514Q1004.37 650.798 1004.37 649.433Q1004.37 646.912 1001.27 646.912L997.896 646.912L997.896 652.225L1001.27 652.225Z" fill="#000000" fill-opacity="1.000000" fill-rule="evenodd"/>
	<path id="2" d="M22.1299 541.79L22.1299 543L12.8433 543L12.8433 542.035L18.3479 536.646Q19.3869 535.625 19.7563 534.877Q20.1258 534.129 20.1258 533.372Q20.1258 532.199 19.3222 531.548Q18.5187 530.896 17.0225 530.896Q14.6951 530.896 13.4113 532.37L12.4462 531.538Q13.222 530.629 14.4226 530.139Q15.6233 529.645 17.138 529.645Q19.1606 529.645 20.3428 530.601Q21.525 531.557 21.525 533.219Q21.525 534.244 21.0678 535.191Q20.6153 536.133 19.3499 537.362L14.8475 541.79L22.1299 541.79Z" fill="#000000" fill-opacity="1.000000" fill-rule="evenodd"/>
	<path id="4" d="M22.5828 484.518L19.9368 484.518L19.9368 488L18.5745 488L18.5745 484.518L11.1027 484.518L11.1027 483.534L18.1173 474.76L19.632 474.76L12.8621 483.308L18.6114 483.308L18.6114 480.247L19.9368 480.247L19.9368 483.308L22.5828 483.308L22.5828 484.518Z" fill="#000000" fill-opacity="1.000000" fill-rule="evenodd"/>
	<path id="6" d="M17.7986 425.076Q19.1009 425.076 20.1122 425.57Q21.1281 426.059 21.6915 426.96Q22.2595 427.856 22.2595 429.047Q22.2595 430.257 21.673 431.185Q21.0912 432.109 20.0568 432.612Q19.027 433.115 17.7432 433.115Q15.111 433.115 13.7118 431.384Q12.3125 429.652 12.3125 426.493Q12.3125 424.281 13.0699 422.748Q13.8272 421.215 15.1849 420.43Q16.5472 419.645 18.3666 419.645Q20.3339 419.645 21.5068 420.365L20.9573 421.46Q20.0106 420.836 18.3851 420.836Q16.1916 420.836 14.9401 422.226Q13.6933 423.616 13.6933 426.267Q13.6933 426.738 13.7487 427.343Q14.2428 426.267 15.3188 425.671Q16.3994 425.076 17.7986 425.076ZM17.6832 431.961Q19.124 431.961 20.0198 431.176Q20.9203 430.391 20.9203 429.084Q20.9203 427.782 20.0198 427.006Q19.124 426.23 17.5908 426.23Q16.5887 426.23 15.8222 426.609Q15.0556 426.983 14.6169 427.648Q14.1828 428.308 14.1828 429.121Q14.1828 429.878 14.5892 430.525Q15.0002 431.167 15.7944 431.564Q16.5887 431.961 17.6832 431.961Z" fill="#000000" fill-opacity="1.000000" fill-rule="evenodd"/>
	<path id="8" d="M19.3466 371.059Q20.5981 371.475 21.2677 372.306Q21.9419 373.137 21.9419 374.31Q21.9419 375.465 21.3139 376.328Q20.6904 377.187 19.5267 377.654Q18.363 378.115 16.7975 378.115Q14.4101 378.115 13.0478 377.095Q11.6901 376.07 11.6901 374.31Q11.6901 373.119 12.3412 372.297Q12.9924 371.475 14.2438 371.059Q13.2186 370.662 12.6876 369.914Q12.1611 369.166 12.1611 368.145Q12.1611 366.538 13.4172 365.592Q14.6779 364.645 16.7975 364.645Q18.1968 364.645 19.245 365.074Q20.2933 365.499 20.8798 366.294Q21.4662 367.088 21.4662 368.145Q21.4662 369.166 20.9167 369.914Q20.3718 370.662 19.3466 371.059ZM13.5234 368.182Q13.5234 369.281 14.3916 369.923Q15.2644 370.565 16.7975 370.565Q18.3261 370.565 19.2035 369.923Q20.0855 369.281 20.0855 368.201Q20.0855 367.088 19.185 366.446Q18.2891 365.799 16.7975 365.799Q15.2829 365.799 14.4008 366.446Q13.5234 367.088 13.5234 368.182ZM16.7975 376.961Q18.5523 376.961 19.5452 376.241Q20.5427 375.52 20.5427 374.292Q20.5427 373.063 19.5452 372.357Q18.5523 371.646 16.7975 371.646Q15.0566 371.646 14.0637 372.357Q13.0709 373.063 13.0709 374.292Q13.0709 375.543 14.0545 376.254Q15.0381 376.961 16.7975 376.961Z" fill="#000000" fill-opacity="1.000000" fill-rule="evenodd"/>
	<path id="10" d="M8.15298 309.76L8.15298 323L6.79069 323L6.79069 310.97L3.66898 310.97L3.66898 309.76L8.15298 309.76ZM16.5883 323.115Q15.0552 323.115 13.8545 322.303Q12.6539 321.485 11.9796 319.966Q11.31 318.442 11.31 316.378Q11.31 314.318 11.9796 312.794Q12.6539 311.271 13.8545 310.458Q15.0552 309.645 16.5883 309.645Q18.1215 309.645 19.3221 310.458Q20.5228 311.271 21.2016 312.794Q21.8851 314.318 21.8851 316.378Q21.8851 318.442 21.2016 319.966Q20.5228 321.485 19.3221 322.303Q18.1215 323.115 16.5883 323.115ZM16.5883 321.864Q17.7428 321.864 18.6202 321.222Q19.5022 320.58 19.9917 319.352Q20.4858 318.119 20.4858 316.378Q20.4858 314.642 19.9917 313.413Q19.5022 312.18 18.6202 311.538Q17.7428 310.896 16.5883 310.896Q15.4338 310.896 14.5518 311.538Q13.6744 312.18 13.1803 313.413Q12.6908 314.642 12.6908 316.378Q12.6908 318.119 13.1803 319.352Q13.6744 320.58 14.5518 321.222Q15.4338 321.864 16.5883 321.864Z" fill="#000000" fill-opacity="1.000000" fill-rule="evenodd"/>
	<path id="12" d="M9.93098 254.76L9.93098 268L8.5687 268L8.5687 255.97L5.44699 255.97L5.44699 254.76L9.93098 254.76ZM22.1299 266.79L22.1299 268L12.8433 268L12.8433 267.035L18.3479 261.646Q19.3869 260.625 19.7563 259.877Q20.1258 259.129 20.1258 258.372Q20.1258 257.199 19.3222 256.548Q18.5187 255.896 17.0225 255.896Q14.6951 255.896 13.4113 257.37L12.4462 256.538Q13.222 255.629 14.4226 255.139Q15.6233 254.645 17.138 254.645Q19.1606 254.645 20.3428 255.601Q21.525 256.557 21.525 258.219Q21.525 259.244 21.0678 260.191Q20.6153 261.133 19.3499 262.362L14.8475 266.79L22.1299 266.79Z" fill="#000000" fill-opacity="1.000000" fill-rule="evenodd"/>
	<path id="14" d="M8.17189 199.76L8.17189 213L6.80961 213L6.80961 200.97L3.6879 200.97L3.6879 199.76L8.17189 199.76ZM22.5828 209.518L19.9368 209.518L19.9368 213L18.5745 213L18.5745 209.518L11.1027 209.518L11.1027 208.534L18.1173 199.76L19.632 199.76L12.8621 208.308L18.6114 208.308L18.6114 205.247L19.9368 205.247L19.9368 208.308L22.5828 208.308L22.5828 209.518Z" fill="#000000" fill-opacity="1.000000" fill-rule="evenodd"/>
	<path id="16" d="M9.15547 144.76L9.15547 158L7.79319 158L7.79319 145.97L4.67148 145.97L4.67148 144.76L9.15547 144.76ZM17.7986 150.076Q19.1009 150.076 20.1122 150.57Q21.1281 151.059 21.6915 151.96Q22.2595 152.856 22.2595 154.047Q22.2595 155.257 21.6731 156.185Q21.0912 157.109 20.0568 157.612Q19.027 158.115 17.7432 158.115Q15.111 158.115 13.7118 156.384Q12.3125 154.652 12.3125 151.493Q12.3125 149.281 13.0699 147.748Q13.8272 146.215 15.1849 145.43Q16.5472 144.645 18.3666 144.645Q20.3339 144.645 21.5068 145.365L20.9573 146.46Q20.0106 145.836 18.3851 145.836Q16.1916 145.836 14.9401 147.226Q13.6933 148.616 13.6933 151.267Q13.6933 151.738 13.7487 152.343Q14.2428 151.267 15.3188 150.671Q16.3994 150.076 17.7986 150.076ZM17.6832 156.961Q19.124 156.961 20.0198 156.176Q20.9203 155.391 20.9203 154.084Q20.9203 152.782 20.0198 152.006Q19.124 151.23 17.5908 151.23Q16.5887 151.23 15.8222 151.609Q15.0556 151.983 14.6169 152.648Q14.1828 153.308 14.1828 154.121Q14.1828 154.878 14.5892 155.525Q15.0002 156.167 15.7944 156.564Q16.5887 156.961 17.6832 156.961Z" fill="#000000" fill-opacity="1.000000" fill-rule="evenodd"/>
	<path id="18" d="M8.60694 89.7604L8.60694 103L7.24465 103L7.24465 90.9703L4.12294 90.9703L4.12294 89.7604L8.60694 89.7604ZM19.3466 96.0593Q20.5981 96.4749 21.2677 97.3061Q21.9419 98.1373 21.9419 99.3103Q21.9419 100.465 21.3139 101.328Q20.6904 102.187 19.5267 102.654Q18.363 103.115 16.7975 103.115Q14.4101 103.115 13.0478 102.095Q11.6901 101.07 11.6901 99.3103Q11.6901 98.1189 12.3412 97.2969Q12.9924 96.4749 14.2438 96.0593Q13.2186 95.6621 12.6876 94.914Q12.1611 94.1659 12.1611 93.1454Q12.1611 91.5383 13.4172 90.5917Q14.6779 89.645 16.7975 89.645Q18.1968 89.645 19.245 90.0745Q20.2933 90.4993 20.8798 91.2936Q21.4662 92.0879 21.4662 93.1454Q21.4662 94.1659 20.9167 94.914Q20.3718 95.6621 19.3466 96.0593ZM13.5234 93.1823Q13.5234 94.2814 14.3916 94.9233Q15.2644 95.5652 16.7975 95.5652Q18.3261 95.5652 19.2035 94.9233Q20.0855 94.2814 20.0855 93.2008Q20.0855 92.0879 19.185 91.446Q18.2891 90.7995 16.7975 90.7995Q15.2829 90.7995 14.4008 91.446Q13.5234 92.0879 13.5234 93.1823ZM16.7975 101.961Q18.5523 101.961 19.5452 101.241Q20.5427 100.52 20.5427 99.2918Q20.5427 98.0634 19.5452 97.3569Q18.5523 96.6458 16.7975 96.6458Q15.0566 96.6458 14.0637 97.3569Q13.0709 98.0634 13.0709 99.2918Q13.0709 100.543 14.0545 101.254Q15.0381 101.961 16.7975 101.961Z" fill="#000000" fill-opacity="1.000000" fill-rule="evenodd"/>
	<path id="20" d="M9.68387 46.7901L9.68387 48L0.397245 48L0.397245 47.0349L5.9018 41.6457Q6.94083 40.6252 7.31026 39.8771Q7.6797 39.129 7.6797 38.3716Q7.6797 37.1987 6.87618 36.5476Q6.07266 35.8964 4.57646 35.8964Q2.24903 35.8964 0.965249 37.3696L0.000104308 36.5383Q0.775914 35.6286 1.97657 35.1391Q3.17723 34.645 4.69191 34.645Q6.71455 34.645 7.89674 35.6009Q9.07893 36.5568 9.07893 38.2193Q9.07893 39.2444 8.62175 40.1911Q8.1692 41.1332 6.90389 42.3615L2.40142 46.7901L9.68387 46.7901ZM16.5883 48.1154Q15.0552 48.1154 13.8545 47.3027Q12.6539 46.4853 11.9796 44.966Q11.31 43.4421 11.31 41.3779Q11.31 39.3183 11.9796 37.7944Q12.6539 36.2705 13.8545 35.4577Q15.0552 34.645 16.5883 34.645Q18.1215 34.645 19.3221 35.4577Q20.5228 36.2705 21.2016 37.7944Q21.8851 39.3183 21.8851 41.3779Q21.8851 43.4421 21.2016 44.966Q20.5228 46.4853 19.3221 47.3027Q18.1215 48.1154 16.5883 48.1154ZM16.5883 46.864Q17.7428 46.864 18.6202 46.2221Q19.5022 45.5802 19.9917 44.3518Q20.4858 43.1189 20.4858 41.3779Q20.4858 39.6416 19.9917 38.4132Q19.5022 37.1802 18.6202 36.5383Q17.7428 35.8964 16.5883 35.8964Q15.4338 35.8964 14.5518 36.5383Q13.6744 37.1802 13.1803 38.4132Q12.6908 39.6416 12.6908 41.3779Q12.6908 43.1189 13.1803 44.3518Q13.6744 45.5802 14.5518 46.2221Q15.4338 46.864 16.5883 46.864Z" fill="#000000" fill-opacity="1.000000" fill-rule="evenodd"/>
	<path id="0" d="M16.5883 600.115Q15.0552 600.115 13.8545 599.303Q12.6539 598.485 11.9796 596.966Q11.31 595.442 11.31 593.378Q11.31 591.318 11.9796 589.794Q12.6539 588.271 13.8545 587.458Q15.0552 586.645 16.5883 586.645Q18.1215 586.645 19.3221 587.458Q20.5228 588.271 21.2016 589.794Q21.8851 591.318 21.8851 593.378Q21.8851 595.442 21.2016 596.966Q20.5228 598.485 19.3221 599.303Q18.1215 600.115 16.5883 600.115ZM16.5883 598.864Q17.7428 598.864 18.6202 598.222Q19.5022 597.58 19.9917 596.352Q20.4858 595.119 20.4858 593.378Q20.4858 591.642 19.9917 590.413Q19.5022 589.18 18.6202 588.538Q17.7428 587.896 16.5883 587.896Q15.4338 587.896 14.5518 588.538Q13.6744 589.18 13.1803 590.413Q12.6908 591.642 12.6908 593.378Q12.6908 595.119 13.1803 596.352Q13.6744 597.58 14.5518 598.222Q15.4338 598.864 16.5883 598.864Z" fill="#000000" fill-opacity="1.000000" fill-rule="evenodd"/>
	<path id="image 9 (Traced)" d="M375.417 631.734C374.115 632.212 373.12 633.831 373.33 635.126C373.558 636.531 373.923 636.949 382.245 645.331C393.189 656.355 393.189 653.697 382.245 664.721C376.149 670.861 374.03 673.092 373.767 673.648C372.247 676.865 375.057 679.561 378.265 677.964C379.439 677.379 398.908 657.847 399.464 656.695C400.709 654.116 400.869 654.333 389.004 642.453C377.452 630.884 377.54 630.954 375.417 631.734ZM395.377 632.228C393.944 633.088 393.458 634.907 394.227 636.532C394.509 637.127 396.437 639.163 402.64 645.41C413.491 656.341 413.502 653.7 402.56 664.721C396.464 670.861 394.346 673.092 394.083 673.648C392.563 676.865 395.374 679.562 398.58 677.963C399.793 677.359 419.091 658.009 419.699 656.788C421.026 654.12 421.136 654.272 409.484 642.605C397.827 630.932 397.696 630.836 395.377 632.228Z" fill="url(#paint_linear_58_313_0)" fill-opacity="1.000000" fill-rule="evenodd"/>
	<path id="image 9 (Traced)" d="M721.417 631.734C720.115 632.212 719.12 633.831 719.33 635.126C719.558 636.531 719.923 636.949 728.245 645.331C739.189 656.355 739.189 653.697 728.245 664.721C722.149 670.861 720.03 673.092 719.767 673.648C718.247 676.865 721.057 679.561 724.265 677.964C725.439 677.379 744.908 657.847 745.464 656.695C746.709 654.116 746.869 654.333 735.004 642.453C723.452 630.884 723.54 630.954 721.417 631.734ZM741.377 632.228C739.944 633.088 739.458 634.907 740.227 636.532C740.509 637.127 742.437 639.163 748.64 645.41C759.491 656.341 759.502 653.7 748.56 664.721C742.464 670.861 740.346 673.092 740.083 673.648C738.563 676.865 741.374 679.562 744.58 677.963C745.793 677.359 765.091 658.009 765.699 656.788C767.026 654.12 767.136 654.272 755.484 642.605C743.827 630.932 743.696 630.836 741.377 632.228Z" fill="url(#paint_linear_58_314_0)" fill-opacity="1.000000" fill-rule="evenodd"/>
</svg>
