<svg width="1173.341553" height="682.727051" viewBox="0 0 1173.34 682.727" fill="none" xmlns="http://www.w3.org/2000/svg" xmlns:xlink="http://www.w3.org/1999/xlink">
	<desc>
			Created with Pixso.
	</desc>
	<defs>
		<linearGradient id="paint_linear_59_607_0" x1="232.154541" y1="149.354980" x2="232.154541" y2="198.354980" gradientUnits="userSpaceOnUse">
			<stop stop-color="#1091DA"/>
			<stop offset="1.000000" stop-color="#7DC5ED"/>
		</linearGradient>
		<linearGradient id="paint_linear_59_610_0" x1="574.654541" y1="149.354980" x2="574.654541" y2="198.354980" gradientUnits="userSpaceOnUse">
			<stop stop-color="#1091DA"/>
			<stop offset="1.000000" stop-color="#7DC5ED"/>
		</linearGradient>
		<linearGradient id="paint_linear_59_616_0" x1="961.154541" y1="149.354980" x2="961.154541" y2="198.354980" gradientUnits="userSpaceOnUse">
			<stop stop-color="#1091DA"/>
			<stop offset="1.000000" stop-color="#7DC5ED"/>
		</linearGradient>
		<linearGradient id="paint_linear_59_581_0" x1="334.959839" y1="-125.427261" x2="327.541626" y2="531.062134" gradientUnits="userSpaceOnUse">
			<stop stop-color="#008083"/>
			<stop offset="1.000000" stop-color="#3FBEC1"/>
		</linearGradient>
		<linearGradient id="paint_linear_59_611_0" x1="676.959839" y1="-125.427261" x2="669.541626" y2="531.062134" gradientUnits="userSpaceOnUse">
			<stop stop-color="#008083"/>
			<stop offset="1.000000" stop-color="#3FBEC1"/>
		</linearGradient>
		<linearGradient id="paint_linear_59_617_0" x1="1063.959839" y1="-125.427261" x2="1056.541626" y2="531.062134" gradientUnits="userSpaceOnUse">
			<stop stop-color="#008083"/>
			<stop offset="1.000000" stop-color="#3FBEC1"/>
		</linearGradient>
		<linearGradient id="paint_linear_59_603_0" x1="231.654541" y1="198.354980" x2="231.654541" y2="556.354980" gradientUnits="userSpaceOnUse">
			<stop stop-color="#1091DA"/>
			<stop offset="1.000000" stop-color="#7DC5ED"/>
		</linearGradient>
		<linearGradient id="paint_linear_59_612_0" x1="573.654541" y1="198.354980" x2="573.654541" y2="556.354980" gradientUnits="userSpaceOnUse">
			<stop stop-color="#1091DA"/>
			<stop offset="1.000000" stop-color="#7DC5ED"/>
		</linearGradient>
		<linearGradient id="paint_linear_59_618_0" x1="960.654541" y1="198.354980" x2="960.654541" y2="556.354980" gradientUnits="userSpaceOnUse">
			<stop stop-color="#1091DA"/>
			<stop offset="1.000000" stop-color="#7DC5ED"/>
		</linearGradient>
		<linearGradient id="paint_linear_59_604_0" x1="136.154526" y1="472.354980" x2="136.154526" y2="606.431885" gradientUnits="userSpaceOnUse">
			<stop stop-color="#BBBBBB"/>
			<stop offset="1.000000" stop-color="#BBBBBB" stop-opacity="0.000000"/>
		</linearGradient>
		<linearGradient id="paint_linear_59_613_0" x1="478.154541" y1="472.354980" x2="478.154541" y2="606.431885" gradientUnits="userSpaceOnUse">
			<stop stop-color="#BBBBBB"/>
			<stop offset="1.000000" stop-color="#BBBBBB" stop-opacity="0.000000"/>
		</linearGradient>
		<linearGradient id="paint_linear_59_619_0" x1="865.154541" y1="472.354980" x2="865.154541" y2="606.431885" gradientUnits="userSpaceOnUse">
			<stop stop-color="#BBBBBB"/>
			<stop offset="1.000000" stop-color="#BBBBBB" stop-opacity="0.000000"/>
		</linearGradient>
	</defs>
	<path id="Line 2" d="M55.3367 3.35498L55.3367 557.355L52.9724 557.355L52.9724 3.35498L55.3367 3.35498ZM54.1545 5.02686L48.303 10.8784C47.835 11.3467 47.0994 11.3467 46.6311 10.8784C46.1631 10.4102 46.1631 9.6748 46.6311 9.20654L53.3186 2.51904C53.7866 2.05078 54.5225 2.05078 54.9905 2.51904L61.678 9.20654C62.146 9.6748 62.146 10.4102 61.678 10.8784C61.2097 11.3467 60.4741 11.3467 60.0061 10.8784L54.1545 5.02686Z" fill="#000000" fill-opacity="1.000000" fill-rule="evenodd"/>
	<path id="Line 3" d="M1172.15 558.412L53.8064 558.412L53.8064 556.047L1172.15 556.047L1172.15 558.412ZM1170.48 557.229L1164.63 551.378C1164.16 550.91 1164.16 550.174 1164.63 549.706C1165.1 549.238 1165.83 549.238 1166.3 549.706L1172.99 556.394C1173.46 556.862 1173.46 557.597 1172.99 558.065L1166.3 564.753C1165.83 565.221 1165.1 565.221 1164.63 564.753C1164.16 564.285 1164.16 563.549 1164.63 563.081L1170.48 557.229Z" fill="#000000" fill-opacity="1.000000" fill-rule="evenodd"/>
	<path id="90,1" d="M305.159 22.438Q310.303 22.438 313.208 25.574Q316.114 28.7014 316.114 34.5803Q316.114 38.7417 314.558 41.7239Q313.003 44.6975 310.166 46.2356Q307.329 47.7737 303.621 47.7737Q301.664 47.7737 299.878 47.3379Q298.092 46.9021 296.836 46.0989L298.93 41.929Q300.716 43.1509 303.518 43.1509Q306.629 43.1509 308.449 41.3137Q310.269 39.4766 310.414 36.0159Q308.21 38.2205 304.322 38.2205Q301.98 38.2205 300.049 37.2805Q298.126 36.332 297.007 34.5974Q295.888 32.8628 295.888 30.5898Q295.888 28.1375 297.11 26.2832Q298.34 24.429 300.451 23.4377Q302.57 22.438 305.159 22.438ZM305.586 33.9822Q307.44 33.9822 308.611 32.9568Q309.782 31.9229 309.782 30.3079Q309.782 28.7014 308.645 27.6846Q307.509 26.6677 305.509 26.6677Q303.689 26.6677 302.553 27.6504Q301.416 28.6331 301.416 30.3079Q301.416 31.9912 302.553 32.991Q303.689 33.9822 305.586 33.9822ZM329.351 47.7737Q326.3 47.7737 323.916 46.2698Q321.541 44.7659 320.191 41.9119Q318.849 39.0579 318.849 35.1016Q318.849 31.1538 320.191 28.2998Q321.541 25.4458 323.916 23.9419Q326.3 22.438 329.351 22.438Q332.393 22.438 334.768 23.9419Q337.152 25.4458 338.494 28.2998Q339.844 31.1538 339.844 35.1016Q339.844 39.0579 338.494 41.9119Q337.152 44.7659 334.768 46.2698Q332.393 47.7737 329.351 47.7737ZM329.351 42.98Q331.59 42.98 332.863 41.0574Q334.145 39.1262 334.145 35.1016Q334.145 31.0769 332.863 29.1543Q331.59 27.2317 329.351 27.2317Q327.138 27.2317 325.856 29.1543Q324.583 31.0769 324.583 35.1016Q324.583 39.1262 325.856 41.0574Q327.138 42.98 329.351 42.98ZM345.415 40.8438Q346.885 40.8438 347.825 41.7751Q348.773 42.698 348.773 44.2019Q348.773 44.9026 348.594 45.6033Q348.423 46.304 347.825 47.7053L345.834 52.7468L342.364 52.7468L343.911 47.1841Q343.031 46.8337 342.518 46.0476Q342.014 45.2529 342.014 44.2019Q342.014 42.698 342.98 41.7751Q343.945 40.8438 345.415 40.8438ZM360.22 22.8567L360.22 47.355L354.546 47.355L354.546 27.4026L349.65 27.4026L349.65 22.8567L360.22 22.8567Z" fill="#008083" fill-opacity="1.000000" fill-rule="evenodd"/>
	<path id="74,8" d="M653.767 22.8567L653.767 26.531L644.666 47.355L638.505 47.355L647.298 27.4709L639.172 27.4709L639.172 31.4614L634.13 31.4614L634.13 22.8567L653.767 22.8567ZM676.447 42.2109L672.457 42.2109L672.457 47.355L666.928 47.355L666.928 42.2109L653.735 42.2109L653.735 38.3914L665.287 22.8567L671.235 22.8567L660.528 37.5881L667.108 37.5881L667.108 33.0081L672.457 33.0081L672.457 37.5881L676.447 37.5881L676.447 42.2109ZM682.087 40.8438Q683.557 40.8438 684.497 41.7751Q685.445 42.698 685.445 44.2019Q685.445 44.9026 685.266 45.6033Q685.095 46.304 684.497 47.7053L682.506 52.7468L679.037 52.7468L680.583 47.1841Q679.703 46.8337 679.191 46.0476Q678.686 45.2529 678.686 44.2019Q678.686 42.698 679.652 41.7751Q680.618 40.8438 682.087 40.8438ZM705.117 34.4778Q706.937 35.3835 707.894 36.8533Q708.86 38.323 708.86 40.2542Q708.86 42.5271 707.561 44.2275Q706.27 45.9194 703.921 46.8508Q701.579 47.7737 698.503 47.7737Q695.418 47.7737 693.086 46.8508Q690.761 45.9194 689.48 44.2275Q688.206 42.5271 688.206 40.2542Q688.206 38.323 689.172 36.8533Q690.138 35.3835 691.924 34.4778Q690.556 33.6318 689.821 32.3586Q689.087 31.0769 689.087 29.4363Q689.087 27.3 690.274 25.7278Q691.462 24.147 693.598 23.2925Q695.735 22.438 698.503 22.438Q701.297 22.438 703.451 23.2925Q705.604 24.147 706.792 25.7278Q707.988 27.3 707.988 29.4363Q707.988 31.0769 707.253 32.3586Q706.518 33.6318 705.117 34.4778ZM698.503 26.5994Q696.786 26.5994 695.752 27.4282Q694.718 28.2485 694.718 29.6841Q694.718 31.0769 695.735 31.8887Q696.751 32.6919 698.503 32.6919Q700.246 32.6919 701.297 31.8887Q702.348 31.0769 702.348 29.6841Q702.348 28.2485 701.297 27.4282Q700.246 26.5994 698.503 26.5994ZM698.503 43.6123Q700.631 43.6123 701.87 42.6467Q703.117 41.6812 703.117 40.0747Q703.117 38.4683 701.87 37.5198Q700.631 36.5713 698.503 36.5713Q696.401 36.5713 695.171 37.5198Q693.949 38.4683 693.949 40.0747Q693.949 41.7239 695.171 42.6724Q696.401 43.6123 698.503 43.6123Z" fill="#008083" fill-opacity="1.000000" fill-rule="evenodd"/>
	<path id="70,4" d="M1039.9 22.8567L1039.9 26.531L1030.8 47.355L1024.64 47.355L1033.43 27.4709L1025.3 27.4709L1025.3 31.4614L1020.26 31.4614L1020.26 22.8567L1039.9 22.8567ZM1052.23 47.7737Q1049.18 47.7737 1046.79 46.2698Q1044.42 44.7659 1043.07 41.9119Q1041.72 39.0579 1041.72 35.1016Q1041.72 31.1538 1043.07 28.2998Q1044.42 25.4458 1046.79 23.9419Q1049.18 22.438 1052.23 22.438Q1055.27 22.438 1057.64 23.9419Q1060.03 25.4458 1061.37 28.2998Q1062.72 31.1538 1062.72 35.1016Q1062.72 39.0579 1061.37 41.9119Q1060.03 44.7659 1057.64 46.2698Q1055.27 47.7737 1052.23 47.7737ZM1052.23 42.98Q1054.46 42.98 1055.74 41.0574Q1057.02 39.1262 1057.02 35.1016Q1057.02 31.0769 1055.74 29.1543Q1054.46 27.2317 1052.23 27.2317Q1050.01 27.2317 1048.73 29.1543Q1047.46 31.0769 1047.46 35.1016Q1047.46 39.1262 1048.73 41.0574Q1050.01 42.98 1052.23 42.98ZM1068.29 40.8438Q1069.76 40.8438 1070.7 41.7751Q1071.65 42.698 1071.65 44.2019Q1071.65 44.9026 1071.47 45.6033Q1071.3 46.304 1070.7 47.7053L1068.71 52.7468L1065.24 52.7468L1066.79 47.1841Q1065.91 46.8337 1065.39 46.0476Q1064.89 45.2529 1064.89 44.2019Q1064.89 42.698 1065.85 41.7751Q1066.82 40.8438 1068.29 40.8438ZM1096.63 42.2109L1092.64 42.2109L1092.64 47.355L1087.12 47.355L1087.12 42.2109L1073.92 42.2109L1073.92 38.3914L1085.47 22.8567L1091.42 22.8567L1080.72 37.5881L1087.3 37.5881L1087.3 33.0081L1092.64 33.0081L1092.64 37.5881L1096.63 37.5881L1096.63 42.2109Z" fill="#008083" fill-opacity="1.000000" fill-rule="evenodd"/>
	<path id="16,6" d="M113.285 437.857L113.285 462.355L107.611 462.355L107.611 442.403L102.715 442.403L102.715 437.857L113.285 437.857ZM129.346 446.991Q131.696 446.991 133.619 447.94Q135.541 448.88 136.661 450.614Q137.78 452.349 137.78 454.622Q137.78 457.074 136.558 458.928Q135.336 460.783 133.217 461.782Q131.098 462.774 128.509 462.774Q123.365 462.774 120.46 459.629Q117.554 456.476 117.554 450.631Q117.554 446.461 119.126 443.488Q120.699 440.514 123.519 438.976Q126.338 437.438 130.047 437.438Q132.004 437.438 133.807 437.874Q135.61 438.31 136.874 439.113L134.772 443.283Q132.952 442.052 130.184 442.052Q127.073 442.052 125.253 443.872Q123.433 445.692 123.288 449.162Q125.458 446.991 129.346 446.991ZM128.193 458.544Q130.013 458.544 131.149 457.561Q132.286 456.579 132.286 454.904Q132.286 453.22 131.149 452.221Q130.013 451.221 128.124 451.221Q126.27 451.221 125.074 452.255Q123.886 453.289 123.886 454.904Q123.886 456.51 125.04 457.527Q126.193 458.544 128.193 458.544ZM143.455 455.844Q144.925 455.844 145.865 456.775Q146.813 457.698 146.813 459.202Q146.813 459.903 146.634 460.603Q146.463 461.304 145.865 462.705L143.874 467.747L140.404 467.747L141.951 462.184Q141.071 461.834 140.558 461.048Q140.054 460.253 140.054 459.202Q140.054 457.698 141.02 456.775Q141.985 455.844 143.455 455.844ZM160.706 446.991Q163.056 446.991 164.979 447.94Q166.901 448.88 168.021 450.614Q169.14 452.349 169.14 454.622Q169.14 457.074 167.918 458.928Q166.696 460.783 164.577 461.782Q162.458 462.774 159.869 462.774Q154.725 462.774 151.82 459.629Q148.914 456.476 148.914 450.631Q148.914 446.461 150.486 443.488Q152.059 440.514 154.879 438.976Q157.698 437.438 161.407 437.438Q163.364 437.438 165.167 437.874Q166.97 438.31 168.234 439.113L166.132 443.283Q164.312 442.052 161.544 442.052Q158.433 442.052 156.613 443.872Q154.793 445.692 154.648 449.162Q156.818 446.991 160.706 446.991ZM159.553 458.544Q161.373 458.544 162.509 457.561Q163.646 456.579 163.646 454.904Q163.646 453.22 162.509 452.221Q161.373 451.221 159.484 451.221Q157.63 451.221 156.434 452.255Q155.246 453.289 155.246 454.904Q155.246 456.51 156.4 457.527Q157.553 458.544 159.553 458.544Z" fill="#737373" fill-opacity="1.000000" fill-rule="evenodd"/>
	<path id="8,8" d="M468.752 449.478Q470.572 450.384 471.529 451.853Q472.495 453.323 472.495 455.254Q472.495 457.527 471.196 459.228Q469.905 460.919 467.556 461.851Q465.214 462.774 462.138 462.774Q459.053 462.774 456.721 461.851Q454.396 460.919 453.115 459.228Q451.841 457.527 451.841 455.254Q451.841 453.323 452.807 451.853Q453.773 450.384 455.559 449.478Q454.191 448.632 453.456 447.359Q452.722 446.077 452.722 444.436Q452.722 442.3 453.909 440.728Q455.097 439.147 457.233 438.292Q459.37 437.438 462.138 437.438Q464.932 437.438 467.086 438.292Q469.239 439.147 470.427 440.728Q471.623 442.3 471.623 444.436Q471.623 446.077 470.888 447.359Q470.153 448.632 468.752 449.478ZM462.138 441.599Q460.421 441.599 459.387 442.428Q458.353 443.249 458.353 444.684Q458.353 446.077 459.37 446.889Q460.386 447.692 462.138 447.692Q463.881 447.692 464.932 446.889Q465.983 446.077 465.983 444.684Q465.983 443.249 464.932 442.428Q463.881 441.599 462.138 441.599ZM462.138 458.612Q464.266 458.612 465.505 457.647Q466.752 456.681 466.752 455.075Q466.752 453.468 465.505 452.52Q464.266 451.571 462.138 451.571Q460.036 451.571 458.806 452.52Q457.584 453.468 457.584 455.075Q457.584 456.724 458.806 457.672Q460.036 458.612 462.138 458.612ZM478.692 455.844Q480.162 455.844 481.102 456.775Q482.051 457.698 482.051 459.202Q482.051 459.903 481.871 460.603Q481.7 461.304 481.102 462.705L479.111 467.747L475.642 467.747L477.188 462.184Q476.308 461.834 475.796 461.048Q475.291 460.253 475.291 459.202Q475.291 457.698 476.257 456.775Q477.223 455.844 478.692 455.844ZM501.722 449.478Q503.542 450.384 504.499 451.853Q505.465 453.323 505.465 455.254Q505.465 457.527 504.166 459.228Q502.875 460.919 500.526 461.851Q498.184 462.774 495.108 462.774Q492.023 462.774 489.691 461.851Q487.366 460.919 486.085 459.228Q484.811 457.527 484.811 455.254Q484.811 453.323 485.777 451.853Q486.743 450.384 488.529 449.478Q487.161 448.632 486.426 447.359Q485.692 446.077 485.692 444.436Q485.692 442.3 486.879 440.728Q488.067 439.147 490.203 438.292Q492.34 437.438 495.108 437.438Q497.902 437.438 500.056 438.292Q502.209 439.147 503.397 440.728Q504.593 442.3 504.593 444.436Q504.593 446.077 503.858 447.359Q503.123 448.632 501.722 449.478ZM495.108 441.599Q493.391 441.599 492.357 442.428Q491.323 443.249 491.323 444.684Q491.323 446.077 492.34 446.889Q493.356 447.692 495.108 447.692Q496.851 447.692 497.902 446.889Q498.953 446.077 498.953 444.684Q498.953 443.249 497.902 442.428Q496.851 441.599 495.108 441.599ZM495.108 458.612Q497.236 458.612 498.475 457.647Q499.722 456.681 499.722 455.075Q499.722 453.468 498.475 452.52Q497.236 451.571 495.108 451.571Q493.006 451.571 491.776 452.52Q490.554 453.468 490.554 455.075Q490.554 456.724 491.776 457.672Q493.006 458.612 495.108 458.612Z" fill="#737373" fill-opacity="1.000000" fill-rule="evenodd"/>
	<path id="12,2" d="M844.027 437.857L844.027 462.355L838.354 462.355L838.354 442.403L833.457 442.403L833.457 437.857L844.027 437.857ZM866.6 457.732L866.6 462.355L848.083 462.355L848.083 458.681L857.534 449.751Q859.038 448.324 859.559 447.29Q860.089 446.256 860.089 445.24Q860.089 443.77 859.089 442.984Q858.098 442.198 856.167 442.198Q854.56 442.198 853.261 442.813Q851.971 443.419 851.091 444.641L846.964 441.984Q848.399 439.848 850.92 438.643Q853.441 437.438 856.696 437.438Q859.422 437.438 861.473 438.335Q863.524 439.224 864.66 440.847Q865.797 442.471 865.797 444.684Q865.797 446.675 864.951 448.427Q864.113 450.178 861.704 452.417L856.064 457.732L866.6 457.732ZM872.552 455.844Q874.022 455.844 874.962 456.775Q875.911 457.698 875.911 459.202Q875.911 459.903 875.731 460.603Q875.56 461.304 874.962 462.705L872.971 467.747L869.502 467.747L871.048 462.184Q870.168 461.834 869.656 461.048Q869.151 460.253 869.151 459.202Q869.151 457.698 870.117 456.775Q871.083 455.844 872.552 455.844ZM897.12 457.732L897.12 462.355L878.603 462.355L878.603 458.681L888.054 449.751Q889.558 448.324 890.079 447.29Q890.609 446.256 890.609 445.24Q890.609 443.77 889.609 442.984Q888.618 442.198 886.687 442.198Q885.08 442.198 883.781 442.813Q882.491 443.419 881.611 444.641L877.484 441.984Q878.919 439.848 881.44 438.643Q883.961 437.438 887.216 437.438Q889.942 437.438 891.993 438.335Q894.044 439.224 895.18 440.847Q896.317 442.471 896.317 444.684Q896.317 446.675 895.471 448.427Q894.633 450.178 892.224 452.417L886.584 457.732L897.12 457.732Z" fill="#737373" fill-opacity="1.000000" fill-rule="evenodd"/>
	<path id="65,7" d="M208.599 170.991Q210.949 170.991 212.871 171.94Q214.794 172.88 215.913 174.614Q217.033 176.349 217.033 178.622Q217.033 181.074 215.811 182.928Q214.589 184.783 212.47 185.782Q210.35 186.774 207.761 186.774Q202.617 186.774 199.712 183.629Q196.807 180.476 196.807 174.631Q196.807 170.461 198.379 167.488Q199.951 164.514 202.771 162.976Q205.591 161.438 209.299 161.438Q211.256 161.438 213.059 161.874Q214.862 162.31 216.127 163.113L214.025 167.283Q212.205 166.052 209.436 166.052Q206.326 166.052 204.506 167.872Q202.686 169.692 202.54 173.162Q204.711 170.991 208.599 170.991ZM207.445 182.544Q209.265 182.544 210.402 181.561Q211.538 180.579 211.538 178.904Q211.538 177.22 210.402 176.221Q209.265 175.221 207.377 175.221Q205.523 175.221 204.326 176.255Q203.139 177.289 203.139 178.904Q203.139 180.51 204.292 181.527Q205.446 182.544 207.445 182.544ZM227.501 171.06Q232.68 171.06 235.149 173.127Q237.619 175.187 237.619 178.656Q237.619 180.895 236.491 182.732Q235.371 184.569 233.081 185.671Q230.791 186.774 227.433 186.774Q224.835 186.774 222.332 186.09Q219.837 185.406 218.085 184.15L220.324 179.81Q221.725 180.861 223.545 181.442Q225.365 182.014 227.288 182.014Q229.424 182.014 230.646 181.177Q231.876 180.331 231.876 178.827Q231.876 177.255 230.595 176.451Q229.321 175.648 226.168 175.648L219.905 175.648L221.161 161.857L236.106 161.857L236.106 166.403L225.886 166.403L225.502 171.06L227.501 171.06ZM243.182 179.844Q244.652 179.844 245.592 180.775Q246.54 181.698 246.54 183.202Q246.54 183.903 246.361 184.603Q246.19 185.304 245.592 186.705L243.601 191.747L240.132 191.747L241.678 186.184Q240.798 185.834 240.286 185.048Q239.781 184.253 239.781 183.202Q239.781 181.698 240.747 180.775Q241.713 179.844 243.182 179.844ZM267.712 161.857L267.712 165.531L258.611 186.355L252.45 186.355L261.243 166.471L253.117 166.471L253.117 170.461L248.075 170.461L248.075 161.857L267.712 161.857Z" fill="url(#paint_linear_59_607_0)" fill-opacity="1.000000" fill-rule="evenodd"/>
	<path id="41" d="M579.972 181.211L575.982 181.211L575.982 186.355L570.453 186.355L570.453 181.211L557.26 181.211L557.26 177.391L568.812 161.857L574.76 161.857L564.053 176.588L570.633 176.588L570.633 172.008L575.982 172.008L575.982 176.588L579.972 176.588L579.972 181.211ZM590.232 161.857L590.232 186.355L584.559 186.355L584.559 166.403L579.662 166.403L579.662 161.857L590.232 161.857Z" fill="url(#paint_linear_59_610_0)" fill-opacity="1.000000" fill-rule="evenodd"/>
	<path id="42,3" d="M947.31 181.211L943.319 181.211L943.319 186.355L937.791 186.355L937.791 181.211L924.597 181.211L924.597 177.391L936.15 161.857L942.097 161.857L931.39 176.588L937.97 176.588L937.97 172.008L943.319 172.008L943.319 176.588L947.31 176.588L947.31 181.211ZM967.227 181.732L967.227 186.355L948.711 186.355L948.711 182.681L958.161 173.751Q959.665 172.324 960.186 171.29Q960.716 170.256 960.716 169.24Q960.716 167.77 959.716 166.984Q958.725 166.198 956.794 166.198Q955.188 166.198 953.889 166.813Q952.599 167.419 951.718 168.641L947.591 165.984Q949.027 163.848 951.548 162.643Q954.068 161.438 957.324 161.438Q960.05 161.438 962.101 162.335Q964.151 163.224 965.288 164.847Q966.424 166.471 966.424 168.684Q966.424 170.675 965.578 172.427Q964.741 174.178 962.331 176.417L956.692 181.732L967.227 181.732ZM973.18 179.844Q974.65 179.844 975.59 180.775Q976.538 181.698 976.538 183.202Q976.538 183.903 976.359 184.603Q976.188 185.304 975.59 186.705L973.599 191.747L970.129 191.747L971.676 186.184Q970.796 185.834 970.283 185.048Q969.779 184.253 969.779 183.202Q969.779 181.698 970.745 180.775Q971.71 179.844 973.18 179.844ZM990.886 171.829Q994.107 172.358 995.816 174.23Q997.534 176.101 997.534 178.861Q997.534 180.997 996.414 182.8Q995.295 184.603 993.005 185.688Q990.715 186.774 987.391 186.774Q984.793 186.774 982.29 186.09Q979.795 185.406 978.043 184.15L980.247 179.81Q981.649 180.861 983.486 181.442Q985.323 182.014 987.246 182.014Q989.382 182.014 990.604 181.194Q991.834 180.374 991.834 178.861Q991.834 175.853 987.246 175.853L984.657 175.853L984.657 172.111L989.698 166.403L979.265 166.403L979.265 161.857L996.414 161.857L996.414 165.531L990.886 171.829Z" fill="url(#paint_linear_59_616_0)" fill-opacity="1.000000" fill-rule="evenodd"/>
	<path id="Rectangle 17" d="M302.434 59.355L351.875 59.355C363.628 59.355 373.155 68.8818 373.155 80.6343L373.155 556.355L281.155 556.355L281.155 80.6343C281.155 68.8818 290.681 59.355 302.434 59.355Z" fill="url(#paint_linear_59_581_0)" fill-opacity="1.000000" fill-rule="evenodd"/>
	<path id="Rectangle 24" d="M644.434 59.355L693.875 59.355C705.628 59.355 715.155 68.8818 715.155 80.6343L715.155 556.355L623.155 556.355L623.155 80.6343C623.155 68.8818 632.681 59.355 644.434 59.355Z" fill="url(#paint_linear_59_611_0)" fill-opacity="1.000000" fill-rule="evenodd"/>
	<path id="Rectangle 27" d="M1031.43 59.355L1080.88 59.355C1092.63 59.355 1102.15 68.8818 1102.15 80.6343L1102.15 556.355L1010.15 556.355L1010.15 80.6343C1010.15 68.8818 1019.68 59.355 1031.43 59.355Z" fill="url(#paint_linear_59_617_0)" fill-opacity="1.000000" fill-rule="evenodd"/>
	<path id="Rectangle 22" d="M206.434 198.355L256.875 198.355C268.628 198.355 278.155 207.882 278.155 219.634L278.155 556.355L185.155 556.355L185.155 219.634C185.155 207.882 194.682 198.355 206.434 198.355Z" fill="url(#paint_linear_59_603_0)" fill-opacity="1.000000" fill-rule="evenodd"/>
	<path id="Rectangle 25" d="M548.434 198.355L598.875 198.355C610.628 198.355 620.155 207.882 620.155 219.634L620.155 556.355L527.155 556.355L527.155 219.634C527.155 207.882 536.681 198.355 548.434 198.355Z" fill="url(#paint_linear_59_612_0)" fill-opacity="1.000000" fill-rule="evenodd"/>
	<path id="Rectangle 28" d="M935.434 198.355L985.875 198.355C997.628 198.355 1007.15 207.882 1007.15 219.634L1007.15 556.355L914.155 556.355L914.155 219.634C914.155 207.882 923.681 198.355 935.434 198.355Z" fill="url(#paint_linear_59_618_0)" fill-opacity="1.000000" fill-rule="evenodd"/>
	<path id="Rectangle 23" d="M111.434 472.355L160.875 472.355C172.627 472.355 182.155 481.882 182.155 493.634L182.155 556.355L90.1545 556.355L90.1545 493.634C90.1545 481.882 99.6816 472.355 111.434 472.355Z" fill="url(#paint_linear_59_604_0)" fill-opacity="1.000000" fill-rule="evenodd"/>
	<path id="Rectangle 26" d="M453.434 472.355L502.875 472.355C514.628 472.355 524.155 481.882 524.155 493.634L524.155 556.355L432.155 556.355L432.155 493.634C432.155 481.882 441.681 472.355 453.434 472.355Z" fill="url(#paint_linear_59_613_0)" fill-opacity="1.000000" fill-rule="evenodd"/>
	<path id="Rectangle 29" d="M840.434 472.355L889.875 472.355C901.628 472.355 911.155 481.882 911.155 493.634L911.155 556.355L819.155 556.355L819.155 493.634C819.155 481.882 828.681 472.355 840.434 472.355Z" fill="url(#paint_linear_59_619_0)" fill-opacity="1.000000" fill-rule="evenodd"/>
	<path id="Line 9" d="M406.098 557.229L406.098 545.408" stroke="#000000" stroke-opacity="1.000000" stroke-width="1.182186" stroke-linecap="round"/>
	<path id="Line 10" d="M759.572 557.229L759.572 545.408" stroke="#000000" stroke-opacity="1.000000" stroke-width="1.182186" stroke-linecap="round"/>
	<path id="Line 8" d="M53.8064 446.355L41.9846 446.355" stroke="#000000" stroke-opacity="1.000000" stroke-width="1.182186" stroke-linecap="round"/>
	<path id="Line 11" d="M53.8064 336.355L41.9846 336.355" stroke="#000000" stroke-opacity="1.000000" stroke-width="1.182186" stroke-linecap="round"/>
	<path id="Line 12" d="M53.8064 226.355L41.9846 226.355" stroke="#000000" stroke-opacity="1.000000" stroke-width="1.182186" stroke-linecap="round"/>
	<path id="Line 13" d="M53.8064 116.355L41.9846 116.355" stroke="#000000" stroke-opacity="1.000000" stroke-width="1.182186" stroke-linecap="round"/>
	<path id="ІНТОКСИКАЦІЯ" d="M137.445 634.184L141.168 634.184L141.168 650.355L137.445 650.355L137.445 634.184ZM160.019 634.184L160.019 650.355L156.274 650.355L156.274 643.722L148.93 643.722L148.93 650.355L145.185 650.355L145.185 634.184L148.93 634.184L148.93 640.557L156.274 640.557L156.274 634.184L160.019 634.184ZM176.424 637.23L171.246 637.23L171.246 650.355L167.552 650.355L167.552 637.23L162.396 637.23L162.396 634.184L176.424 634.184L176.424 637.23ZM186.268 650.631Q183.747 650.631 181.722 649.548Q179.702 648.46 178.557 646.553Q177.418 644.647 177.418 642.267Q177.418 639.892 178.557 637.985Q179.702 636.079 181.722 634.996Q183.747 633.907 186.268 633.907Q188.784 633.907 190.792 634.996Q192.805 636.079 193.956 637.985Q195.112 639.892 195.112 642.267Q195.112 644.647 193.956 646.553Q192.805 648.46 190.792 649.548Q188.784 650.631 186.268 650.631ZM186.268 647.444Q187.695 647.444 188.851 646.785Q190.007 646.125 190.667 644.951Q191.327 643.773 191.327 642.267Q191.327 640.766 190.667 639.587Q190.007 638.408 188.851 637.754Q187.695 637.094 186.268 637.094Q184.835 637.094 183.679 637.754Q182.523 638.408 181.863 639.587Q181.203 640.766 181.203 642.267Q181.203 643.773 181.863 644.951Q182.523 646.125 183.679 646.785Q184.835 647.444 186.268 647.444ZM204.26 643.84L201.677 643.84L201.677 650.355L197.954 650.355L197.954 634.184L201.677 634.184L201.677 640.721L204.356 640.721L208.603 634.184L212.557 634.184L207.266 641.99L212.715 650.355L208.468 650.355L204.26 643.84ZM222.051 650.631Q219.581 650.631 217.578 649.56Q215.581 648.482 214.436 646.576Q213.297 644.669 213.297 642.267Q213.297 639.864 214.436 637.963Q215.581 636.056 217.578 634.985Q219.581 633.907 222.074 633.907Q224.178 633.907 225.875 634.646Q227.573 635.385 228.729 636.773L226.327 638.989Q224.685 637.094 222.26 637.094Q220.759 637.094 219.581 637.754Q218.402 638.408 217.742 639.587Q217.082 640.766 217.082 642.267Q217.082 643.773 217.742 644.951Q218.402 646.125 219.581 646.785Q220.759 647.444 222.26 647.444Q224.685 647.444 226.327 645.527L228.729 647.743Q227.573 649.154 225.864 649.892Q224.155 650.631 222.051 650.631ZM231.176 634.184L234.898 634.184L234.898 644.72L242.615 634.184L246.123 634.184L246.123 650.355L242.428 650.355L242.428 639.841L234.712 650.355L231.176 650.355L231.176 634.184ZM256.405 643.84L253.821 643.84L253.821 650.355L250.098 650.355L250.098 634.184L253.821 634.184L253.821 640.721L256.5 640.721L260.748 634.184L264.702 634.184L259.411 641.99L264.86 650.355L260.612 650.355L256.405 643.84ZM277.247 646.892L269.739 646.892L268.307 650.355L264.471 650.355L271.68 634.184L275.374 634.184L282.605 650.355L278.679 650.355L277.247 646.892ZM276.068 644.049L273.507 637.856L270.941 644.049L276.068 644.049ZM301.714 647.303L301.714 653.773L298.273 653.773L298.273 650.355L284.753 650.355L284.753 634.184L288.475 634.184L288.475 647.303L295.684 647.303L295.684 634.184L299.401 634.184L299.401 647.303L301.714 647.303ZM304.183 634.184L307.905 634.184L307.905 650.355L304.183 650.355L304.183 634.184ZM324.839 634.184L324.839 650.355L321.144 650.355L321.144 646.057L317.721 646.057L314.861 650.355L310.907 650.355L314.28 645.482Q312.639 644.81 311.759 643.462Q310.884 642.109 310.884 640.213Q310.884 638.341 311.736 636.993Q312.593 635.639 314.161 634.911Q315.735 634.184 317.862 634.184L324.839 634.184ZM317.952 637.23Q316.361 637.23 315.515 637.974Q314.675 638.713 314.675 640.168Q314.675 641.578 315.481 642.34Q316.288 643.101 317.862 643.101L321.144 643.101L321.144 637.23L317.952 637.23Z" fill="#000000" fill-opacity="1.000000" fill-rule="evenodd"/>
	<path id="ЗАКЛАДЕНІСТЬ/ ВІДХОДЖЕННЯ СЛИЗУ З НОСУ" d="M483.121 609.922Q484.525 610.408 485.321 611.44Q486.122 612.466 486.122 613.826Q486.122 615.303 485.152 616.392Q484.181 617.475 482.529 618.056Q480.876 618.631 478.913 618.631Q477.249 618.631 475.597 618.22Q473.944 617.802 472.466 616.945L473.622 614.266Q474.688 614.914 475.969 615.247Q477.249 615.58 478.473 615.58Q480.137 615.58 481.231 614.982Q482.331 614.378 482.331 613.295Q482.331 612.393 481.581 611.93Q480.831 611.468 479.539 611.468L475.585 611.468L475.585 608.653L479.263 608.653Q480.391 608.653 481.028 608.191Q481.666 607.728 481.666 606.916Q481.666 605.974 480.752 605.444Q479.838 604.908 478.406 604.908Q477.345 604.908 476.211 605.201Q475.078 605.489 474.062 606.064L472.929 603.154Q475.495 601.834 478.473 601.834Q480.368 601.834 481.959 602.392Q483.555 602.945 484.503 604.011Q485.451 605.072 485.451 606.482Q485.451 607.632 484.824 608.535Q484.204 609.437 483.121 609.922ZM500.031 614.892L492.524 614.892L491.091 618.355L487.255 618.355L494.464 602.184L498.158 602.184L505.389 618.355L501.464 618.355L500.031 614.892ZM498.852 612.049L496.291 605.856L493.725 612.049L498.852 612.049ZM513.798 611.84L511.214 611.84L511.214 618.355L507.492 618.355L507.492 602.184L511.214 602.184L511.214 608.721L513.894 608.721L518.141 602.184L522.095 602.184L516.804 609.99L522.253 618.355L518.006 618.355L513.798 611.84ZM538.819 602.184L538.819 618.355L535.125 618.355L535.125 605.23L529.58 605.23L529.462 608.603Q529.349 612.049 528.909 614.187Q528.469 616.324 527.443 617.469Q526.416 618.609 524.566 618.609Q523.805 618.609 522.716 618.355L522.947 615.191Q523.252 615.281 523.618 615.281Q524.961 615.281 525.491 613.702Q526.021 612.117 526.162 608.744L526.393 602.184L538.819 602.184ZM553.816 614.892L546.308 614.892L544.876 618.355L541.04 618.355L548.249 602.184L551.943 602.184L559.174 618.355L555.249 618.355L553.816 614.892ZM552.637 612.049L550.076 605.856L547.51 612.049L552.637 612.049ZM578.145 615.303L578.145 621.705L574.676 621.705L574.676 618.355L563.265 618.355L563.265 621.705L559.796 621.705L559.825 615.303L560.468 615.303Q561.923 615.258 562.521 613.183Q563.124 611.101 563.265 607.243L563.451 602.184L575.877 602.184L575.877 615.303L578.145 615.303ZM566.571 607.587Q566.452 610.475 566.08 612.427Q565.713 614.378 564.952 615.303L572.183 615.303L572.183 605.23L566.638 605.23L566.571 607.587ZM593.181 615.354L593.181 618.355L580.659 618.355L580.659 602.184L592.882 602.184L592.882 605.184L584.376 605.184L584.376 608.698L591.89 608.698L591.89 611.609L584.376 611.609L584.376 615.354L593.181 615.354ZM611.042 602.184L611.042 618.355L607.297 618.355L607.297 611.722L599.953 611.722L599.953 618.355L596.208 618.355L596.208 602.184L599.953 602.184L599.953 608.557L607.297 608.557L607.297 602.184L611.042 602.184ZM615.083 602.184L618.806 602.184L618.806 618.355L615.083 618.355L615.083 602.184ZM630.472 618.631Q628.001 618.631 625.999 617.56Q624.002 616.482 622.857 614.576Q621.718 612.669 621.718 610.267Q621.718 607.864 622.857 605.963Q624.002 604.056 625.999 602.985Q628.001 601.907 630.494 601.907Q632.598 601.907 634.296 602.646Q635.994 603.385 637.15 604.773L634.747 606.989Q633.106 605.094 630.68 605.094Q629.18 605.094 628.001 605.754Q626.822 606.408 626.162 607.587Q625.502 608.766 625.502 610.267Q625.502 611.773 626.162 612.951Q626.822 614.125 628.001 614.785Q629.18 615.444 630.68 615.444Q633.106 615.444 634.747 613.527L637.15 615.743Q635.994 617.154 634.285 617.892Q632.576 618.631 630.472 618.631ZM651.798 605.23L646.62 605.23L646.62 618.355L642.926 618.355L642.926 605.23L637.771 605.23L637.771 602.184L651.798 602.184L651.798 605.23ZM661.986 607.497Q664.942 607.497 666.521 608.817Q668.106 610.131 668.106 612.72Q668.106 615.467 666.363 616.911Q664.62 618.355 661.456 618.355L654.151 618.355L654.151 602.184L657.874 602.184L657.874 607.497L661.986 607.497ZM661.247 615.58Q662.702 615.58 663.52 614.869Q664.344 614.153 664.344 612.788Q664.344 610.267 661.247 610.267L657.874 610.267L657.874 615.58L661.247 615.58ZM675.665 598.901L678.875 598.901L671.249 620.668L668.039 620.668L675.665 598.901ZM491.598 641.922Q493.076 642.362 493.86 643.355Q494.649 644.348 494.649 645.803Q494.649 647.952 493.019 649.154Q491.389 650.355 488.36 650.355L480.39 650.355L480.39 634.184L487.926 634.184Q490.741 634.184 492.309 635.272Q493.882 636.355 493.882 638.363Q493.882 639.565 493.279 640.478Q492.681 641.392 491.598 641.922ZM484.113 640.885L487.599 640.885Q488.823 640.885 489.449 640.388Q490.075 639.892 490.075 638.916Q490.075 637.974 489.438 637.466Q488.8 636.953 487.599 636.953L484.113 636.953L484.113 640.885ZM488.225 647.58Q490.859 647.58 490.859 645.504Q490.859 643.49 488.225 643.49L484.113 643.49L484.113 647.58L488.225 647.58ZM497.602 634.184L501.325 634.184L501.325 650.355L497.602 650.355L497.602 634.184ZM521.911 647.303L521.911 653.705L518.442 653.705L518.442 650.355L507.031 650.355L507.031 653.705L503.563 653.705L503.591 647.303L504.234 647.303Q505.689 647.258 506.287 645.183Q506.89 643.101 507.031 639.243L507.218 634.184L519.644 634.184L519.644 647.303L521.911 647.303ZM510.337 639.587Q510.218 642.475 509.846 644.427Q509.479 646.378 508.718 647.303L515.949 647.303L515.949 637.23L510.404 637.23L510.337 639.587ZM527.336 634.184L530.686 639.08L534.037 634.184L538.431 634.184L533.044 641.922L538.865 650.355L534.454 650.355L530.686 644.997L526.969 650.355L522.649 650.355L528.425 642.086L523.015 634.184L527.336 634.184ZM548.25 650.631Q545.729 650.631 543.704 649.548Q541.685 648.46 540.54 646.553Q539.401 644.647 539.401 642.267Q539.401 639.892 540.54 637.985Q541.685 636.079 543.704 634.996Q545.729 633.907 548.25 633.907Q550.766 633.907 552.774 634.996Q554.788 636.079 555.938 637.985Q557.095 639.892 557.095 642.267Q557.095 644.647 555.938 646.553Q554.788 648.46 552.774 649.548Q550.766 650.631 548.25 650.631ZM548.25 647.444Q549.677 647.444 550.834 646.785Q551.99 646.125 552.65 644.951Q553.31 643.773 553.31 642.267Q553.31 640.766 552.65 639.587Q551.99 638.408 550.834 637.754Q549.677 637.094 548.25 637.094Q546.818 637.094 545.661 637.754Q544.505 638.408 543.845 639.587Q543.185 640.766 543.185 642.267Q543.185 643.773 543.845 644.951Q544.505 646.125 545.661 646.785Q546.818 647.444 548.25 647.444ZM576.204 647.303L576.204 653.705L572.735 653.705L572.735 650.355L561.325 650.355L561.325 653.705L557.856 653.705L557.884 647.303L558.527 647.303Q559.982 647.258 560.58 645.183Q561.184 643.101 561.325 639.243L561.511 634.184L573.937 634.184L573.937 647.303L576.204 647.303ZM564.63 639.587Q564.511 642.475 564.139 644.427Q563.773 646.378 563.011 647.303L570.242 647.303L570.242 637.23L564.698 637.23L564.63 639.587ZM593.39 643.84L591.037 643.84L591.037 650.355L587.36 650.355L587.36 643.84L584.957 643.84L581.33 650.355L577.01 650.355L581.86 641.9L577.308 634.184L581.262 634.184L584.889 640.721L587.36 640.721L587.36 634.184L591.037 634.184L591.037 640.721L593.435 640.721L597.09 634.184L601.038 634.184L596.509 641.9L601.337 650.355L597.016 650.355L593.39 643.84ZM615.661 647.354L615.661 650.355L603.139 650.355L603.139 634.184L615.362 634.184L615.362 637.184L606.856 637.184L606.856 640.698L614.369 640.698L614.369 643.609L606.856 643.609L606.856 647.354L615.661 647.354ZM633.522 634.184L633.522 650.355L629.777 650.355L629.777 643.722L622.433 643.722L622.433 650.355L618.688 650.355L618.688 634.184L622.433 634.184L622.433 640.557L629.777 640.557L629.777 634.184L633.522 634.184ZM652.398 634.184L652.398 650.355L648.652 650.355L648.652 643.722L641.308 643.722L641.308 650.355L637.563 650.355L637.563 634.184L641.308 634.184L641.308 640.557L648.652 640.557L648.652 634.184L652.398 634.184ZM669.355 634.184L669.355 650.355L665.661 650.355L665.661 646.057L662.237 646.057L659.377 650.355L655.423 650.355L658.796 645.482Q657.155 644.81 656.275 643.462Q655.401 642.109 655.401 640.213Q655.401 638.341 656.252 636.993Q657.11 635.639 658.678 634.911Q660.252 634.184 662.378 634.184L669.355 634.184ZM662.468 637.23Q660.878 637.23 660.032 637.974Q659.191 638.713 659.191 640.168Q659.191 641.578 659.998 642.34Q660.804 643.101 662.378 643.101L665.661 643.101L665.661 637.23L662.468 637.23ZM495.212 682.631Q492.742 682.631 490.74 681.56Q488.743 680.482 487.598 678.576Q486.458 676.669 486.458 674.267Q486.458 671.864 487.598 669.963Q488.743 668.056 490.74 666.985Q492.742 665.907 495.235 665.907Q497.339 665.907 499.037 666.646Q500.734 667.385 501.891 668.773L499.488 670.989Q497.847 669.094 495.421 669.094Q493.921 669.094 492.742 669.754Q491.563 670.408 490.903 671.587Q490.243 672.766 490.243 674.267Q490.243 675.773 490.903 676.951Q491.563 678.125 492.742 678.785Q493.921 679.444 495.421 679.444Q497.847 679.444 499.488 677.527L501.891 679.743Q500.734 681.154 499.025 681.892Q497.316 682.631 495.212 682.631ZM518.361 666.184L518.361 682.355L514.667 682.355L514.667 669.23L509.122 669.23L509.004 672.603Q508.891 676.049 508.451 678.187Q508.011 680.324 506.984 681.469Q505.958 682.609 504.108 682.609Q503.346 682.609 502.258 682.355L502.489 679.191Q502.794 679.281 503.16 679.281Q504.503 679.281 505.033 677.702Q505.563 676.117 505.704 672.744L505.935 666.184L518.361 666.184ZM522.404 666.184L526.127 666.184L526.127 676.72L533.843 666.184L537.351 666.184L537.351 682.355L533.657 682.355L533.657 671.841L525.94 682.355L522.404 682.355L522.404 666.184ZM550.572 673.922Q551.976 674.408 552.771 675.44Q553.572 676.466 553.572 677.826Q553.572 679.303 552.602 680.392Q551.632 681.475 549.979 682.056Q548.327 682.631 546.364 682.631Q544.7 682.631 543.047 682.22Q541.394 681.802 539.917 680.945L541.073 678.266Q542.139 678.914 543.419 679.247Q544.7 679.58 545.924 679.58Q547.588 679.58 548.682 678.982Q549.782 678.378 549.782 677.295Q549.782 676.393 549.032 675.93Q548.281 675.468 546.99 675.468L543.036 675.468L543.036 672.653L546.713 672.653Q547.841 672.653 548.479 672.191Q549.116 671.728 549.116 670.916Q549.116 669.974 548.203 669.444Q547.289 668.908 545.856 668.908Q544.796 668.908 543.662 669.201Q542.528 669.489 541.513 670.064L540.379 667.154Q542.946 665.834 545.924 665.834Q547.819 665.834 549.41 666.392Q551.006 666.945 551.953 668.011Q552.901 669.072 552.901 670.482Q552.901 671.632 552.275 672.535Q551.654 673.437 550.572 673.922ZM570.9 666.184L564.013 678.982Q563.02 680.832 561.621 681.78Q560.228 682.727 558.587 682.727Q557.318 682.727 555.953 682.169L556.855 679.326Q557.825 679.631 558.468 679.631Q559.162 679.631 559.715 679.298Q560.273 678.959 560.736 678.243L560.871 678.057L554.497 666.184L558.491 666.184L562.789 674.87L567.228 666.184L570.9 666.184ZM588.761 673.922Q590.166 674.408 590.961 675.44Q591.762 676.466 591.762 677.826Q591.762 679.303 590.792 680.392Q589.822 681.475 588.169 682.056Q586.517 682.631 584.554 682.631Q582.89 682.631 581.237 682.22Q579.584 681.802 578.107 680.945L579.263 678.266Q580.329 678.914 581.609 679.247Q582.89 679.58 584.114 679.58Q585.778 679.58 586.872 678.982Q587.972 678.378 587.972 677.295Q587.972 676.393 587.222 675.93Q586.471 675.468 585.18 675.468L581.226 675.468L581.226 672.653L584.903 672.653Q586.031 672.653 586.669 672.191Q587.306 671.728 587.306 670.916Q587.306 669.974 586.393 669.444Q585.479 668.908 584.046 668.908Q582.986 668.908 581.852 669.201Q580.718 669.489 579.703 670.064L578.569 667.154Q581.136 665.834 584.114 665.834Q586.009 665.834 587.6 666.392Q589.196 666.945 590.143 668.011Q591.091 669.072 591.091 670.482Q591.091 671.632 590.465 672.535Q589.844 673.437 588.761 673.922ZM616.09 666.184L616.09 682.355L612.345 682.355L612.345 675.722L605.001 675.722L605.001 682.355L601.256 682.355L601.256 666.184L605.001 666.184L605.001 672.557L612.345 672.557L612.345 666.184L616.09 666.184ZM627.853 682.631Q625.332 682.631 623.307 681.548Q621.288 680.46 620.143 678.553Q619.003 676.647 619.003 674.267Q619.003 671.892 620.143 669.985Q621.288 668.079 623.307 666.996Q625.332 665.907 627.853 665.907Q630.369 665.907 632.377 666.996Q634.391 668.079 635.541 669.985Q636.698 671.892 636.698 674.267Q636.698 676.647 635.541 678.553Q634.391 680.46 632.377 681.548Q630.369 682.631 627.853 682.631ZM627.853 679.444Q629.28 679.444 630.437 678.785Q631.593 678.125 632.253 676.951Q632.913 675.773 632.913 674.267Q632.913 672.766 632.253 671.587Q631.593 670.408 630.437 669.754Q629.28 669.094 627.853 669.094Q626.421 669.094 625.264 669.754Q624.108 670.408 623.448 671.587Q622.788 672.766 622.788 674.267Q622.788 675.773 623.448 676.951Q624.108 678.125 625.264 678.785Q626.421 679.444 627.853 679.444ZM647.233 682.631Q644.763 682.631 642.76 681.56Q640.763 680.482 639.618 678.576Q638.479 676.669 638.479 674.267Q638.479 671.864 639.618 669.963Q640.763 668.056 642.76 666.985Q644.763 665.907 647.256 665.907Q649.36 665.907 651.057 666.646Q652.755 667.385 653.911 668.773L651.509 670.989Q649.867 669.094 647.442 669.094Q645.941 669.094 644.763 669.754Q643.584 670.408 642.924 671.587Q642.264 672.766 642.264 674.267Q642.264 675.773 642.924 676.951Q643.584 678.125 644.763 678.785Q645.941 679.444 647.442 679.444Q649.867 679.444 651.509 677.527L653.911 679.743Q652.755 681.154 651.046 681.892Q649.337 682.631 647.233 682.631ZM670.638 666.184L663.75 678.982Q662.758 680.832 661.359 681.78Q659.966 682.727 658.324 682.727Q657.055 682.727 655.69 682.169L656.593 679.326Q657.563 679.631 658.206 679.631Q658.9 679.631 659.452 679.298Q660.011 678.959 660.473 678.243L660.609 678.057L654.235 666.184L658.228 666.184L662.526 674.87L666.966 666.184L670.638 666.184Z" fill="#000000" fill-opacity="1.000000" fill-rule="evenodd"/>
	<path id="БІЛЬ/ПЕРШІННЯ В ГОРЛІ" d="M807.561 634.184L820.619 634.184L820.619 637.162L811.284 637.162L811.284 640.49L815.762 640.49Q818.701 640.49 820.235 641.714Q821.769 642.938 821.769 645.25Q821.769 647.676 820.06 649.018Q818.351 650.355 815.232 650.355L807.561 650.355L807.561 634.184ZM815.023 647.58Q816.456 647.58 817.217 647.016Q817.984 646.452 817.984 645.363Q817.984 643.237 815.023 643.237L811.284 643.237L811.284 647.58L815.023 647.58ZM824.611 634.184L828.334 634.184L828.334 650.355L824.611 650.355L824.611 634.184ZM846.652 634.184L846.652 650.355L842.958 650.355L842.958 637.23L837.413 637.23L837.295 640.603Q837.182 644.049 836.742 646.187Q836.302 648.324 835.276 649.469Q834.249 650.609 832.399 650.609Q831.637 650.609 830.549 650.355L830.78 647.191Q831.085 647.281 831.451 647.281Q832.794 647.281 833.324 645.702Q833.854 644.117 833.995 640.744L834.226 634.184L846.652 634.184ZM858.53 639.497Q861.485 639.497 863.065 640.817Q864.65 642.131 864.65 644.72Q864.65 647.467 862.907 648.911Q861.164 650.355 857.999 650.355L850.695 650.355L850.695 634.184L854.418 634.184L854.418 639.497L858.53 639.497ZM857.791 647.58Q859.246 647.58 860.064 646.869Q860.887 646.153 860.887 644.788Q860.887 642.267 857.791 642.267L854.418 642.267L854.418 647.58L857.791 647.58ZM872.209 630.901L875.418 630.901L867.792 652.668L864.583 652.668L872.209 630.901ZM891.153 634.184L891.153 650.355L887.431 650.355L887.431 637.23L880.132 637.23L880.132 650.355L876.409 650.355L876.409 634.184L891.153 634.184ZM907.691 647.354L907.691 650.355L895.169 650.355L895.169 634.184L907.392 634.184L907.392 637.184L898.886 637.184L898.886 640.698L906.399 640.698L906.399 643.609L898.886 643.609L898.886 647.354L907.691 647.354ZM917.718 634.184Q919.867 634.184 921.446 634.9Q923.031 635.616 923.883 636.936Q924.74 638.25 924.74 640.05Q924.74 641.832 923.883 643.163Q923.031 644.489 921.446 645.194Q919.867 645.893 917.718 645.893L914.463 645.893L914.463 650.355L910.718 650.355L910.718 634.184L917.718 634.184ZM917.509 642.847Q919.195 642.847 920.07 642.12Q920.95 641.392 920.95 640.05Q920.95 638.69 920.07 637.963Q919.195 637.23 917.509 637.23L914.463 637.23L914.463 642.847L917.509 642.847ZM948.563 634.184L948.563 650.355L927.214 650.355L927.214 634.184L930.936 634.184L930.936 647.303L936.041 647.303L936.041 634.184L939.758 634.184L939.758 647.303L944.846 647.303L944.846 634.184L948.563 634.184ZM952.581 634.184L956.304 634.184L956.304 650.355L952.581 650.355L952.581 634.184ZM975.155 634.184L975.155 650.355L971.41 650.355L971.41 643.722L964.066 643.722L964.066 650.355L960.321 650.355L960.321 634.184L964.066 634.184L964.066 640.557L971.41 640.557L971.41 634.184L975.155 634.184ZM994.031 634.184L994.031 650.355L990.286 650.355L990.286 643.722L982.942 643.722L982.942 650.355L979.196 650.355L979.196 634.184L982.942 634.184L982.942 640.557L990.286 640.557L990.286 634.184L994.031 634.184ZM1010.99 634.184L1010.99 650.355L1007.29 650.355L1007.29 646.057L1003.87 646.057L1001.01 650.355L997.057 650.355L1000.43 645.482Q998.788 644.81 997.908 643.462Q997.034 642.109 997.034 640.213Q997.034 638.341 997.886 636.993Q998.743 635.639 1000.31 634.911Q1001.88 634.184 1004.01 634.184L1010.99 634.184ZM1004.1 637.23Q1002.51 637.23 1001.66 637.974Q1000.82 638.713 1000.82 640.168Q1000.82 641.578 1001.63 642.34Q1002.44 643.101 1004.01 643.101L1007.29 643.101L1007.29 637.23L1004.1 637.23ZM1032.78 641.922Q1034.25 642.362 1035.04 643.355Q1035.83 644.348 1035.83 645.803Q1035.83 647.952 1034.2 649.154Q1032.57 650.355 1029.54 650.355L1021.57 650.355L1021.57 634.184L1029.1 634.184Q1031.92 634.184 1033.49 635.272Q1035.06 636.355 1035.06 638.363Q1035.06 639.565 1034.46 640.478Q1033.86 641.392 1032.78 641.922ZM1025.29 640.885L1028.78 640.885Q1030 640.885 1030.63 640.388Q1031.25 639.892 1031.25 638.916Q1031.25 637.974 1030.62 637.466Q1029.98 636.953 1028.78 636.953L1025.29 636.953L1025.29 640.885ZM1029.4 647.58Q1032.04 647.58 1032.04 645.504Q1032.04 643.49 1029.4 643.49L1025.29 643.49L1025.29 647.58L1029.4 647.58ZM1056.71 637.23L1049.02 637.23L1049.04 650.355L1045.32 650.355L1045.32 634.184L1056.73 634.184L1056.71 637.23ZM1065.1 650.631Q1062.58 650.631 1060.55 649.548Q1058.53 648.46 1057.39 646.553Q1056.25 644.647 1056.25 642.267Q1056.25 639.892 1057.39 637.985Q1058.53 636.079 1060.55 634.996Q1062.58 633.907 1065.1 633.907Q1067.62 633.907 1069.62 634.996Q1071.64 636.079 1072.79 637.985Q1073.94 639.892 1073.94 642.267Q1073.94 644.647 1072.79 646.553Q1071.64 648.46 1069.62 649.548Q1067.62 650.631 1065.1 650.631ZM1065.1 647.444Q1066.53 647.444 1067.68 646.785Q1068.84 646.125 1069.5 644.951Q1070.16 643.773 1070.16 642.267Q1070.16 640.766 1069.5 639.587Q1068.84 638.408 1067.68 637.754Q1066.53 637.094 1065.1 637.094Q1063.67 637.094 1062.51 637.754Q1061.35 638.408 1060.7 639.587Q1060.04 640.766 1060.04 642.267Q1060.04 643.773 1060.7 644.951Q1061.35 646.125 1062.51 646.785Q1063.67 647.444 1065.1 647.444ZM1083.83 634.184Q1085.98 634.184 1087.56 634.9Q1089.14 635.616 1090 636.936Q1090.85 638.25 1090.85 640.05Q1090.85 641.832 1090 643.163Q1089.14 644.489 1087.56 645.194Q1085.98 645.893 1083.83 645.893L1080.58 645.893L1080.58 650.355L1076.83 650.355L1076.83 634.184L1083.83 634.184ZM1083.62 642.847Q1085.31 642.847 1086.18 642.12Q1087.06 641.392 1087.06 640.05Q1087.06 638.69 1086.18 637.963Q1085.31 637.23 1083.62 637.23L1080.58 637.23L1080.58 642.847L1083.62 642.847ZM1106.98 634.184L1106.98 650.355L1103.29 650.355L1103.29 637.23L1097.74 637.23L1097.62 640.603Q1097.51 644.049 1097.07 646.187Q1096.63 648.324 1095.61 649.469Q1094.58 650.609 1092.73 650.609Q1091.97 650.609 1090.88 650.355L1091.11 647.191Q1091.41 647.281 1091.78 647.281Q1093.12 647.281 1093.65 645.702Q1094.18 644.117 1094.32 640.744L1094.56 634.184L1106.98 634.184ZM1111.02 634.184L1114.75 634.184L1114.75 650.355L1111.02 650.355L1111.02 634.184Z" fill="#000000" fill-opacity="1.000000" fill-rule="evenodd"/>
	<path id="0" d="M25.4411 563.47Q23.908 563.47 22.7073 562.658Q21.5066 561.84 20.8324 560.321Q20.1628 558.797 20.1628 556.733Q20.1628 554.673 20.8324 553.149Q21.5066 551.625 22.7073 550.813Q23.908 550 25.4411 550Q26.9743 550 28.1749 550.813Q29.3756 551.625 30.0544 553.149Q30.7379 554.673 30.7379 556.733Q30.7379 558.797 30.0544 560.321Q29.3756 561.84 28.1749 562.658Q26.9743 563.47 25.4411 563.47ZM25.4411 562.219Q26.5956 562.219 27.473 561.577Q28.355 560.935 28.8445 559.707Q29.3386 558.474 29.3386 556.733Q29.3386 554.997 28.8445 553.768Q28.355 552.535 27.473 551.893Q26.5956 551.251 25.4411 551.251Q24.2866 551.251 23.4046 551.893Q22.5272 552.535 22.0331 553.768Q21.5436 554.997 21.5436 556.733Q21.5436 558.474 22.0331 559.707Q22.5272 560.935 23.4046 561.577Q24.2866 562.219 25.4411 562.219Z" fill="#000000" fill-opacity="1.000000" fill-rule="evenodd"/>
	<path id="20" d="M18.5367 452.145L18.5367 453.355L9.25003 453.355L9.25003 452.39L14.7546 447.001Q15.7936 445.98 16.163 445.232Q16.5325 444.484 16.5325 443.727Q16.5325 442.554 15.729 441.903Q14.9254 441.251 13.4292 441.251Q11.1018 441.251 9.81803 442.725L8.85289 441.893Q9.6287 440.984 10.8294 440.494Q12.03 440 13.5447 440Q15.5673 440 16.7495 440.956Q17.9317 441.912 17.9317 443.574Q17.9317 444.599 17.4745 445.546Q17.022 446.488 15.7567 447.716L11.2542 452.145L18.5367 452.145ZM25.4411 453.47Q23.908 453.47 22.7073 452.658Q21.5066 451.84 20.8324 450.321Q20.1628 448.797 20.1628 446.733Q20.1628 444.673 20.8324 443.149Q21.5066 441.625 22.7073 440.813Q23.908 440 25.4411 440Q26.9743 440 28.1749 440.813Q29.3756 441.625 30.0544 443.149Q30.7379 444.673 30.7379 446.733Q30.7379 448.797 30.0544 450.321Q29.3756 451.84 28.1749 452.658Q26.9743 453.47 25.4411 453.47ZM25.4411 452.219Q26.5956 452.219 27.473 451.577Q28.355 450.935 28.8445 449.707Q29.3386 448.474 29.3386 446.733Q29.3386 444.997 28.8445 443.768Q28.355 442.535 27.473 441.893Q26.5956 441.251 25.4411 441.251Q24.2866 441.251 23.4046 441.893Q22.5272 442.535 22.0331 443.768Q21.5436 444.997 21.5436 446.733Q21.5436 448.474 22.0331 449.707Q22.5272 450.935 23.4046 451.577Q24.2866 452.219 25.4411 452.219Z" fill="#000000" fill-opacity="1.000000" fill-rule="evenodd"/>
	<path id="40" d="M18.9139 339.873L16.2678 339.873L16.2678 343.355L14.9055 343.355L14.9055 339.873L7.43375 339.873L7.43375 338.889L14.4484 330.115L15.963 330.115L9.19317 338.663L14.9425 338.663L14.9425 335.602L16.2678 335.602L16.2678 338.663L18.9139 338.663L18.9139 339.873ZM25.4411 343.47Q23.908 343.47 22.7073 342.658Q21.5066 341.84 20.8324 340.321Q20.1628 338.797 20.1628 336.733Q20.1628 334.673 20.8324 333.149Q21.5066 331.625 22.7073 330.813Q23.908 330 25.4411 330Q26.9743 330 28.1749 330.813Q29.3756 331.625 30.0544 333.149Q30.7379 334.673 30.7379 336.733Q30.7379 338.797 30.0544 340.321Q29.3756 341.84 28.1749 342.658Q26.9743 343.47 25.4411 343.47ZM25.4411 342.219Q26.5956 342.219 27.473 341.577Q28.355 340.935 28.8445 339.707Q29.3386 338.474 29.3386 336.733Q29.3386 334.997 28.8445 333.768Q28.355 332.535 27.473 331.893Q26.5956 331.251 25.4411 331.251Q24.2866 331.251 23.4046 331.893Q22.5272 332.535 22.0331 333.768Q21.5436 334.997 21.5436 336.733Q21.5436 338.474 22.0331 339.707Q22.5272 340.935 23.4046 341.577Q24.2866 342.219 25.4411 342.219Z" fill="#000000" fill-opacity="1.000000" fill-rule="evenodd"/>
	<path id="60" d="M14.1297 225.431Q15.4319 225.431 16.4433 225.925Q17.4592 226.414 18.0226 227.315Q18.5906 228.211 18.5906 229.402Q18.5906 230.612 18.0041 231.54Q17.4223 232.464 16.3878 232.967Q15.3581 233.47 14.0743 233.47Q11.4421 233.47 10.0428 231.739Q8.6436 230.007 8.6436 226.848Q8.6436 224.636 9.40094 223.103Q10.1583 221.57 11.5159 220.785Q12.8782 220 14.6977 220Q16.6649 220 17.8379 220.72L17.2883 221.815Q16.3417 221.191 14.7162 221.191Q12.5227 221.191 11.2712 222.581Q10.0244 223.971 10.0244 226.622Q10.0244 227.093 10.0798 227.698Q10.5739 226.622 11.6499 226.026Q12.7305 225.431 14.1297 225.431ZM14.0142 232.316Q15.455 232.316 16.3509 231.531Q17.2514 230.746 17.2514 229.439Q17.2514 228.137 16.3509 227.361Q15.455 226.585 13.9219 226.585Q12.9198 226.585 12.1532 226.964Q11.3866 227.338 10.9479 228.003Q10.5139 228.663 10.5139 229.476Q10.5139 230.233 10.9202 230.88Q11.3312 231.522 12.1255 231.919Q12.9198 232.316 14.0142 232.316ZM25.4411 233.47Q23.908 233.47 22.7073 232.658Q21.5066 231.84 20.8324 230.321Q20.1628 228.797 20.1628 226.733Q20.1628 224.673 20.8324 223.149Q21.5066 221.625 22.7073 220.813Q23.908 220 25.4411 220Q26.9743 220 28.1749 220.813Q29.3756 221.625 30.0544 223.149Q30.7379 224.673 30.7379 226.733Q30.7379 228.797 30.0544 230.321Q29.3756 231.84 28.1749 232.658Q26.9743 233.47 25.4411 233.47ZM25.4411 232.219Q26.5956 232.219 27.473 231.577Q28.355 230.935 28.8445 229.707Q29.3386 228.474 29.3386 226.733Q29.3386 224.997 28.8445 223.768Q28.355 222.535 27.473 221.893Q26.5956 221.251 25.4411 221.251Q24.2866 221.251 23.4046 221.893Q22.5272 222.535 22.0331 223.768Q21.5436 224.997 21.5436 226.733Q21.5436 228.474 22.0331 229.707Q22.5272 230.935 23.4046 231.577Q24.2866 232.219 25.4411 232.219Z" fill="#000000" fill-opacity="1.000000" fill-rule="evenodd"/>
	<path id="80" d="M15.6777 116.414Q16.9291 116.83 17.5987 117.661Q18.273 118.492 18.273 119.665Q18.273 120.82 17.6449 121.683Q17.0215 122.542 15.8578 123.009Q14.6941 123.47 13.1286 123.47Q10.7411 123.47 9.37885 122.45Q8.02118 121.425 8.02118 119.665Q8.02118 118.474 8.67231 117.652Q9.32343 116.83 10.5749 116.414Q9.54971 116.017 9.01865 115.269Q8.49221 114.521 8.49221 113.5Q8.49221 111.893 9.74828 110.947Q11.009 110 13.1286 110Q14.5278 110 15.5761 110.429Q16.6244 110.854 17.2108 111.649Q17.7973 112.443 17.7973 113.5Q17.7973 114.521 17.2478 115.269Q16.7029 116.017 15.6777 116.414ZM9.8545 113.537Q9.8545 114.636 10.7227 115.278Q11.5954 115.92 13.1286 115.92Q14.6571 115.92 15.5345 115.278Q16.4166 114.636 16.4166 113.556Q16.4166 112.443 15.5161 111.801Q14.6202 111.154 13.1286 111.154Q11.6139 111.154 10.7319 111.801Q9.8545 112.443 9.8545 113.537ZM13.1286 122.316Q14.8834 122.316 15.8763 121.596Q16.8737 120.875 16.8737 119.647Q16.8737 118.418 15.8763 117.712Q14.8834 117.001 13.1286 117.001Q11.3876 117.001 10.3948 117.712Q9.40194 118.418 9.40194 119.647Q9.40194 120.898 10.3856 121.609Q11.3692 122.316 13.1286 122.316ZM25.4411 123.47Q23.908 123.47 22.7073 122.658Q21.5066 121.84 20.8324 120.321Q20.1628 118.797 20.1628 116.733Q20.1628 114.673 20.8324 113.149Q21.5066 111.625 22.7073 110.813Q23.908 110 25.4411 110Q26.9743 110 28.1749 110.813Q29.3756 111.625 30.0544 113.149Q30.7379 114.673 30.7379 116.733Q30.7379 118.797 30.0544 120.321Q29.3756 121.84 28.1749 122.658Q26.9743 123.47 25.4411 123.47ZM25.4411 122.219Q26.5956 122.219 27.473 121.577Q28.355 120.935 28.8445 119.707Q29.3386 118.474 29.3386 116.733Q29.3386 114.997 28.8445 113.768Q28.355 112.535 27.473 111.893Q26.5956 111.251 25.4411 111.251Q24.2866 111.251 23.4046 111.893Q22.5272 112.535 22.0331 113.768Q21.5436 114.997 21.5436 116.733Q21.5436 118.474 22.0331 119.707Q22.5272 120.935 23.4046 121.577Q24.2866 122.219 25.4411 122.219Z" fill="#000000" fill-opacity="1.000000" fill-rule="evenodd"/>
	<path id="100" d="M4.48404 0.115418L4.48404 13.355L3.12176 13.355L3.12176 1.32531L4.83394e-05 1.32531L4.83394e-05 0.115418L4.48404 0.115418ZM12.9194 13.4704Q11.3862 13.4704 10.1856 12.6577Q8.98492 11.8403 8.31071 10.321Q7.64111 8.7971 7.64111 6.73289Q7.64111 4.6733 8.31071 3.14939Q8.98492 1.62548 10.1856 0.812723Q11.3862 -2.95639e-05 12.9194 -2.95639e-05Q14.4525 -2.95639e-05 15.6532 0.812723Q16.8539 1.62548 17.5327 3.14939Q18.2161 4.6733 18.2161 6.73289Q18.2161 8.7971 17.5327 10.321Q16.8539 11.8403 15.6532 12.6577Q14.4525 13.4704 12.9194 13.4704ZM12.9194 12.219Q14.0739 12.219 14.9513 11.5771Q15.8333 10.9352 16.3228 9.70683Q16.8169 8.47384 16.8169 6.73289Q16.8169 4.99655 16.3228 3.76819Q15.8333 2.53521 14.9513 1.89332Q14.0739 1.25142 12.9194 1.25142Q11.7649 1.25142 10.8829 1.89332Q10.0055 2.53521 9.51136 3.76819Q9.02187 4.99655 9.02187 6.73289Q9.02187 8.47384 9.51136 9.70683Q10.0055 10.9352 10.8829 11.5771Q11.7649 12.219 12.9194 12.219ZM25.4411 13.4704Q23.908 13.4704 22.7073 12.6577Q21.5066 11.8403 20.8324 10.321Q20.1628 8.7971 20.1628 6.73289Q20.1628 4.6733 20.8324 3.14939Q21.5066 1.62548 22.7073 0.812723Q23.908 -2.95639e-05 25.4411 -2.95639e-05Q26.9743 -2.95639e-05 28.1749 0.812723Q29.3756 1.62548 30.0544 3.14939Q30.7379 4.6733 30.7379 6.73289Q30.7379 8.7971 30.0544 10.321Q29.3756 11.8403 28.1749 12.6577Q26.9743 13.4704 25.4411 13.4704ZM25.4411 12.219Q26.5956 12.219 27.473 11.5771Q28.355 10.9352 28.8445 9.70683Q29.3386 8.47384 29.3386 6.73289Q29.3386 4.99655 28.8445 3.76819Q28.355 2.53521 27.473 1.89332Q26.5956 1.25142 25.4411 1.25142Q24.2866 1.25142 23.4046 1.89332Q22.5272 2.53521 22.0331 3.76819Q21.5436 4.99655 21.5436 6.73289Q21.5436 8.47384 22.0331 9.70683Q22.5272 10.9352 23.4046 11.5771Q24.2866 12.219 25.4411 12.219Z" fill="#000000" fill-opacity="1.000000" fill-rule="evenodd"/>
</svg>
