<svg width="19.000000" height="19.000000" viewBox="0 0 19 19" fill="none" xmlns="http://www.w3.org/2000/svg" xmlns:xlink="http://www.w3.org/1999/xlink">
	<desc>
			Created with Pixso.
	</desc>
	<defs>
		<clipPath id="clip218_137">
			<rect id="img1 2" width="19.000000" height="19.000000" fill="white" fill-opacity="0"/>
		</clipPath>
	</defs>
	<rect id="img1 2" width="19.000000" height="19.000000" fill="#FFFFFF" fill-opacity="0"/>
	<g clip-path="url(#clip218_137)">
		<path id="Vector" d="M18.4302 8.82434C18.4302 13.49 14.7568 17.1633 9.98584 17.1633C5.25684 17.1633 1.49902 13.49 1.49902 8.82434C1.49902 4.24329 5.27783 0.591064 9.98584 0.591064C14.7568 0.591064 18.4302 4.24329 18.4302 8.82434ZM3.58887 8.82434C3.58887 12.4977 6.3125 15.411 10.0278 15.411C13.6377 15.411 16.3188 12.4977 16.3188 8.8877C16.3188 5.21436 13.6592 2.25879 9.98584 2.25879C6.3125 2.23767 3.58887 5.21436 3.58887 8.82434ZM8.67676 13.1522L6.75586 13.1522L6.75586 4.91882C7.51562 4.77112 8.57129 4.66553 9.92236 4.66553C11.4844 4.66553 12.1812 4.91882 12.7935 5.27771C13.2368 5.6366 13.5957 6.29102 13.5957 7.09326C13.5957 8.0011 12.8989 8.69775 11.8857 8.99329L11.8857 9.07776C12.688 9.37329 13.1523 9.98547 13.3848 11.0833C13.6377 12.35 13.7856 12.8354 13.9966 13.1522L11.9277 13.1522C11.6748 12.8566 11.5269 12.0967 11.2734 11.1466C11.1255 10.2389 10.6401 9.83777 9.58447 9.83777L8.67676 9.83777L8.67676 13.1522ZM8.71924 8.46545L9.62695 8.46545C10.6821 8.46545 11.5269 8.10657 11.5269 7.26221C11.5269 6.5022 10.978 5.99548 9.77441 5.99548C9.26807 5.99548 8.93018 6.03772 8.71924 6.10107L8.71924 8.46545Z" fill="#008083" fill-opacity="1.000000" fill-rule="nonzero"/>
	</g>
</svg>
